<?xml version="1.0" encoding="UTF-8"?>
<!DOCTYPE svg PUBLIC "-//W3C//DTD SVG 1.1//EN" "http://www.w3.org/Graphics/SVG/1.1/DTD/svg11.dtd">
<!-- Creator: CorelDRAW -->
<svg xmlns="http://www.w3.org/2000/svg" xml:space="preserve" width="118.409mm" height="26.4603mm" version="1.1" style="shape-rendering:geometricPrecision; text-rendering:geometricPrecision; image-rendering:optimizeQuality; fill-rule:evenodd; clip-rule:evenodd"
viewBox="0 0 461.2 103.06"
 xmlns:xlink="http://www.w3.org/1999/xlink"
 xmlns:xodm="http://www.corel.com/coreldraw/odm/2003">
 <defs>
  <style type="text/css">
   <![CDATA[
    .fil0 {fill:#65382E;fill-rule:nonzero}
   ]]>
  </style>
 </defs>
 <g id="Layer_x0020_1">
  <metadata id="CorelCorpID_0Corel-Layer"/>
  <path class="fil0" d="M146.33 39.57c-5.51,-2.27 -10.87,-3.17 -16.32,-3.51 -3.16,-0.2 -6.36,-0.29 -9.49,0.39 -0.56,0.12 -1.38,0.12 -1.56,0.72 -0.2,0.66 0.59,0.95 1.03,1.3 1.69,1.33 3.39,2.67 5.14,3.92 1.65,1.18 2.84,3.52 4.73,3.61 1.84,0.08 3.74,-1.37 5.63,-2.12 3.49,-1.4 6.99,-2.78 10.85,-4.31zm-60.36 22.32c-0.51,1.49 -1.02,2.97 -1.51,4.46 -0.17,0.51 -0.3,1.03 -0.4,1.56 -0.2,1.08 -0.36,2.23 0.82,2.85 1.25,0.66 1.72,-0.63 2.74,-1.46 0.22,1.61 -0.08,2.83 -0.96,3.88 -0.94,1.12 -2.14,1.41 -3.56,0.91 -1.33,-0.47 -1.9,-1.48 -1.86,-2.75 0.11,-3.82 2,-6.83 4.73,-9.46zm120.24 -29.34c-0.54,-1.04 -0.34,-1.68 -0.26,-2.32 0.54,-4.18 0.04,-8.09 -2.78,-11.47 -1.16,-1.4 -0.7,-3.03 -0.13,-4.42 0.37,-0.9 0.98,0.07 1.28,0.44 1.9,2.33 3.01,5.07 3.39,8 0.41,3.22 -0.18,6.38 -1.49,9.79zm-91.9 50.63c0.64,3.11 -1.04,5 -4,4.52 -1.05,-0.17 -1.74,-0.76 -2.02,-1.77 -0.8,-2.91 1.88,-9.11 4.76,-10.84 0.03,1.25 -0.74,2.16 -1.09,3.19 -0.46,1.35 -1.1,2.65 -1.04,4.13 0.03,0.71 -0.04,1.51 0.82,1.81 0.82,0.29 1.52,0.07 2.02,-0.7 0.12,-0.18 0.26,-0.42 0.56,-0.33zm4.3 -60.39c-0.09,-3.34 0.4,-6.33 -0.31,-9.28 -0.33,-1.35 -0.7,-2.81 -1.71,-3.7 -1.55,-1.35 -1.27,-2.94 -1.17,-4.59 0.06,-1.13 0.57,-1.21 1.37,-0.6 0.33,0.25 0.64,0.55 0.89,0.88 3.39,4.54 3.68,11.53 0.94,17.28zm334.94 59.61c-1.55,-0.75 -3.24,-1.52 -4.73,-2.64 -0.4,-0.3 -0.19,-0.75 -0.08,-1.16 1.34,-4.65 1.68,-4.73 6,-2.47 1.65,0.86 1.89,1.71 0.99,3.19 -0.43,0.71 -0.66,1.54 -1.03,2.29 -0.2,0.41 -0.37,0.92 -1.16,0.79zm-344.98 -33.25c-0.67,1.4 -1.26,3.05 -2.34,4.4 -0.48,0.6 -5.58,-1.71 -5.7,-2.52 -0.07,-0.46 2.07,-4.67 2.47,-4.9 0.3,-0.17 0.59,-0.09 0.85,0.03 1.41,0.65 2.82,1.3 4.21,1.97 0.32,0.16 0.59,0.42 0.51,1.02zm-108.58 -5.76c1.71,-1.56 3.33,-2.51 4.45,-3.97 0.39,-0.5 1.18,-1.04 0.81,-1.65 -0.42,-0.7 -1.29,-0.25 -1.97,-0.11 -0.12,0.02 -0.24,0.1 -0.35,0.08 -0.82,-0.11 -1.63,1.17 -2.23,0.41 -0.55,-0.69 0.16,-1.69 0.43,-2.54 0.64,-2.01 1.94,-3.2 4.11,-3.42 1.42,-0.15 2.82,-0.49 4.24,-0.66 0.72,-0.09 1.26,0.1 1.18,1.08 -0.32,4.24 -5.81,10.07 -10.68,10.78zm98.68 -3.18c1.18,-1.02 2.42,-2 3.53,-3.11 0.63,-0.63 1.84,-1.37 1.28,-2.28 -0.46,-0.75 -1.65,0.02 -2.51,0.1 -0.69,0.06 -1.37,1.02 -1.92,0.42 -0.55,-0.6 0.1,-1.47 0.3,-2.19 0.59,-2.22 1.88,-3.65 4.33,-3.87 1.42,-0.13 2.82,-0.45 4.24,-0.65 0.78,-0.11 1.23,0.11 1.13,1.08 -0.44,4.27 -5.24,9.82 -9.44,10.85 -0.3,0.07 -0.58,0.08 -0.93,-0.34zm126.73 46.26c3.19,-1.91 6.3,-3.89 9.21,-6.17 2.86,-2.24 5.3,-4.82 6.89,-8.14 0.43,-0.91 0.82,-2.24 2.18,-2.01 1.22,0.21 1.85,1.33 2.12,2.46 0.28,1.2 0.51,2.51 -0.54,3.54 -0.62,0.6 -1.4,0.45 -2.01,0.08 -1.61,-0.99 -2.41,-0.24 -3.2,1.16 -2.58,4.6 -6.39,7.67 -11.57,8.97 -1,0.25 -1.98,0.37 -3.08,0.12zm-99.61 -13.01c0.34,-0.9 1,-0.98 1.48,-1.28 4.47,-2.77 9.01,-5.45 12.4,-9.61 1.07,-1.31 1.69,-2.88 2.62,-4.27 0.49,-0.74 1.01,-1.61 2.07,-1.46 1.02,0.14 1.39,1.05 1.71,1.89 0.17,0.44 0.29,0.91 0.39,1.38 0.19,0.91 0.2,1.83 -0.62,2.45 -0.79,0.6 -1.77,0.6 -2.54,0.11 -1.13,-0.71 -1.62,-0.28 -2.24,0.68 -1.03,1.6 -2.15,3.16 -3.37,4.63 -3.02,3.64 -7.17,4.92 -11.89,5.48zm-106.95 -61.24c0.27,2.12 1.23,3.62 2.81,5 1.66,1.46 1.45,5.65 -0.05,7.32 -1.05,1.17 -2.42,1.27 -3.81,0.9 -1.29,-0.34 -1.98,-1.32 -2.1,-2.63 -0.36,-3.91 0.99,-7.34 3.15,-10.61zm418.83 25.49c0.13,2.3 1.52,3.68 2.87,5.21 1.41,1.6 0.95,5.65 -0.55,7.18 -1.03,1.05 -2.33,1.21 -3.67,0.83 -1.47,-0.42 -2.01,-1.62 -2.18,-3 -0.19,-1.46 0.25,-2.84 0.64,-4.22 0.59,-2.13 1.64,-4.05 2.9,-6zm-289.96 -23.69c0.82,3.23 1.95,6.44 0.87,9.87 -0.54,1.69 -2.02,2.17 -3.8,1.3 -0.72,-0.35 -1.23,-0.59 -1.83,0.2 -0.73,0.96 -1.73,1.56 -2.98,1.11 -1.37,-0.5 -1.76,-1.7 -1.85,-3.02 -0.04,-0.54 -0,-1.08 -0.02,-1.62 -0.01,-0.23 -0.06,-0.47 -0.09,-0.7 -0.98,0.34 -1.25,-0.09 -0.98,-0.97 0.41,-1.36 1.23,-2.48 2.38,-3.28 0.59,-0.41 0.66,0.24 0.67,0.64 0.03,1.13 -0.01,2.27 0.05,3.41 0.04,0.86 0.43,1.59 1.42,1.48 0.96,-0.11 1.22,-0.91 1.14,-1.74 -0.09,-0.95 -0.26,-1.89 -0.45,-2.83 -0.13,-0.62 -0.15,-1.18 0.24,-1.71 0.28,-0.38 0.49,-0.93 1.04,-0.88 0.59,0.05 0.64,0.68 0.74,1.11 0.23,1.05 0.4,2.11 0.53,3.17 0.1,0.86 0.18,1.94 1.27,1.76 1.19,-0.19 0.73,-1.35 0.55,-2.07 -0.41,-1.65 -0.9,-3.25 0.28,-4.79 0.14,-0.19 0.21,-0.44 0.31,-0.66 0.18,0.07 0.36,0.13 0.54,0.2zm-89.13 -0.35c-0.61,0.29 -0.98,0.63 -1.21,0.55 -0.5,-0.17 -0.34,-0.74 -0.24,-1.09 0.44,-1.48 1.41,-2.63 2.55,-3.61 0.64,-0.56 0.81,0.04 0.82,0.56 0.02,1.14 -0.01,2.27 0.02,3.41 0.03,0.95 0.23,1.96 1.45,1.8 1.12,-0.15 1.24,-1.17 1.14,-2.11 -0.09,-0.83 -0.27,-1.65 -0.45,-2.46 -0.1,-0.47 -0.22,-0.94 -0.02,-1.4 0.24,-0.53 0.31,-1.35 0.96,-1.4 0.75,-0.06 0.77,0.78 0.94,1.31 0.39,1.2 0.63,2.42 0.68,3.69 0.03,0.76 0.35,1.58 1.19,1.52 1.04,-0.07 0.77,-1.06 0.71,-1.72 -0.08,-0.83 -0.35,-1.63 -0.5,-2.45 -0.08,-0.46 -0.21,-0.98 -0.08,-1.4 0.22,-0.72 0.46,-1.74 1.29,-1.74 0.71,-0.01 0.72,1.03 0.83,1.62 0.4,2.33 1.21,4.64 0.55,7.07 -0.57,2.1 -1.85,2.91 -3.86,2.11 -0.98,-0.39 -1.47,-0.24 -2.09,0.57 -0.76,0.99 -1.9,1.24 -3.08,0.88 -1.15,-0.35 -1.46,-1.38 -1.58,-2.41 -0.11,-1 -0.02,-2.02 -0.02,-3.28zm139.46 6.1c1.21,3.39 2.26,6.41 1.46,9.69 -0.5,2.07 -2.28,2.82 -4.16,1.83 -0.69,-0.36 -1.16,-0.73 -1.76,0.17 -0.72,1.08 -1.85,1.57 -3.13,1.17 -1.42,-0.44 -1.61,-1.75 -1.92,-2.99 -0.21,-0.85 0.82,-2.2 -0.98,-2.54 -0.28,-0.05 -0.09,-0.99 0.22,-1.47 0.68,-1.05 1.38,-2.08 2.48,-2.99 0.52,1.23 0.07,2.43 0.3,3.53 0.21,0.95 -0.05,2.56 1.52,2.3 1.34,-0.22 1.08,-1.58 0.98,-2.68 -0.11,-1.19 -0.94,-2.41 -0.04,-3.6 0.27,-0.36 0.47,-0.93 1.07,-0.8 0.45,0.09 0.58,0.57 0.7,0.96 0.26,0.8 0.45,1.61 0.41,2.46 -0.02,0.66 0.06,1.31 0.37,1.91 0.27,0.51 0.62,0.91 1.25,0.81 0.73,-0.12 0.73,-0.72 0.67,-1.25 -0.08,-0.71 -0.17,-1.43 -0.4,-2.1 -0.52,-1.49 -0.2,-2.79 0.95,-4.4zm39.44 7.88c-0.77,-1.47 -1.55,-2.94 -2.31,-4.41 -0.32,-0.62 -0.51,-0.85 -1.29,-0.33 -1.69,1.13 -3.44,0.33 -4.04,-1.61 -0.36,-1.17 -0.15,-2.28 0.31,-3.32 0.59,-1.35 1.66,-1.81 3.1,-1.21 1.24,0.52 1.98,1.53 2.61,2.62 0.44,0.77 0.83,1.58 1.42,2.69 0.49,-1.94 0.89,-3.58 1.33,-5.21 0.39,-1.45 0.91,-2.85 1.81,-4.08 0.48,-0.66 1.11,-1.12 1.98,-0.99 0.91,0.13 1.22,0.83 1.47,1.61 0.44,1.38 0.32,2.71 -0.26,4.02 -0.26,0.59 -0.61,1.1 -1.36,0.67 -1.49,-0.87 -2.07,0.14 -2.58,1.23 -0.8,1.7 -0.95,3.56 -1.25,5.39 -0.16,0.98 -0.33,1.95 -0.49,2.93 -0.14,0 -0.29,0 -0.43,0.01zm-45.18 60.51c-0.78,-1.61 -1.47,-3.05 -2.17,-4.47 -0.36,-0.73 -0.68,-1.48 -1.62,-0.44 -0.52,0.58 -1.29,0.47 -2.02,0.22 -1.41,-0.47 -1.94,-1.46 -1.95,-2.87 -0.01,-1.47 -0.07,-2.96 1.62,-3.63 1.43,-0.57 2.57,0.07 3.51,1.12 1.04,1.17 1.66,2.61 2.55,4.31 0.5,-2.06 0.91,-3.8 1.36,-5.54 0.33,-1.28 0.78,-2.51 1.57,-3.59 0.59,-0.81 1.33,-1.42 2.42,-1.21 1.2,0.23 1.31,1.29 1.51,2.2 0.23,1.08 0,2.14 -0.48,3.13 -0.39,0.8 -0.77,1.41 -1.91,0.8 -1.09,-0.59 -1.76,0.18 -2.23,1.14 -1.02,2.1 -0.98,4.41 -1.4,6.63 -0.13,0.69 -0.19,1.38 -0.76,2.19zm-167.66 -39.65c1.69,0.81 3.46,1.56 5.12,2.48 0.71,0.4 0.1,1.08 -0.13,1.58 -1.4,3.08 -1.44,3.16 1.69,4.61 1.54,0.71 1.88,1.4 1.05,2.97 -1.89,3.55 -1.81,3.59 -5.53,1.93 -2.34,-1.05 -2.34,-1.05 -1.3,-3.41 0.97,-2.2 0.96,-2.19 -1.16,-3.32 -3.14,-1.67 -2.83,-1.1 -1.44,-4.37 0.37,-0.87 0.46,-2.01 1.7,-2.48zm77.67 -25.16c-0.79,-1.57 -1.57,-3.09 -2.32,-4.63 -0.34,-0.7 -0.63,-0.93 -1.5,-0.52 -1.35,0.63 -2.72,0.5 -3.57,-0.98 -0.86,-1.5 -0.39,-4.34 0.81,-5.12 1.1,-0.72 2.69,-0.35 3.85,0.93 1.05,1.16 1.64,2.59 2.43,4.34 0.58,-2.18 1.03,-4.01 1.55,-5.81 0.38,-1.32 0.89,-2.61 1.74,-3.71 0.49,-0.64 1.14,-1.11 2.01,-0.9 0.79,0.19 1.16,0.86 1.31,1.57 0.25,1.17 0.31,2.39 -0.05,3.54 -0.28,0.9 -0.55,1.89 -1.97,1.04 -1.11,-0.66 -1.63,0.41 -1.99,1.2 -0.99,2.2 -1.31,4.57 -1.61,6.94 -0.09,0.69 0.06,1.45 -0.71,2.1zm334.57 3.79c0.66,-2.96 1.09,-5.68 2.33,-8.17 0.63,-1.27 1.36,-2.87 3.12,-2.29 1.69,0.56 1.73,2.3 1.61,3.81 -0.06,0.74 -0.43,1.48 -0.74,2.18 -0.31,0.7 -0.77,1.05 -1.52,0.39 -1.24,-1.1 -1.8,-0.13 -2.28,0.82 -1.07,2.13 -1.07,4.5 -1.49,6.78 -0.12,0.64 -0.19,1.29 -0.75,2.18 -0.83,-1.59 -1.58,-3.02 -2.32,-4.45 -0.34,-0.65 -0.49,-1.21 -1.53,-0.6 -1.4,0.82 -2.97,0.27 -3.61,-0.89 -0.71,-1.3 -0.3,-4.28 0.68,-5.04 1.07,-0.82 2.59,-0.52 3.85,0.74 1.21,1.22 1.77,2.81 2.65,4.52zm-412.5 48.17c-1.05,-0.91 -1.71,-0.31 -2.38,0.18 -0.29,0.21 -0.63,0.5 -0.97,0.28 -0.4,-0.26 -0.31,-0.75 -0.24,-1.15 0.6,-3.44 3.37,-4.71 6.37,-2.92 0.26,0.15 0.55,0.28 0.75,0.49 0.83,0.85 2.78,1.19 2.33,2.57 -0.56,1.72 -1.49,3.59 -3.78,3.91 -1.55,0.21 -3.06,0.57 -4.42,1.4 -1.08,0.66 -1.55,1.43 -1.18,2.82 1.25,4.64 1.87,9.34 0.84,14.15 -0.66,-3.72 -1.23,-7.46 -2.04,-11.15 -0.34,-1.57 -0.69,-3.14 -0.75,-4.77 -0.09,-2.32 0.75,-3.93 3,-4.73 0.78,-0.28 1.53,-0.66 2.49,-1.08zm211.48 -19.35c-0.17,-2.64 -0.52,-5.14 -1.05,-7.61 -0.49,-2.27 -0.94,-4.55 -1.34,-6.84 -0.65,-3.72 0.09,-5.07 3.49,-6.63 0.42,-0.19 0.93,-0.24 1.27,-0.79 -0.83,-0.51 -1.45,0.04 -2.11,0.33 -0.26,0.11 -0.64,0.24 -0.83,0.13 -0.35,-0.2 -0.29,-0.64 -0.16,-0.97 0.59,-1.44 1.31,-2.82 2.4,-3.96 0.6,-0.62 1.34,-0.63 2.16,-0.34 1.87,0.65 3.26,1.97 4.72,3.2 0.34,0.29 0.57,0.71 0.32,1.12 -0.91,1.49 -1.45,3.31 -3.51,3.79 -1.28,0.3 -2.53,0.74 -3.76,1.2 -2.22,0.83 -2.62,1.53 -2,3.8 1.06,3.9 1.35,7.87 1.13,11.88 -0.03,0.55 0.18,1.21 -0.73,1.69zm-86.47 29.98c0.83,-1.05 1.87,-1 2.76,-1.26 5.25,-1.55 10.35,-3.42 14.65,-6.96 1.04,-0.86 2.22,-1.5 0.79,-3.21 -0.92,-1.09 0.18,-2.35 0.91,-3.37 0.46,-0.65 1.24,-1.05 1.25,-2.06 0.01,-0.76 0.73,-0.58 1.26,-0.39 1.74,0.65 4.15,4.45 4.03,6.35 -0.12,1.95 -1.26,2.88 -3.12,2.26 -1.43,-0.48 -2.11,-0.03 -2.92,1.1 -3.35,4.69 -8.16,6.83 -13.74,7.5 -1.86,0.22 -3.74,0.7 -5.87,0.04zm1.12 -74.31c0.16,-2 1.37,-3.25 1.31,-5.08 -11.11,3.49 -20.69,9.36 -29.51,17.16 -0.16,-1.95 0.12,-3.35 1.33,-4.51 3.18,-3.04 6.8,-5.5 10.6,-7.67 5.79,-3.29 11.76,-6.2 18.19,-8.07 1.96,-0.57 2.29,-0.26 1.75,1.74 -0.62,2.3 -1.45,4.49 -3.68,6.41zm58.22 -3.76c0.38,-1.1 0.76,-2.19 1.15,-3.29 0.14,-0.4 0.38,-0.85 0.1,-1.2 -0.38,-0.48 -0.91,-0.11 -1.32,0.04 -6.64,2.3 -13.02,5.17 -19.05,8.79 -4.12,2.47 -7.95,5.33 -11.63,8.41 -0.39,0.33 -0.76,0.99 -1.33,0.66 -0.56,-0.32 -0.19,-0.96 -0.13,-1.48 0.14,-1.19 0.68,-2.1 1.61,-2.89 5.65,-4.83 12.14,-8.31 18.78,-11.53 4.47,-2.17 9.05,-4.1 13.92,-5.25 1.71,-0.4 2.06,-0.11 1.6,1.5 -0.67,2.36 -1.85,4.47 -3.69,6.23zm212.95 65.89c-0.29,1.19 -0.3,2.47 -0.91,3.61 -0.95,1.78 -2.63,2.27 -4.17,1.04 -0.75,-0.6 -1.1,-0.52 -1.76,0.06 -2.25,1.99 -2.93,2.09 -5.39,0.57 -1.31,-0.81 -2.58,-0.88 -3.93,-0.34 -3.9,1.55 -7.78,3.14 -11.67,4.68 -4.97,1.96 -10.19,2.56 -15.47,2.87 -0.3,0.02 -0.6,0 -0.9,-0.03 -0.43,-0.04 -0.92,-0.12 -0.88,-0.67 0.03,-0.58 0.58,-0.53 0.97,-0.53 2.48,0.04 4.89,-0.4 7.28,-0.99 4.92,-1.21 9.53,-3.2 14.01,-5.53 2.76,-1.43 5.42,-3.08 8.42,-4.02 1.45,-0.45 2.63,-0.26 3.79,0.81 2.14,1.97 2.81,1.81 4.41,-0.7 0.22,-0.35 0.42,-0.74 0.72,-1.02 0.52,-0.5 1.06,-0.7 1.2,0.32 0.1,0.72 0.42,1.28 1.2,1.33 0.85,0.06 1.02,-0.7 1.34,-1.26 0.11,-0.21 0.17,-0.45 0.29,-0.66 0.25,-0.43 0.29,-1.22 1.02,-1 0.66,0.2 0.36,0.91 0.44,1.44zm-358.48 -15.4c-2.08,5.11 -4.21,10.21 -10.31,11.84 -2.74,0.73 -5.53,-0.1 -6.68,-1.87 -1.38,-2.13 -1.11,-5.04 0.7,-7.36 1.15,-1.48 2.56,-2.68 4.07,-3.78 0.31,-0.23 0.89,-0.38 0.75,-0.88 -0.15,-0.53 -0.73,-0.52 -1.21,-0.57 -1.01,-0.11 -1.88,0.22 -2.7,0.78 -0.28,0.19 -0.61,0.49 -0.95,0.16 -0.28,-0.27 -0.2,-0.67 -0.13,-1.02 0.31,-1.61 2.12,-3.41 3.86,-3.62 2.59,-0.31 5.14,0.05 7.63,0.82 0.91,0.28 1.22,0.72 0.34,1.47 -1.54,1.31 -2.86,2.82 -4.85,3.62 -2.01,0.81 -3.66,2.27 -5.04,3.96 -1.47,1.81 -0.96,3.41 1.24,4.14 3.5,1.16 7.63,-0.5 10.14,-4.06 0.92,-1.31 1.7,-2.73 3.15,-3.62zm25.6 -47.06c0.72,4.8 1.55,9.59 2.15,14.41 1.11,8.81 3.27,17.49 3.39,26.41 0.04,2.69 -0.37,5.36 -1.19,7.94 -0.15,0.48 -0.26,1.22 -0.93,1.15 -0.74,-0.08 -0.57,-0.82 -0.56,-1.31 0.29,-12.64 -2.78,-24.86 -4.56,-37.24 -0.7,-4.9 -1.34,-9.82 -2.39,-14.65 -0.49,-2.26 -0.79,-4.27 0.34,-6.33 0.17,-0.3 0.19,-0.75 0.63,-0.79 0.43,-0.04 0.59,0.35 0.75,0.65 1.62,3.14 3.23,6.27 4.81,9.42 0.18,0.35 0.18,0.81 0.2,1.22 0.02,0.28 0.03,0.63 -0.32,0.76 -0.35,0.14 -0.56,-0.14 -0.76,-0.35 -0.43,-0.48 -0.84,-0.99 -1.26,-1.48 -0.11,0.06 -0.21,0.13 -0.32,0.19zm131.18 -0.36c0.09,3.6 0.84,6.68 1.32,9.78 1.3,8.49 2.9,16.95 3.99,25.46 0.58,4.49 0.19,9.07 -0.84,13.54 -0.14,0.61 -0.2,1.57 -0.99,1.48 -0.91,-0.11 -0.48,-1.02 -0.48,-1.64 0.04,-4.61 -0.43,-9.17 -1.12,-13.72 -1.52,-10.09 -3.02,-20.18 -4.56,-30.26 -0.49,-3.18 -0.87,-6.39 -1.83,-9.48 -0.58,-1.87 0.52,-3.37 1.21,-4.89 0.39,-0.87 0.87,0 1.08,0.39 1.57,2.96 3.11,5.93 4.63,8.92 0.38,0.75 0.87,1.83 0.14,2.32 -0.84,0.57 -1.12,-0.72 -1.68,-1.16 -0.18,-0.14 -0.35,-0.29 -0.87,-0.73zm-47.08 0.29c0.65,4.12 1.26,8.11 1.9,12.1 1.25,7.78 2.73,15.53 3.68,23.35 0.53,4.36 0.59,8.85 -0.87,13.15 -0.2,0.59 -0.26,1.51 -1.11,1.38 -0.74,-0.11 -0.57,-0.96 -0.55,-1.53 0.34,-9.34 -1.83,-18.4 -3.1,-27.55 -1.04,-7.51 -2.27,-14.99 -3.43,-22.48 -0.15,-0.94 -0.3,-1.92 -0.67,-2.78 -0.86,-2.04 0.22,-3.73 0.84,-5.49 0.26,-0.75 0.8,-0.69 1.14,-0.02 1.65,3.19 3.29,6.39 4.87,9.61 0.28,0.57 0.43,1.5 -0.1,1.85 -0.61,0.41 -0.93,-0.5 -1.37,-0.85 -0.31,-0.25 -0.45,-0.73 -1.24,-0.73zm288.31 53.75c-0.5,1.15 -1,2.3 -1.77,3.32 -2.87,3.84 -7.5,3.73 -10.2,-0.27 -0.39,-0.59 -0.73,-1.21 -1.27,-2.11 -1.03,2.6 -2.2,4.91 -5.12,5.14 -2.98,0.24 -4.55,-1.69 -5.65,-4.47 -1.6,2.65 -3.49,4.59 -6.39,5.16 -4.41,0.87 -7.75,-0.76 -7.87,-5.68 -0.04,-1.72 -1.03,-1.07 -1.81,-0.83 -7.11,2.17 -14.3,4.03 -21.54,5.71 -11.39,2.64 -22.89,4.62 -34.5,5.91 -6.9,0.77 -13.83,1.23 -20.77,1.6 -7.14,0.38 -14.27,0.33 -21.4,0.23 -12.77,-0.17 -25.44,-1.6 -38.03,-3.73 -8.1,-1.37 -16.18,-2.8 -23.95,-5.56 -1.8,-0.64 -3.61,-1.32 -5.32,-2.18 -1.53,-0.77 -1.81,-0.28 -1.81,1.2 0.01,1.79 -0.17,3.58 -0.3,5.37 -0.11,1.39 -0.67,1.67 -1.87,0.84 -2.79,-1.93 -4.29,-4.58 -4.44,-8 -0.07,-1.52 0.25,-3.32 -1.53,-4.09 -1.81,-0.78 -3.63,-0.49 -5.29,0.66 -3.19,2.21 -5.7,5.12 -8.2,8.02 -2.82,3.26 -5.61,6.56 -9.05,9.21 -0.57,0.44 -1.17,0.83 -1.8,1.17 -3.77,2.04 -7.25,0.88 -9.05,-3.03 -1.22,-2.66 -1.39,-5.44 -0.65,-8.24 0.35,-1.33 0.23,-1.85 -1.32,-1.67 -5,0.58 -7.67,-2.2 -9.28,-6.95 -0.34,1.16 -0.56,1.98 -0.82,2.78 -1.35,4.08 -4.69,6.42 -9.02,6.32 -3.69,-0.08 -6.63,-3.35 -6.99,-7.8 -0.23,-2.76 -0.08,-5.5 0.45,-8.21 0.29,-1.49 0.24,-2.97 0.26,-5.01 -1.07,1.68 -1.6,3.08 -1.92,4.52 -0.78,3.5 -1.45,7.02 -2.18,10.52 -0.27,1.3 -0.73,2.54 -1.51,3.62 -1.5,2.07 -3.64,2.22 -5.29,0.26 -2.14,-2.53 -2.83,-5.65 -3.09,-8.83 -0.28,-3.4 0.09,-6.81 0.37,-10.21 0.04,-0.5 0.01,-1.28 0.73,-1.2 0.7,0.08 0.52,0.87 0.48,1.35 -0.27,3.46 -0.3,6.92 0.41,10.34 0.23,1.12 0.61,2.2 1.36,3.09 1.46,1.74 2.89,1.61 3.87,-0.43 1.25,-2.6 1.79,-5.45 2.54,-8.21 0.9,-3.31 1.81,-6.59 4.17,-9.23 0.79,-0.88 1.65,-2.3 2.75,-1.94 0.97,0.32 0.35,1.92 0.41,2.95 0.15,2.83 -0.6,5.57 -0.9,8.36 -0.24,2.15 -0.41,4.29 0.25,6.4 0.74,2.37 2.85,3.66 5.29,3.29 4.37,-0.67 7.54,-5.09 6.77,-9.45 -0.59,-3.29 -1.16,-6.59 -1.77,-9.87 -0.42,-2.27 0.55,-4.14 1.53,-6.34 1.64,2.29 2.16,4.6 2.51,6.96 0.49,3.24 0.91,6.5 1.45,9.74 0.31,1.91 1.05,3.69 2.2,5.25 1.74,2.37 4.87,3.13 7.19,1.77 1.23,-0.72 1.81,-1.58 1.01,-3.08 -2.75,-5.15 -4.41,-10.71 -5.85,-16.33 -0.41,-1.61 0.42,-3.04 0.91,-4.49 0.24,-0.73 0.79,-0.34 1.07,0.09 1.27,1.96 2.59,3.89 3.72,5.93 0.64,1.15 0.17,1.76 -1.23,1.92 1.25,3 2.53,5.96 3.36,9.08 1.14,4.25 1.21,8.29 -1.6,12.13 -1.32,1.81 -1.42,4.21 -0.9,6.42 0.51,2.18 3.26,3.19 5.64,2.13 2.86,-1.27 5.07,-3.41 7.11,-5.68 2.24,-2.5 4.36,-5.1 6.53,-7.65 1.88,-2.2 3.99,-4.14 6.42,-5.73 2.26,-1.48 4.65,-1.98 7.1,-0.48 1.23,0.76 1.74,0.37 2.22,-0.85 0.83,-2.12 0.9,-2.09 2.58,-0.48 2.47,2.38 5.52,3.82 8.63,5.08 9.21,3.73 18.83,5.97 28.6,7.58 8.33,1.37 16.73,2.26 25.15,2.8 3.88,0.25 7.78,0.39 11.67,0.51 7.44,0.24 14.87,0.15 22.29,-0.14 6.93,-0.26 13.85,-0.92 20.76,-1.62 13.24,-1.35 26.34,-3.5 39.36,-6.2 5.57,-1.16 11.11,-2.46 16.61,-3.95 1.31,-0.35 1.92,-0.45 1.7,1.37 -0.51,4.33 2.84,6.6 6.84,4.81 2.6,-1.16 4.36,-3.33 6.35,-5.22 0.5,-0.47 0.92,-1.37 1.71,-1.05 0.8,0.32 0.45,1.27 0.48,1.95 0.03,0.73 0.14,1.43 0.45,2.08 0.86,1.8 2.6,2.17 4.13,0.89 0.93,-0.78 1.58,-1.79 2.22,-2.81 0.61,-0.96 1.27,-1.89 1.93,-2.81 0.28,-0.38 0.62,-0.87 1.14,-0.74 0.68,0.17 0.54,0.86 0.54,1.37 -0,2.34 1.04,4.14 2.83,5.54 1.25,0.99 2.7,1.12 4.03,0.32 1.34,-0.81 1.01,-2.19 0.67,-3.41 -1.06,-3.78 -3.03,-7.16 -4.92,-10.55 -2.33,-4.19 -4.3,-8.55 -6.33,-12.88 -0.87,-1.86 0.24,-3.61 0.54,-5.4 0.09,-0.55 0.66,-0.43 0.99,-0.08 1.86,1.95 3.71,3.91 5.54,5.89 0.34,0.37 0.45,0.95 0.18,1.35 -0.62,0.9 -1.39,-0.27 -2.36,0.14 3.52,5.1 6.98,10.18 8.86,16.09 0,2.87 0,5.75 0,8.62zm-402.15 -31.52c-4.44,-1.18 -8.87,-2.41 -13.33,-3.53 -2.29,-0.57 -4.62,-0.61 -6.93,0.03 -2.83,0.78 -4.08,3.11 -3.43,6.34 0.6,2.93 2.65,4.27 5.6,3.99 6.62,-0.63 12.12,-4.24 18.08,-6.83zm-44 69.59c-2.69,-10.2 -8.39,-19.15 -11.96,-28.99 -2.45,-6.77 -2.58,-13.08 2.46,-18.82 1.35,-1.54 2.84,-2.93 4.48,-4.14 0.96,-0.71 1.52,-1.6 2.02,-2.66 2.84,-5.93 6.49,-11.3 11.17,-15.95 0.63,-0.62 1.41,-1.12 2.18,-1.56 1.41,-0.79 2.74,-0.7 3.91,0.54 1.06,1.12 2.17,2.19 3.37,3.4 -0.19,-5.48 1.94,-9.25 6.15,-11.11 2.54,-1.12 5.15,-1.04 7.74,-0.33 4.97,1.36 9.91,2.85 14.88,4.17 3.01,0.8 6.08,1.38 9.22,1.36 1.3,-0.01 1.7,0.42 0.94,1.58 -0.07,0.1 -0.14,0.2 -0.19,0.31 -1.52,3.26 -3.61,5.56 -7.48,6.39 -3.72,0.81 -7.06,2.95 -10.49,4.67 -4.37,2.19 -8.87,3.95 -13.79,4.4 -0.74,0.07 -1.51,0.02 -1.16,1.19 1.99,6.72 1.06,13.38 -0.53,20 -0.48,2 -0.74,4.02 -0.44,6.05 0.89,5.95 4.97,8.46 11.18,6.91 3.74,-0.94 6.95,-2.92 9.96,-5.23 3.23,-2.48 6.19,-5.29 9.25,-7.98 1.26,-1.1 1.37,-2.15 0.82,-3.61 -1.16,-3.1 -2.77,-5.97 -4.2,-8.93 -0.66,-1.37 0.21,-5.73 1.37,-6.64 0.7,-0.55 0.96,0.14 1.24,0.53 1.12,1.56 2.13,3.19 3.31,4.7 1.98,2.53 5.42,3.14 8.05,1.6 1.15,-0.67 1.63,-1.54 1.65,-2.91 0.09,-4.94 -0.9,-9.75 -1.65,-14.58 -1.48,-9.5 -3.03,-18.98 -4.56,-28.47 -0.11,-0.71 -0.17,-1.47 -0.5,-2.08 -1.06,-2.02 0.07,-3.71 0.69,-5.47 0.25,-0.71 0.78,-0.75 1.16,-0.07 1.76,3.2 3.51,6.4 5.2,9.64 0.3,0.57 0.44,1.47 -0.08,1.86 -0.61,0.45 -0.95,-0.45 -1.4,-0.78 -0.33,-0.24 -0.61,-0.54 -1.26,-1.13 0.3,2.25 0.52,4.09 0.8,5.93 1.39,9.21 2.9,18.4 4.14,27.63 0.43,3.24 0.44,6.57 -0.3,9.82 -0.51,2.21 -1.41,4.26 -3.33,5.58 -1.18,0.81 -1.76,1.88 -2.27,3.11 -1.13,2.73 -1.81,5.57 -2.19,8.48 -0.87,6.69 5.56,11.54 11.89,8.95 4.25,-1.73 7.58,-4.76 10.94,-7.77 6.83,-6.12 13.08,-12.85 20.34,-18.49 1.89,-1.47 3.87,-2.83 5.88,-4.13 1.1,-0.71 1.52,-1.07 0.13,-2.03 -1.72,-1.18 -3.28,-2.61 -4.8,-4.05 -1.67,-1.57 -2.58,-3.6 -2.83,-5.87 -0.54,-5.03 2.49,-8.31 7.74,-8.38 7.95,-0.1 15.77,0.98 23.51,2.69 3.1,0.68 6.15,1.58 9.24,2.32 1.49,0.36 1.51,0.89 0.82,2.21 -1.86,3.57 -4.47,5.85 -8.45,7.09 -4.79,1.49 -9.35,3.73 -14.03,5.57 -1.24,0.49 -1.66,0.98 -1.08,2.36 1.21,2.87 1.75,5.95 2.46,8.98 0.26,1.11 0.06,1.77 -1.26,1.65 -0.54,-0.05 -1.08,0.01 -1.62,-0.04 -4.61,-0.46 -6.45,-2.83 -5.77,-7.38 0.07,-0.43 0.53,-0.97 -0.06,-1.28 -0.4,-0.21 -0.74,0.28 -1.1,0.46 -1.37,0.66 -2.09,1.73 -2.52,3.24 -1.17,4.15 -2.27,8.31 -2.58,12.62 -0.18,2.52 0.2,5.03 1.51,7.27 1.7,2.91 4.53,3.55 7.6,3.37 4.95,-0.3 8.97,-2.84 12.81,-5.66 3.34,-2.46 6.32,-5.32 9.25,-8.25 0.86,-0.86 0.91,-1.65 0.56,-2.74 -1.02,-3.22 -2.71,-6.11 -4.25,-9.09 -0.7,-1.36 -0.01,-5.85 1.07,-6.91 0.82,-0.8 1.03,0.2 1.27,0.58 1.27,1.97 2.63,3.86 4.4,5.42 2.35,2.09 5.78,2.14 8.03,0.12 0.66,-0.59 0.94,-1.2 0.84,-2.18 -1.38,-13.91 -4.08,-27.64 -5.99,-41.47 -0.16,-1.12 -0.29,-2.3 -0.74,-3.32 -0.92,-2.07 -0.1,-3.84 0.63,-5.67 0.39,-0.99 0.86,-1.16 1.39,-0.14 1.62,3.14 3.22,6.29 4.79,9.45 0.18,0.36 0.2,0.81 0.23,1.22 0.02,0.29 0.01,0.62 -0.32,0.77 -0.35,0.15 -0.56,-0.11 -0.76,-0.33 -0.45,-0.47 -0.89,-0.95 -1.69,-1.82 0.56,3.79 1.03,7.09 1.53,10.39 1.24,8.2 2.6,16.39 3.71,24.62 0.51,3.77 0.01,7.52 -1.75,11.01 -1.87,3.72 -3.9,4.95 -8.07,4.56 -1.32,-0.12 -1.68,0.2 -1.68,1.48 0,1.79 -0.14,3.58 -0.31,5.36 -0.19,1.88 -0.87,3.54 -2.21,4.98 -4.36,4.66 -8.92,9.06 -14.79,11.82 -3.3,1.56 -6.74,2.48 -10.43,1.97 -2.13,-0.29 -3.81,-1.34 -5.13,-3.02 -3.1,-3.94 -3.66,-8.46 -3.1,-13.25 0.53,-4.57 1.62,-9.03 2.67,-13.66 -1.81,1.61 -3.68,3.16 -5.42,4.84 -6.75,6.55 -13.42,13.19 -20.55,19.34 -3.37,2.91 -7.1,5.34 -11.5,6.48 -3.98,1.04 -7.13,-0.15 -9.66,-3.4 -3.67,-4.7 -3.35,-9.91 -1.97,-15.22 0.56,-2.13 1.31,-4.23 2.09,-6.29 0.41,-1.09 0.16,-1.32 -0.94,-1.36 -3.29,-0.13 -3.29,-0.18 -3.3,3.09 -0,0.78 0.01,1.56 -0.02,2.33 -0.12,2.58 -0.79,4.8 -2.89,6.66 -5.18,4.57 -10.3,9.17 -16.78,11.9 -2.22,0.94 -4.56,1.6 -6.98,1.44 -4.25,-0.28 -6.87,-2.76 -8.42,-6.56 -1.78,-4.38 -1.27,-8.78 -0.18,-13.21 1.34,-5.41 2.5,-10.84 1.94,-16.47 -0.1,-1.01 -0.25,-2.01 -0.4,-3.01 -0.12,-0.82 -0.53,-1.39 -1.36,-1.73 -2.73,-1.11 -4.86,-3.02 -6.77,-5.21 -1.02,-1.17 -2.14,-2.26 -3.23,-3.37 -1.15,-1.18 -2.25,-1.15 -3.39,0.06 -2.12,2.24 -3.63,4.9 -5.18,7.53 -0.27,0.46 -0.52,0.94 -0.76,1.43 -0.5,1.02 -1.31,2.02 -1.39,3.08 -0.09,1.26 1.51,1.47 2.27,2.26 3.05,3.22 4.16,7.18 4.56,11.44 0.05,0.53 0.01,1.08 0.03,1.61 0.07,2.28 -0.51,2.73 -2.57,1.76 -1.95,-0.91 -3.86,-1.93 -5.72,-3.01 -1.92,-1.11 -3.12,-2.81 -3.43,-5.01 -0.2,-1.44 -0.77,-1.56 -1.88,-0.83 -1.62,1.07 -3.08,2.29 -4.1,3.97 -1.22,2.01 -1.44,4.09 -0.51,6.33 3.25,7.84 7.11,15.44 9.7,23.56 1.21,3.78 1.93,7.63 2.27,11.57 -0.36,0 -0.72,0 -1.08,0z"/>
 </g>
</svg>
