<?xml version="1.0" encoding="UTF-8"?>
<!DOCTYPE svg PUBLIC "-//W3C//DTD SVG 1.1//EN" "http://www.w3.org/Graphics/SVG/1.1/DTD/svg11.dtd">
<!-- Creator: CorelDRAW -->
<svg xmlns="http://www.w3.org/2000/svg" xml:space="preserve" width="2.1045in" height="1.24798in" version="1.1" style="shape-rendering:geometricPrecision; text-rendering:geometricPrecision; image-rendering:optimizeQuality; fill-rule:evenodd; clip-rule:evenodd"
viewBox="0 0 43.87 26.01"
 xmlns:xlink="http://www.w3.org/1999/xlink"
 xmlns:xodm="http://www.corel.com/coreldraw/odm/2003">
 <defs>
  <style type="text/css">
   <![CDATA[
    .fil0 {fill:#774A3B}
   ]]>
  </style>
 </defs>
 <g id="Layer_x0020_1">
  <metadata id="CorelCorpID_0Corel-Layer"/>
  <path class="fil0" d="M5.15 0.71c-0.61,0.17 -1.09,0.47 -1.59,0.86 -0.99,0.76 -2.32,0.97 -3.56,1.1l0 23.06c2.17,0.12 4.34,0.16 6.51,0.12 2.03,-0.03 4.04,-0.22 6.07,-0.21 3.79,0.01 7.58,-0.11 11.35,0.25 2.95,0.29 5.75,0.02 8.68,-0.35 2.04,-0.26 4.06,-0.52 6.1,-0.73 1.19,-0.12 2.39,-0.21 3.57,-0.4 0.54,-0.08 1.04,-0.17 1.59,-0.14 -1.21,-0.01 -2.44,-0.03 -3.64,-0.22 -0.27,-0.04 -0.56,-0.11 -0.81,-0.22 -0.2,-0.08 -0.21,-0.14 -0.36,-0.28 -0.25,-0.24 -0.61,-0.27 -0.91,-0.42 -0.26,-0.13 -0.65,-0.38 -0.87,-0.57 -0.11,-0.09 -0.1,-0.22 -0.23,-0.32 -0.1,-0.08 -0.26,-0.1 -0.38,-0.16 -0.25,-0.12 -0.31,-0.34 -0.52,-0.5 -0.39,-0.32 -1.08,-0.25 -1.56,-0.25 -0.86,-0 -1.59,-0.18 -2.43,-0.33 -0.42,-0.08 -0.83,-0 -1.24,-0.07 -0.31,-0.05 -0.6,-0.25 -0.89,-0.38 -0.44,-0.19 -0.89,-0.33 -1.32,-0.52 -0.64,-0.28 -1.11,-0.6 -1.59,-1.12 -0.55,-0.59 -1.14,-1.08 -1.98,-1.11 -0.26,-0.01 -0.54,0.04 -0.8,-0.02 -0.15,-0.03 -0.27,-0.1 -0.4,-0.16 -0.25,-0.11 -0.5,-0.15 -0.65,-0.4 -0.13,-0.22 -0.06,-0.55 -0.26,-0.74 -0.16,-0.15 -0.31,-0.04 -0.47,-0.14 -0.32,-0.2 -0.1,-1.28 -0.12,-1.62 -0.01,-0.16 -0.11,-1.79 -0.27,-1.78 -0.1,0.01 -0.25,0.31 -0.27,0.4 -0.02,0.11 0.02,0.22 -0,0.33 -0.02,0.12 -0.1,0.21 -0.13,0.33 -0.05,0.23 -0.01,0.46 -0.12,0.7 -0.15,0.34 -0.37,0.77 -0.59,1.06 -0.21,0.27 -0.31,0.36 -0.6,0.22 -0.17,-0.08 -0.82,-0.33 -0.83,-0.54 -0.01,-0.09 0.14,-0.11 0.17,-0.18 0.03,-0.08 -0,-0.1 0.01,-0.18 0.06,-0.33 -0.1,-1.02 -0.21,-1.33 -0.1,-0.26 -0.32,-0.45 -0.41,-0.7 -0.1,-0.3 -0.06,-0.66 -0.15,-0.98 -0.11,0.51 -0.17,1.02 -0.22,1.53 -0.03,0.29 -0.03,0.96 -0.34,1.16 -0.05,-0.05 -0.07,-0.11 -0.08,-0.17 -0.02,-0.1 -0,-0.21 -0.04,-0.32 -0.05,-0.15 -0.17,-0.17 -0.24,-0.26 -0.1,-0.12 -0.1,-0.03 -0.13,-0.26 -0.01,-0.12 -0,-0.27 0,-0.39 0.02,-1.01 -1.12,-0.59 -1.44,-1.28 0.18,-0.05 0.65,0.08 0.78,-0.05 0.11,-0.12 -0.1,-0.38 -0.13,-0.5 -0.04,-0.2 0.08,-0.28 0.11,-0.42 0.03,-0.15 0.03,-0.28 0.03,-0.43 -0.01,-0.75 0.28,-1.42 -0.14,-2.12 0.09,0.51 -0.32,0.79 -0.39,1.27 -0.07,0.45 0.14,0.99 -0.09,1.43 -0.12,0.23 -0.35,0.38 -0.48,0.61 -0.17,0.3 -0.31,0.99 -0.58,1.19 -0.09,-0.25 0.07,-0.61 -0.05,-0.85 -0.04,-0.08 -0.16,-0.11 -0.21,-0.18 -0.07,-0.1 -0.09,-0.31 -0.14,-0.43 -0.11,-0.29 -0.3,-0.53 -0.38,-0.84 -0.06,-0.22 -0.06,-0.43 -0.16,-0.64 -0.08,-0.17 -0.2,-0.32 -0.26,-0.5 -0.43,0.35 -0.41,1.14 -0.67,1.62 0.02,-0.26 0.06,-0.63 -0.02,-0.88 -0.14,-0.43 -0.4,-0.12 -0.68,-0.33 -0.36,-0.27 -0.34,-1.11 -0.34,-1.5 0.01,-0.5 -0.02,-1.01 0.01,-1.52 -0.18,0.11 -0.09,0.28 -0.16,0.44 -0.09,0.21 -0.27,0.36 -0.37,0.58 -0.24,0.53 -0.54,1.02 -0.79,1.54 -0.14,0.3 -0.1,0.9 -0.58,0.79 -0.32,-0.07 -0.3,-0.33 -0.35,-0.62 -0.22,0.24 -0.36,0.62 -0.37,0.93 -0.01,0.35 0.15,0.69 -0.25,0.83 -0.38,0.13 -0.39,-0.05 -0.39,-0.36 -0,-0.32 -0.15,-0.51 -0.3,-0.79 -0.14,-0.27 -0.33,-0.46 -0.37,-0.79 -0.04,-0.33 0,-0.7 0.01,-1.03 0,-0.62 -0.12,-1.21 -0.14,-1.83 -0.01,-0.46 0.13,-1.11 -0.02,-1.55 -0.39,-0.06 -0.83,2.43 -0.87,2.7 -0.08,0.56 -0.02,1.1 -0.32,1.61 -0.1,0.17 -0.24,0.42 -0.37,0.13 -0.1,-0.23 0.06,-0.47 -0.11,-0.73 -0.15,-0.21 -0.44,-0.25 -0.59,-0.45 -0.4,-0.55 0.44,-0.47 0.7,-0.55 -0.05,-0.2 -0.3,-0.44 -0.35,-0.65 -0.04,-0.16 -0,-0.31 -0.06,-0.46 -0.03,-0.09 -0.17,-0.19 -0.21,-0.31 -0.18,-0.51 -0.03,-1.48 0.07,-1.97 0.11,-0.55 0.14,-1.07 0.17,-1.63 0.02,0.37 -0.2,0.77 -0.34,1.1 -0.21,0.5 -0.49,0.89 -0.77,1.35 -0.18,0.3 -0.13,0.54 -0.21,0.85 -0.05,0.18 -0.17,0.34 -0.25,0.51 -0.25,0.47 0.07,0.83 0.01,1.37 -0.04,0.38 -0.34,0.27 -0.67,0.29 -0.7,0.04 -1.09,-0.39 -1.71,-0.74 -0.39,-0.22 -0.83,-0.36 -1.23,-0.58 -0.04,-0.02 -0.07,-0.04 -0.11,-0.06 0.22,-0.14 0.44,-0.23 0.75,-0.31 0.61,-0.16 1.41,-0.38 1.88,-0.79 0.4,-0.34 0.45,-0.81 0.61,-1.29 0.19,-0.59 0.35,-1.29 0.58,-1.85 0.19,-0.47 0.4,-0.64 0.8,-1.11l0.2 -1.57c-0.33,0.53 -0.63,0.56 -1.2,0.71z"/>
 </g>
</svg>
