<?xml version="1.0" encoding="UTF-8"?>
<!DOCTYPE svg PUBLIC "-//W3C//DTD SVG 1.1//EN" "http://www.w3.org/Graphics/SVG/1.1/DTD/svg11.dtd">
<!-- Creator: CorelDRAW -->
<svg xmlns="http://www.w3.org/2000/svg" xml:space="preserve" width="2.55471in" height="2.38201in" version="1.1" style="shape-rendering:geometricPrecision; text-rendering:geometricPrecision; image-rendering:optimizeQuality; fill-rule:evenodd; clip-rule:evenodd"
viewBox="0 0 64.66 60.29"
 xmlns:xlink="http://www.w3.org/1999/xlink"
 xmlns:xodm="http://www.corel.com/coreldraw/odm/2003">
 <defs>
  <style type="text/css">
   <![CDATA[
    .fil0 {fill:#9D7865}
    .fil1 {fill:#89604E;fill-opacity:0.501961}
   ]]>
  </style>
 </defs>
 <g id="Layer_x0020_1">
  <metadata id="CorelCorpID_0Corel-Layer"/>
  <path class="fil0" d="M11.8 39.38c-0.14,0.25 -0.25,0.52 -0.38,0.78 -0.15,0.31 -0.36,0.5 -0.59,0.75 -0.17,0.19 -0.53,0.57 -0.53,0.85 0.8,0.18 1.57,-0.52 2.36,-0.29 -0.03,0.24 -0.51,0.42 -0.69,0.52 -0.31,0.18 -0.65,0.27 -0.97,0.4 -0.25,-0.15 -0.49,-0.31 -0.72,-0.48 -0.37,-0.28 -0.78,-0.48 -1.15,-0.77 -0.2,-0.16 -0.39,-0.27 -0.61,-0.39 -0.17,-0.1 -0.3,-0.23 -0.44,-0.36 -0.16,-0.14 -0.35,-0.23 -0.5,-0.37 0.25,0.15 0.58,0.2 0.86,0.22 0.35,0.03 0.78,0.06 1.12,-0 0.04,-0.15 -0.6,-0.37 -0.7,-0.44 -0.49,-0.32 -0.95,-0.68 -1.45,-0.99 -0.52,-0.33 -1.07,-0.6 -1.59,-0.95 -0.13,-0.09 -0.4,-0.02 -0.36,-0.23 -0.03,0.12 -0.03,0.24 0.02,0.35 0.32,0.09 0.64,0.07 0.87,-0.15 0.61,0.69 1.36,1.4 2.22,1.7 0.67,0.23 1.76,0.48 2.39,-0.02 0.14,-0.11 0.2,-0.34 0.33,-0.47 0.17,0.11 0.34,0.22 0.49,0.32zm-0.36 -4.55c-0.42,0.36 -0.74,0.87 -1.23,1.12 0.2,-0.04 0.42,0.03 0.62,-0.02 0.29,-0.07 0.44,-0.27 0.77,-0.31 0.26,-0.03 0.47,-0.03 0.73,-0.09 0.24,-0.06 1,-0.37 0.72,0.16 -0.16,0.31 -0.54,0.55 -0.87,0.61 -0.28,0.05 -0.56,0.06 -0.83,0.15 -1.2,-0.38 -2.4,-0.78 -3.53,-1.3 -1.04,-0.48 -1.86,-1.02 -2.39,-2.06 0.33,1.17 2.44,1.14 3.39,1.11 0.88,-0.03 1.75,0.6 2.61,0.63zm0.95 -0.98c-0.15,0.19 -0.24,0.37 -0.39,0.54 -0.09,-0.47 -0.5,-0.87 -0.94,-0.99 0.31,0.3 0.73,0.43 1.15,0.45 0.03,0 0.09,0 0.18,-0zm-0.86 -6.72c-0.15,0.08 -0.28,0.19 -0.25,0.32 0.24,0.07 0.53,0.01 0.75,-0.08 0.02,-0.01 0.04,-0.02 0.06,-0.03 0.1,0 0.19,-0.02 0.28,-0.08 0.09,-0.06 0.15,-0.13 0.19,-0.2 0.16,-0.09 0.31,-0.15 0.44,-0.12 0,0.1 0.01,0.2 0.02,0.3 0.64,0.17 1.31,-0.24 1.81,-0.6 0.07,0.23 -0.03,0.69 -0.14,0.89 -0.11,0.19 -0.31,0.33 -0.46,0.5 -0.5,0.58 -0.74,1.33 -1.31,1.85 -0.18,0.17 -0.34,0.25 -0.56,0.37 -0.24,0.13 -0.4,0.37 -0.54,0.57 -0.2,0.28 -0.06,0.34 0.24,0.33 0.32,-0.01 0.4,-0.04 0.65,-0.22 0.18,-0.13 0.39,-0.22 0.53,-0.4 -0.01,0.13 -0.03,0.26 -0,0.38 0.36,0.09 1.15,0.03 1.41,-0.27 -0.02,0.14 -0.09,0.7 0.01,0.81 0.22,0.25 0.66,-0.28 0.83,-0.36 -0.15,0.39 -0.53,0.67 -0.79,0.99 -0.32,0.39 -0.58,0.64 -1,0.92 -0.03,0.02 -0.07,0.04 -0.11,0.07 -0.32,-0.29 -0.99,-0.48 -1.23,-0.55 -1.39,-0.41 -2.82,-0.81 -4.19,-1.29 -0.61,-0.22 -1.14,-0.53 -1.7,-0.84 -0.21,-0.12 -0.88,-0.31 -1,-0.58 0.34,-0.09 1.16,0.17 1.36,-0.21 0.1,-0.18 0,-0.54 -0.01,-0.74 0.1,0.55 0.55,1.08 1.09,1.25 0.44,0.14 1.82,0.07 2.01,-0.5 -0.39,-0.01 -0.66,-0.26 -1,-0.41 -0.43,-0.2 -0.88,-0.35 -1.31,-0.56 -0.94,-0.47 -2.12,-1.51 -1.7,-2.7 0.37,0.09 0.72,0.5 1.05,0.72 0.51,0.33 1.02,0.68 1.62,0.8 0.43,0.09 1.72,0.26 2.07,-0.19 0.27,-0.34 -0.12,-0.77 -0.18,-1.09 0.24,0.19 0.65,0.66 1.07,0.94zm1.45 -0.99c-0.15,0.1 -0.3,0.2 -0.45,0.31 -0.07,-0.19 -0.19,-0.36 -0.3,-0.47 0.24,0.06 0.49,0.12 0.75,0.16zm7.13 15.75l-0.06 -0.05c-0.37,-0.29 -0.74,-0.6 -1.14,-0.86 -0.09,-0.06 -0.43,-0.2 -0.26,-0.37 0.19,-0.19 0.81,0.14 1,0.18 0.22,0.05 0.46,0.12 0.68,0.14 -0.11,-0.11 -0.19,-0.41 -0.25,-0.57 -0.09,-0.22 -0.15,-0.41 -0.35,-0.56 -0.14,-0.1 -0.29,-0.15 -0.44,-0.24 -0.59,-0.34 -1.14,-0.85 -1.69,-1.25 -0.21,-0.15 -0.39,-0.33 -0.55,-0.53 -0.11,-0.13 -0.68,-0.94 -0.48,-1 0.25,-0.08 0.33,0.07 0.52,0.18 0.36,0.21 0.81,0.29 1.19,0.46 0.28,0.13 0.51,0.37 0.82,0.43 0.22,0.05 0.49,0 0.72,0 0.21,0 0.42,0.02 0.62,-0.02 0.04,-0.01 0.06,-0.1 0.13,-0.1 0.09,0 0.17,0.13 0.23,0.17 0.17,0.11 0.42,0.27 0.68,0.42 -0.15,0.13 -0.31,0.24 -0.46,0.37 0.4,0.24 0.76,0.13 1.03,-0.11 0.25,0.08 0.48,0.1 0.68,0.02 0.01,-0.23 -0.24,-0.24 -0.37,-0.37 -0.01,-0.01 -0.01,-0.02 -0.02,-0.02l0 -0c0.32,0.21 0.29,-0.08 0.6,-0.17 0.21,0.2 0,0.65 -0.08,0.84 -0.1,0.23 -0.13,0.47 -0.25,0.69 -0.11,0.21 -0.28,0.39 -0.41,0.59 -0.18,0.28 -0.33,0.61 -0.55,0.86 -0.19,0.22 -0.45,0.3 -0.71,0.41 -0.28,0.13 -0.52,0.32 -0.81,0.44l-0.05 0.02zm1.68 1.51c-0.3,-0.28 -0.59,-0.56 -0.89,-0.83 0.16,-0.04 0.26,-0.14 0.38,-0.24 0.1,-0.09 0.21,-0.17 0.32,-0.24 0.18,-0.11 0.43,-0.26 0.64,-0.27 0.19,-0.01 0.22,0.04 0.19,0.22 -0.06,0.32 -0.25,0.76 -0.4,1.06 -0.06,0.11 -0.16,0.21 -0.24,0.31zm-0 2.77c-0.38,-0 -0.78,-0.01 -1.19,-0.02 -0.28,-0.01 -0.58,-0.04 -0.88,-0.1 -0.14,-0.1 -0.29,-0.18 -0.41,-0.31 -0.19,-0.2 -0.31,-0.38 -0.57,-0.5 -0.33,-0.16 -0.51,-0.44 -0.78,-0.68 -0.13,-0.11 -0.31,-0.33 -0.46,-0.39 0.37,0.04 0.65,0.12 1.05,0.12 0.1,0 0.22,0.02 0.33,0 0.12,-0.02 0.15,-0.07 0.24,-0.09 0.16,-0.04 0.35,-0.04 0.52,-0.03 0.38,0.02 0.85,0.1 1.26,0.23 -0.22,0.21 -0.43,0.46 -0.3,0.59 0.07,0.07 0.48,0.02 0.58,0.02 0.19,-0.01 0.33,-0.06 0.49,-0.16 0.04,-0.02 0.07,-0.04 0.1,-0.07 0.06,0.03 0.12,0.06 0.19,0.09 -0.03,0.17 -0.15,0.37 -0.18,0.5 0.19,0.06 0.44,-0.09 0.36,0.21 -0.05,0.18 -0.22,0.4 -0.34,0.57zm20.5 5.22l-0.01 -0 0.01 -0.02 -0 0.02zm16.49 4.77c-2.81,-0.62 -5.33,-1.79 -8.09,-2.45 -0.18,-0.04 -0.35,-0.09 -0.53,-0.13l3.75 0c-0.05,-0.02 -0.1,-0.05 -0.15,-0.07 0.04,-0.07 0.09,-0.15 0.13,-0.22 0.11,-0.16 0.51,-0.51 0.44,-0.73 -0.06,-0.2 -0.96,0.1 -1.15,0.11 -0.16,0.01 -0.32,-0.02 -0.49,-0.01 -0.05,-0.02 -0.1,-0.04 -0.15,-0.06 -0.37,-0.12 -0.53,0.12 -0.86,0.23l-0.01 0c0.1,-0.45 1.07,-0.94 1.32,-1.1 0.31,-0.19 0.62,-0.4 0.94,-0.58 -0.26,0.07 -0.55,0.1 -0.76,0.15 -0.38,0.08 -0.76,0.16 -1.14,0.26 -0.42,0.11 -0.75,0.22 -1.08,0.51 -0.26,0.22 -0.52,0.72 -0.86,0.8 -0.04,-0.16 0.03,-0.33 -0.02,-0.49 -0.2,-0.03 -0.48,0.3 -0.64,0.4 0.16,-0.18 0.19,-0.44 0.3,-0.65 0.16,-0.29 0.46,-0.45 0.62,-0.73 -0.34,0.06 -0.54,0.37 -0.91,0.39 -0.18,0.01 -0.51,-0.08 -0.68,-0 -0.15,0.06 -0.18,0.22 -0.24,0.37l-0.11 0.29c-0.07,0.08 -0.2,0.16 -0.28,0.24 -0.09,0.09 -0.14,0.19 -0.24,0.23l-0.15 -0.05c-0.17,-0.81 0.25,-1.66 0.57,-2.36 0.13,-0.3 0.21,-0.61 0.38,-0.89 0.19,-0.3 0.41,-0.51 0.67,-0.74 0.17,-0.16 0.46,-0.52 0.75,-0.61 -0.59,0.08 -1.12,0.53 -1.49,0.98 -0.22,0.26 -0.48,0.46 -0.68,0.74 -0.25,0.35 -0.42,0.74 -0.61,1.13 -0.18,0.39 -0.43,0.76 -0.59,1.17 -0.02,0.06 -0.04,0.17 -0.06,0.26l-0.12 -0.04c-0.01,-0.19 0.04,-0.39 0.01,-0.58 -0.04,-0.29 -0.14,-0.18 -0.35,-0.24 -0.48,-0.15 -0.14,-0.81 -0.26,-1.15 -0.28,0.19 -0.36,0.81 -0.42,1.11 -0.04,0.18 -0.05,0.36 -0.05,0.54l0 0c-0.03,-0.32 -0.18,-0.65 -0.2,-0.96 -0.02,-0.34 -0.1,-0.67 -0.09,-1.01 0,-0.39 -0.02,-0.78 -0,-1.17 0.01,-0.23 0.29,-0.66 0.18,-0.88 -0.27,-0 -0.35,0.6 -0.45,0.78 -0.09,0.17 -0.2,0.26 -0.23,0.46 -0.02,0.16 0.01,0.34 0.01,0.5 -0,0.5 0.14,0.9 0.3,1.38 0.09,0.26 0.1,0.51 0.1,0.77 -0.22,-0.06 -0.44,-0.12 -0.67,-0.18 0.08,-0.05 0.16,-0.1 0.25,-0.14 -0.18,0.03 -0.36,0.04 -0.54,0.07 -0.1,-0.03 -0.21,-0.05 -0.31,-0.08 -0.14,-0.03 -0.28,-0.07 -0.42,-0.1 -0.05,-0.02 -0.1,-0.04 -0.15,-0.03 -0.2,-0.04 -0.4,-0.09 -0.6,-0.13 -0,-0.23 -0.01,-0.45 -0.01,-0.68 0.14,-0.14 0.29,-0.26 0.43,-0.41 0.21,-0.21 0.77,-0.95 1.12,-0.91 -0.32,-0.03 -0.61,0.14 -0.85,0.32 -0.25,0.19 -0.52,0.4 -0.7,0.66 -0,-0.32 0,-0.64 0.02,-0.95 -0.1,0.2 -0.06,0.37 -0.1,0.57 -0.04,0.18 -0.15,0.37 -0.18,0.56 -0.02,0.11 -0.04,0.23 -0.06,0.34 -0.07,0.13 -0.15,0.26 -0.22,0.39 -0.97,-0.19 -1.94,-0.36 -2.9,-0.57 -0.03,-0.03 -0.05,-0.06 -0.08,-0.09 0.02,0.03 0.04,0.06 0.06,0.09 -0.72,-0.15 -1.43,-0.33 -2.13,-0.53 -1.66,-0.5 -3.33,-0.99 -4.99,-1.48 -0.07,-0.06 -0.14,-0.11 -0.19,-0.17 -0.09,-0.11 -0.22,-0.26 -0.28,-0.39 -0.04,-0.08 -0.14,-0.26 -0.15,-0.34 -0.05,-0.32 0.23,-0.17 0.41,-0.1 0.49,0.17 1.22,0.41 1.74,0.28 0.01,-0.24 -0.64,-0.38 -0.81,-0.48 -0.17,-0.1 -0.3,-0.26 -0.47,-0.36 -0.11,-0.07 -0.21,-0.08 -0.27,-0.21 -0.08,-0.16 -0.18,-0.42 -0.22,-0.59 -0.03,-0.14 -0.04,-0.24 -0.1,-0.37 -0.06,-0.15 -0.15,-0.23 -0.09,-0.4 0.27,-0.07 0.61,0.08 0.87,-0.03 0.06,-0.3 -0.6,-0.48 -0.68,-0.72 -0.02,-0.06 -0.03,-0.3 -0.01,-0.35 0.06,-0.13 0.07,-0.05 0.2,-0.09 0.1,-0.03 0.18,0.06 0.21,-0.09 0.03,-0.17 -0.2,-0.22 -0.29,-0.3 -0.16,-0.14 -0.18,-0.18 -0.22,-0.37 -0.05,-0.23 -0.14,-0.3 -0.29,-0.51l0.2 -0.49c-0.36,0.4 -0.49,1.02 -0.84,1.46 -0.15,0.19 -0.38,0.3 -0.54,0.5 -0.1,0.12 -0.13,0.3 -0.26,0.4 0.21,-0.02 0.4,-0 0.6,-0.06 0.15,-0.04 0.38,-0.26 0.52,-0.24 0.09,0.21 -0.07,0.5 -0.21,0.65 -0.18,0.21 -0.46,0.29 -0.62,0.51 -0.21,0.29 -0.19,0.69 -0.44,0.95 -0.13,0.14 -0.29,0.25 -0.43,0.38 -0.12,0.11 -0.46,0.25 -0.44,0.43 0.42,0.12 0.96,-0.42 1.35,-0.54 0.05,0.14 -0.09,0.21 -0.08,0.34 0.27,0.07 0.45,0.01 0.67,-0.14 -0.17,0.3 -0.35,0.68 -0.61,0.94 -1.05,-0.31 -2.1,-0.63 -3.14,-0.95 -0.09,-0.08 -0.18,-0.15 -0.28,-0.21 -0.39,-0.26 -0.76,-0.57 -1.15,-0.83 -0.11,-0.08 -0.2,-0.1 -0.34,-0.13 -0.27,-0.07 -0.45,-0.2 -0.6,-0.43 -0.15,-0.23 -0.34,-0.48 -0.41,-0.76 0.18,-0.11 0.4,0.18 0.61,0.17 0.14,-0.01 0.08,-0.05 0.15,-0.1 -0.01,-0.06 0.01,-0.09 0.05,-0.09 0.04,-0.02 0.09,-0.02 0.13,-0.01 0.24,-0.04 0.52,0.06 0.75,0.01 0.26,-0.06 0.11,-0.18 -0.05,-0.29 -0.21,-0.14 -0.42,-0.26 -0.53,-0.5 -0.09,-0.19 -0.08,-0.39 -0.14,-0.59 -0.12,-0.37 -0.37,-0.58 -0.47,-0.97 0.13,0.12 0.31,0.21 0.49,0.28 0.21,0.09 0.43,0.16 0.61,0.23 0.14,0.06 0.25,0.1 0.41,0.11 0.04,0 0.61,-0.08 0.57,-0.12 0.26,0.32 0.79,0.37 1.14,0.43 0.32,0.06 0.76,0.13 1.07,0.03 -0.14,-0.08 -0.26,-0.19 -0.39,-0.28 -0.14,-0.09 -0.26,-0.12 -0.41,-0.19 -0.33,-0.16 -0.63,-0.35 -0.96,-0.5 -0.55,-0.25 -1.1,-0.47 -1.62,-0.79 -0.58,-0.35 -1.15,-0.71 -1.53,-1.29 -0.33,-0.51 -0.44,-1.08 -0.54,-1.65 0.14,0.12 0.45,0.38 0.63,0.27 0.15,-0.09 0.03,-0.3 0.04,-0.47 0.47,0.2 1.09,0.6 1.58,0.45 -0.23,-0.31 -0.55,-0.61 -0.84,-0.86 -0.29,-0.24 -0.53,-0.52 -0.81,-0.77 -0.31,-0.28 -0.71,-0.65 -0.65,-1.09 0.04,-0.3 0.21,-0 0.37,-0.16 0.14,-0.14 -0.19,-0.43 -0.15,-0.59 0.07,-0.28 0.43,0.09 0.58,0.18 0.36,0.21 0.78,0.27 1.14,0.41 -0.1,-0.32 -0.5,-0.43 -0.66,-0.7 -0.15,-0.24 -0.14,-0.51 -0.42,-0.65 -0.19,-0.1 -0.66,-0.15 -0.73,-0.41 -0.07,-0.28 0.4,0.02 0.48,0.13 -0.06,-0.1 -0.13,-0.23 -0.21,-0.31 -0.08,-0.08 -0.17,-0.12 -0.25,-0.2 -0.21,-0.2 -0.14,-0.51 -0.14,-0.78 -0,-0.75 -0.07,-1.53 0.01,-2.28 -0.24,0.53 -0.64,0.99 -0.83,1.55 -0.15,0.44 -0.19,1.16 -0.71,1.38 0.2,-0.01 0.37,-0.17 0.56,-0.19 0.31,-0.03 0.26,0.25 0.11,0.44 -0.14,0.17 -0.34,0.24 -0.49,0.39 -0.08,0.08 -0.1,0.16 -0.15,0.25 -0.07,0.16 -0.07,0.25 -0.23,0.38 -0.18,0.15 -0.44,0.19 -0.63,0.32 -0.09,0.06 -0.44,0.26 -0.43,0.4 0.01,0.26 0.51,0.19 0.61,0.14 0.3,-0.15 0.62,-0.92 1,-0.83 0.03,0.09 0.03,0.19 0.05,0.28 0.23,0.06 0.53,0.04 0.67,-0.15 0.01,0.14 -0.06,0.25 -0.09,0.38 -0.05,0.18 -0.05,0.41 -0.13,0.58 -0.15,0.3 -0.47,0.49 -0.64,0.79 -0.09,0.16 -0.19,0.32 -0.29,0.48 -0.28,-0.43 -0.65,-0.76 -1.1,-1.02 -0.52,-0.3 -0.94,-0.71 -1.44,-1.02 -0.32,-0.2 -0.68,-0.31 -1.01,-0.5 -0.31,-0.17 -1.1,-0.6 -1.08,-1.02 0.43,0.43 1.06,0.24 1.6,0.34 0.34,0.07 0.69,0.13 1.03,0.19 0.12,0.02 0.3,0.1 0.42,0.08 0.26,-0.03 0.23,-0.18 0.13,-0.42 -0.14,-0.33 -0.51,-0.33 -0.77,-0.55 -0.33,-0.27 -0.54,-0.56 -0.91,-0.79 -0.47,-0.3 -0.98,-0.54 -1.43,-0.85 -0.14,-0.1 -0.38,-0.15 -0.47,-0.32 -0.09,-0.17 -0.12,-0.99 -0.14,-0.99 0.67,0.15 1.37,0.45 2.09,0.3 0.12,-0.02 0.12,-0.12 0.28,-0.11 0.06,0.01 0.1,0.04 0.12,0.09 0.1,0.03 0.2,0.05 0.3,0.05 0.44,0.09 0.82,0.18 1.27,0.2 -0.26,-0.18 -0.48,-0.46 -0.71,-0.68 -0.2,-0.18 -0.44,-0.35 -0.6,-0.58 -0.12,-0.17 -0.2,-0.36 -0.33,-0.53 -0.17,-0.22 -0.23,-0.44 -0.37,-0.66 -0.16,-0.24 -0.34,-0.47 -0.5,-0.72 -0.18,-0.28 -0.31,-0.56 -0.43,-0.86 -0.09,-0.21 -0.29,-0.34 -0.36,-0.51 0.24,-0.14 0.79,0.18 1.02,0.26 0.35,0.11 0.74,0.03 1.11,0.06 -0.14,-0.03 -0.46,-0.13 -0.4,-0.32 0.1,-0.06 0.34,0.09 0.48,0.1 0.22,0.01 0.47,0.03 0.67,-0.02 -0.13,-0.33 -0.33,-0.53 -0.61,-0.74 -0.21,-0.16 -0.34,-0.37 -0.54,-0.52 -0.19,-0.15 -0.37,-0.28 -0.54,-0.46 -0.14,-0.14 -0.27,-0.29 -0.39,-0.43 -0.12,-0.15 -0.16,-0.25 -0.2,-0.43 -0.06,-0.26 -0.19,-0.53 -0.35,-0.76 -0.15,-0.22 -0.29,-0.44 -0.49,-0.62 -0.12,-0.11 -0.26,-0.18 -0.31,-0.35 -0.05,-0.19 0.01,-0.29 0.17,-0.33 0.66,-0.16 1.46,0.2 2.11,-0.02 -0.02,-0.14 -0.25,-0.27 -0.34,-0.39 -0.13,-0.17 -0.25,-0.25 -0.41,-0.38 -0.17,-0.14 -0.74,-0.71 -0.63,-0.94 0.18,0.03 0.9,0.27 0.98,-0 0.04,-0.14 -0.25,-0.45 -0.32,-0.56 -0.1,-0.17 -0.22,-0.27 -0.35,-0.42 -0.42,-0.47 -0.63,-1.01 -0.87,-1.58 -0.12,-0.28 -0.31,-0.92 -0.76,-0.59 -0.15,0.11 -0.07,0.19 -0.1,0.32 -0.04,0.16 -0.14,0.29 -0.21,0.44 -0.3,0.61 -0.73,1.09 -1.24,1.52 -0.1,0.08 -0.2,0.16 -0.29,0.25 -0.1,0.11 -0.15,0.3 -0.24,0.39 -0.21,0.22 -0.48,0.4 -0.74,0.56 -0.14,0.08 -0.6,0.35 -0.63,0.54 -0.04,0.25 0.37,0.2 0.53,0.19 0.27,-0.02 0.52,-0.16 0.77,-0.27 0.19,-0.08 0.42,-0.15 0.59,-0.27 0.1,-0.08 0.09,-0.21 0.25,-0.21 0.06,0.41 0.32,0.98 -0.05,1.32 -0.1,0.09 -0.15,0.04 -0.25,0.08 -0.23,0.09 -0.11,-0.01 -0.24,0.19 -0.1,0.15 -0.4,0.4 -0.4,0.55 0.34,0.09 0.63,-0.09 0.96,-0.08 0.1,0.45 -0.25,0.81 -0.43,1.18 -0.23,0.47 -0.62,0.91 -1,1.29 -0.07,0.07 -0.17,0.09 -0.26,0.14 -0.12,-0.01 -0.25,-0.02 -0.39,-0.02 -0.85,-0.03 -1.69,-0.32 -2.54,-0.39 -1.33,-0.11 -2.69,-0.62 -3.96,-1.05 -0.6,-0.2 -1.09,-0.39 -1.53,-0.87 -0.2,-0.21 -0.62,-0.64 -0.55,-0.96 0.28,0.04 0.45,0.57 0.65,0.77 0.45,0.44 1.05,0.68 1.65,0.74 0.57,0.06 1.89,-0.07 1.71,-0.88 0.56,0.35 1.46,0.74 2.14,0.55 0.69,-0.2 0.14,-0.51 0.21,-0.92 0.58,0.24 0.99,0.46 1.66,0.29 0.2,-1.2 -0.94,-1.05 -1.77,-1.41 -0.91,-0.39 -1.94,-0.28 -2.84,-0.66 -0.52,-0.22 -0.85,-0.64 -1.32,-0.91 0.22,0.52 1.13,0.32 1.56,0.32 0.16,-0 1.83,0.21 1.68,-0.34 -0.56,-0.07 -1.17,-0.4 -1.71,-0.56 -0.61,-0.19 -1.12,-0.24 -1.63,-0.62 -0.5,-0.38 -2.25,-1.67 -1.99,-2.44 0.82,0.52 1.44,1.71 2.64,1.26 0.02,-0.18 0.03,-0.35 0.04,-0.53 0.47,-0.07 1.05,0.45 1.52,0.53 0.42,0.07 0.89,0.06 1.3,-0.01 0.05,-0.1 0.12,-0.15 0.23,-0.17 0.1,0.01 0.18,0.06 0.22,0.15 0.33,0.12 0.6,0.36 0.92,0.5 0.49,0.21 1.48,0.36 1.02,-0.45 -0.25,-0.43 -1.02,-1.01 -1.53,-0.96 0.31,0.01 1.03,0.15 1.3,0.02 0.27,-0.13 0.26,-0.57 0.07,-0.79 -0.19,-0.22 -0.6,-0.33 -0.85,-0.38 -0.41,-0.08 -0.83,-0.19 -1.25,-0.29 -0.94,-0.23 -1.95,-0.46 -2.82,-0.9 -0.7,-0.36 -1.23,-0.99 -1.81,-1.51 0.41,0.24 1.85,0.87 1.67,-0.08 -0.06,-0.33 -0.48,-1.12 -0.89,-1.06 0.16,0.24 0.31,0.2 0.58,0.21 0.14,0.01 0.94,0.1 1.08,0.01 0.64,-0.42 -0.46,-0.71 -0.82,-0.79 -0.53,-0.11 -1.01,-0.14 -1.48,-0.37 -0.27,-0.13 -1.13,-0.76 -0.94,-1.13 0.6,0.01 0.9,0.68 1.51,0.74 0.74,0.08 0.46,-0.2 0.61,-0.75 0.54,0.04 1.1,0.48 1.55,0.75 0.39,0.25 1.2,0.68 1.66,0.55 0.04,-0.3 -0.27,-0.59 -0.49,-0.75 0.51,-0.06 0.94,0.33 1.47,0.21 0.62,-0.14 0.36,-0.82 0.01,-1.12 -0.42,-0.36 -1.22,-0.31 -1.73,-0.47 -0.41,-0.13 -0.83,-0.3 -1.2,-0.48 -0.38,-0.19 -0.66,-0.2 -1.06,-0.28 -0.05,-0.09 -0.12,-0.15 -0.22,-0.16 -0.13,0 -0.27,0.01 -0.4,0.02 -0.26,-0.03 -0.35,-0.08 -0.57,-0.2 -0.37,-0.2 -2.03,-0.87 -1.69,-1.51 0.24,0.11 0.54,0.28 0.83,0.34 0.27,0.06 0.55,-0.02 0.82,0.06 0.28,0.08 0.45,0.15 0.81,0.15 0.3,-0 0.65,0.06 0.94,-0.04 -0.03,-0.32 -0.71,-0.5 -0.94,-0.63 -0.34,-0.2 -0.74,-0.4 -1.03,-0.67 -0.45,-0.42 -0.85,-0.7 -0.91,-1.31 -0.53,-0.05 -0.84,-0.23 -1.08,-0.74 -0.17,-0.35 -0.15,-1.31 -0.61,-1.4 0.02,-0.12 -0.08,0.11 -0.14,0.03 -0.03,0.03 -0.06,0.04 -0.09,0.04 0.22,0.1 0.54,0.17 0.77,0.22 0.31,0.07 0.74,0.1 1.04,-0.03l-0.1 -0.06c-0.08,-0 -0.16,-0.02 -0.24,-0.05 -0.09,-0.05 -0.18,-0.1 -0.25,-0.17 -0.16,-0.12 -0.35,-0.25 -0.47,-0.42 -0.07,-0.1 -0.1,-0.22 -0.18,-0.31 0.21,0.08 0.64,0.14 0.84,-0 0.28,-0.2 -0.12,-0.38 -0.27,-0.5 -0.13,-0.11 -0.23,-0.21 -0.34,-0.34l-0.01 -0.01 -2.74 0c-0.09,0.1 -0.21,0.23 -0.32,0.32 -0.14,0.11 -0.27,0.25 -0.41,0.35 -0.09,0.06 -0.18,0.14 -0.27,0.21l0 0.53c0.18,-0.14 0.33,-0.34 0.55,-0.28 0.15,0.04 0.28,0.12 0.46,0.09 0.11,-0.02 0.56,-0.15 0.56,-0.3 -0.13,0.01 -0.03,0.4 -0.05,0.51 -0.03,0.16 -0.12,0.37 -0.2,0.51 -0.05,0.09 -0.14,0.21 -0.21,0.3 -0.04,0.05 -0.1,0.07 -0.12,0.14 -0.03,0.11 0.02,0.13 -0.06,0.23 -0.29,0.36 -0.56,0.72 -0.93,1l0 2.54c0.18,0.01 0.36,-0.04 0.52,-0.11 0.24,-0.11 0.43,-0.37 0.67,-0.46l-0.05 0.18c0.08,-0.01 0.22,-0.12 0.3,-0.05 0.06,0.06 -0,0.25 -0.03,0.31 -0.15,0.27 -0.44,0.49 -0.71,0.59 -0.11,0.04 -0.22,0.12 -0.33,0.18 -0.11,0.05 -0.22,0.08 -0.32,0.13l-0.04 0.02 0 1.41 0.02 -0.02c0.06,-0.08 0.11,-0.21 0.21,-0.25 -0.01,0.05 -0.04,0.04 -0.05,0.08l-0.07 0.06c-0.04,0.08 -0.08,0.16 -0.1,0.25l-0 0.01 0 0.61c0.43,0.03 0.78,-0.43 1.05,-0.7 0.21,-0.21 0.43,-0.39 0.65,-0.58 0.03,0.12 0.02,0.18 -0.01,0.3 -0.03,0.12 -0.13,0.24 -0.18,0.35 -0.1,0.21 -0.18,0.38 -0.31,0.57 -0.14,0.2 -0.23,0.37 -0.44,0.51 -0.24,0.15 -0.49,0.22 -0.72,0.38l-0.04 0.03 0 0.78c0.15,0.07 0.43,-0.17 0.55,-0 0.09,0.12 -0.07,0.33 -0.12,0.42 -0.09,0.15 -0.19,0.28 -0.3,0.42 -0.05,0.06 -0.09,0.15 -0.13,0.22l0 3.9c0.23,-0.28 0.44,-0.58 0.67,-0.86 0.14,-0.17 0.26,-0.44 0.45,-0.56 0.02,0.07 -0.02,0.12 -0.04,0.18 -0.07,0.23 -0.37,1.15 0.02,1.27 0.37,0.11 0.64,-0.18 0.91,-0.36 0.07,0.11 -0.11,0.37 -0.14,0.49 -0.07,0.35 -0.12,0.74 -0.29,1.06 -0.11,0.16 -0.23,0.32 -0.34,0.48 -0.27,0.37 -0.56,0.73 -0.86,1.07 -0.12,0.11 -0.22,0.23 -0.33,0.35l-0.05 0.06 0 3.86c0.16,-0.14 0.31,-0.29 0.48,-0.41 0.04,0.21 -0.06,0.39 0.26,0.33 0.29,-0.05 0.6,-0.38 0.82,-0.56 0.18,-0.15 0.3,-0.32 0.46,-0.47 0.05,0.1 -0.19,0.4 -0.23,0.46 -0.13,0.25 -0.35,0.39 -0.56,0.57 -0.39,0.34 -0.78,0.68 -1.22,0.96l0 1.93c0.02,-0.02 0.04,-0.04 0.06,-0.06 0.05,-0.06 0.29,-0.46 0.38,-0.38 -0.04,0.3 -0.21,0.57 -0.26,0.87 -0.04,0.25 0.03,0.29 0.31,0.23 0.32,-0.06 0.55,-0.33 0.76,-0.55 0.2,-0.21 0.36,-0.51 0.58,-0.71 0.04,0.11 -0.02,0.22 -0.05,0.33 -0.08,0.25 -0.17,0.5 -0.24,0.75 -0.06,0.21 -0.18,0.37 -0.28,0.56 -0.08,0.17 -0.09,0.36 -0.19,0.52 -0.14,0.25 -0.37,0.44 -0.59,0.61 -0.15,0.12 -0.31,0.26 -0.47,0.38l0 1.71c0.02,0.01 0.04,0.02 0.06,0.03 0.19,0.07 0.38,-0.04 0.56,-0.1 0.17,-0.06 0.34,-0.12 0.51,-0.18 0.12,0.43 -0.55,0.67 -0.85,0.78 -0.09,0.03 -0.18,0.07 -0.27,0.11l0 3.02c0.41,-0.1 0.83,-0.2 1.22,-0.36 0.12,-0.05 0.32,-0.18 0.47,-0.13 0.19,0.07 -0.01,0.19 -0.12,0.27 -0.51,0.37 -1.02,0.74 -1.57,1.05l0 4.03c0.43,-0.15 0.84,-0.37 1.24,-0.6 0.15,-0.09 0.42,-0.32 0.59,-0.34 0.02,0.14 -0.05,0.15 0.11,0.2 0.23,0.08 0.53,-0.08 0.72,-0.19 -0.5,0.26 -1.01,1.01 -1.5,1.3 -0.28,0.17 -0.54,0.29 -0.79,0.5 -0.12,0.1 -0.24,0.19 -0.36,0.27l0 0.36 0 3.86 0 16.61 0.48 -0.09c2.06,-0.4 3.78,-0.5 5.86,-0.55 1.96,-0.05 3.84,-0.47 5.81,-0.46 3.53,0.03 6.87,-0.09 10.36,-0.38 6.71,-0.54 13.56,0.29 20.29,-0.02 1.88,-0.09 3.78,-0.48 5.63,-0.76 2.19,-0.33 4.38,-0.46 6.58,-0.74 1.89,-0.24 3.71,-0.21 5.62,-0.21 1.21,0 2.85,0.24 4.03,-0.09 -0.03,-0.37 -5.05,-0.66 -5.88,-0.85z"/>
  <path class="fil1" d="M39.28 59.07c0.56,-0.15 1.1,-0.35 1.66,-0.47 0.73,-0.15 1.47,-0.13 2.21,-0.3 0.37,-0.09 0.57,-0.16 0.95,-0.16 0.28,-0 0.56,0.05 0.82,-0.03 -0.35,-0.58 -1.03,-0.74 -1.61,-0.79 -0.81,-0.08 -1.6,-0.34 -2.38,-0.59 -0.67,-0.22 -1.19,-0.57 -1.81,-0.91 -0.37,-0.2 -0.64,-0.51 -0.99,-0.72 -0.52,-0.31 -0.73,0.16 -1.14,0.46 -0.65,0.48 -1.35,0.91 -2,1.4 -0.23,0.17 -0.57,0.51 -0.86,0.52 -0.17,0 -0.26,-0.12 -0.41,-0.16 -0.24,-0.05 -0.49,-0.02 -0.74,-0.02 -0.59,0 -1.04,0.08 -1.6,0.19 -0.46,0.09 -0.8,0.03 -1.26,0.2 -0.7,0.26 -0.97,0.63 -1.69,0.25 -0.65,-0.34 -1.27,-0.77 -1.8,-1.27 -0.38,-0.36 -0.63,-0.85 -1.05,-1.17 -0.15,-0.12 -0.31,-0.17 -0.48,-0.26 -0.58,-0.31 -1.07,-0.77 -1.62,-1.15 -0.39,-0.27 -0.65,-0.72 -1.09,-0.53 -0.44,0.18 -0.11,0.3 -0.59,0.06 -0.74,-0.38 -1.52,-0.33 -2.34,-0.32 -0.4,0.01 -0.93,0.15 -0.79,-0.37 0.03,-0.11 0.29,-0.36 0.37,-0.49 0.34,-0.59 0.62,-1.22 0.96,-1.81 0.39,-0.67 1.01,-1.42 1.27,-2.16 -1.26,-0.08 -2.78,0.75 -3.92,1.19 -0.35,0.14 -0.69,0.26 -1.06,0.36 -0.62,0.17 -1.5,0.25 -2.06,0.58 -0.63,0.38 -1.01,1.06 -1.59,1.49 -0.51,0.37 -1.1,0.67 -1.66,0.94 -0.4,0.2 -0.79,0.33 -1.23,0.4 -0.35,0.06 -0.7,0.07 -1.05,0.1 -1.82,0.17 -3.41,0.89 -5.15,1.34 -0.67,0.17 -1.15,0.46 -1.77,0.75 -0.56,0.26 -1.17,0.4 -1.79,0.49l0 3.82c0.57,-0.07 1.14,-0.11 1.75,-0.11 1.08,0 2.05,0.03 3.11,-0.2 1.84,-0.4 3.49,-0.86 5.36,-0.86 0.61,0 1.16,0.1 1.76,0.22 0.84,0.16 1.67,0.17 2.52,0.26 1.34,0.15 2.69,0.22 4.05,0.17 1.46,-0.05 3.11,-0.28 4.53,-0.56 2.22,-0.45 4.32,-0.26 6.55,-0.02 1.65,0.18 3.31,0.17 4.96,0.16 0.71,-0 1.45,-0.09 2.14,0.08 0.63,0.15 1.28,0.24 1.93,0.14 0.21,-0.03 0.42,-0.08 0.62,-0.14z"/>
 </g>
</svg>
