<?xml version="1.0" encoding="UTF-8"?>
<!DOCTYPE svg PUBLIC "-//W3C//DTD SVG 1.1//EN" "http://www.w3.org/Graphics/SVG/1.1/DTD/svg11.dtd">
<!-- Creator: CorelDRAW -->
<svg xmlns="http://www.w3.org/2000/svg" xml:space="preserve" width="2.10443in" height="1.50117in" version="1.1" style="shape-rendering:geometricPrecision; text-rendering:geometricPrecision; image-rendering:optimizeQuality; fill-rule:evenodd; clip-rule:evenodd"
viewBox="0 0 47.92 34.19"
 xmlns:xlink="http://www.w3.org/1999/xlink"
 xmlns:xodm="http://www.corel.com/coreldraw/odm/2003">
 <defs>
  <style type="text/css">
   <![CDATA[
    .fil0 {fill:#774A3B}
   ]]>
  </style>
 </defs>
 <g id="Layer_x0020_1">
  <metadata id="CorelCorpID_0Corel-Layer"/>
  <path class="fil0" d="M47.92 10.8c-0.36,0.14 -0.71,0.28 -1.07,0.43l-0.08 0.02c-0.05,0.02 -0.11,0.05 -0.17,0.08 -0.14,0.06 -0.29,0.12 -0.44,0.18 -0.05,-0.02 -0.09,-0.05 -0.13,-0.13 -0.1,-0.23 0.07,-0.48 0.13,-0.66 0.03,-0.09 0.12,-0.26 0.13,-0.35 0.03,-0.34 0.03,-0.07 -0.11,-0.31 -0.29,-0.51 -0.99,-0.37 -1,-1.04 -0,-0.29 0.13,-0.5 0.15,-0.79 0.02,-0.3 0,-0.58 -0.1,-0.85 -0.08,-0.22 -0.48,-0.67 -0.32,-0.92 0.18,-0.28 0.61,0.07 0.86,0.08 0.82,0.03 -0.47,-1.19 -0.58,-1.37 -0.19,-0.3 -0.36,-0.48 -0.43,-0.8 -0.09,-0.45 -0,-1.06 0.01,-1.52 0.02,-0.96 -0.62,-1.89 -0.72,-2.84 -0,0.51 -0,1.02 -0,1.52 0,0.27 0.04,0.56 -0.03,0.82 -0.08,0.32 -0.25,0.63 -0.33,0.95 -0.16,0.62 0.06,1.29 -0.1,1.91 -0.16,0.64 -0.66,1.03 -0.53,1.73 0.28,0.04 1,-0.75 1.14,-0.28 0.05,0.18 -0.09,0.22 -0.12,0.35 -0.09,0.35 -0.17,0.69 -0.28,1.05 -0.22,0.74 -0.81,1.37 -1.29,1.92 -0.23,0.26 -0.23,0.78 -0.15,1.1 0.38,0.08 0.75,-0.8 1.13,-0.72 0.39,0.09 -0.17,0.76 -0.23,0.95 -0.12,0.37 0.07,0.53 0.08,0.91 0.01,0.34 -0,0.61 -0.17,0.91 -0.06,0.1 -0.12,0.18 -0.17,0.26 -0.23,0.1 -0.47,0.19 -0.69,0.31 -0.34,0.18 -0.44,0.44 -0.63,0.75 -0.33,0.56 -0.82,1.03 -1.35,1.41 -0.32,0.23 -0.52,0.56 -0.75,0.86 -0.35,0.46 -0.76,0.89 -1.22,1.25 -0.68,0.55 -1.23,1.02 -2.05,1.39 -0.57,0.26 -4.79,2.52 -4.83,0.99 -0.01,-0.32 -0.07,-0.52 -0.28,-0.79 -0.09,-0.12 -0.25,-0.2 -0.3,-0.34 -0.03,-0.09 0.01,-0.34 0.01,-0.44 0,-0.35 0.06,-0.76 0.01,-1.11 -0.07,-0.42 -0.16,-0.77 -0.15,-1.21 0.01,-0.45 -0.12,-0.86 -0.31,-1.28 -0.22,-0.47 -0.56,-0.79 -0.56,-1.34 0.18,0.11 0.36,0.17 0.52,0.31 0.16,0.13 0.25,0.29 0.48,0.2 0.03,-0.2 -0.25,-0.71 -0.3,-0.93 -0.14,-0.65 -0.57,-1.19 -0.88,-1.77 -0.26,-0.5 -0.4,-1 -0.49,-1.55 -0.03,-0.19 0.01,-0.4 -0.14,-0.54 -0.07,0.21 -0.02,0.46 -0.06,0.69 -0.09,0.54 -0.19,1.08 -0.29,1.62 -0.1,0.61 -0.29,1.21 -0.58,1.76 -0.14,0.28 -0.32,0.54 -0.38,0.84 0.16,-0.09 0.55,-0.37 0.82,-0.64 -0.03,0.32 0.04,0.71 0.04,0.85 -0.04,0.83 -0.32,1.61 -0.29,2.46 0.01,0.25 0.03,0.27 0.14,0.47 0.11,0.02 0.17,0.08 0.16,0.2 -0.01,0.14 -0.05,0.27 -0.12,0.4 -0.21,0.56 -0.72,0.77 -0.6,1.41 0.38,-0.02 0.88,-0.44 1.25,-0.29 0.42,0.17 -0.03,0.85 -0.09,1.16 -0.1,0.49 -0.1,0.93 -0.61,1.16 -0.21,0.1 -0.45,0.14 -0.68,0.18 -1.34,0.28 -2.77,0.51 -4,1.15 -0.63,0.33 -1.19,0.78 -1.8,1.13 -0.35,0.2 -0.81,0.66 -1.16,0.37 -0.08,-0.06 -0.03,-0.21 -0.09,-0.26 -0.08,-0.07 -0.24,-0.04 -0.34,-0.09 -0.34,-0.19 -0.22,-0.57 -0.22,-0.94 0,-0.28 0.04,-0.42 0.15,-0.65 0.09,-0.19 0.13,-0.22 0.15,-0.42 0.04,-0.38 -0.19,-0.43 -0.36,-0.71 -0.12,-0.2 -0.16,-0.71 -0.06,-0.94 0.12,-0.28 0.47,-0.18 0.56,-0.4 0.1,-0.23 -0.17,-0.76 -0.29,-0.94 -0.24,-0.34 -0.29,-0.44 -0.29,-0.88 0,-0.76 0.24,-1.3 -0.04,-2.04 -0.16,-0.42 -0.3,-0.85 -0.43,-1.28 -0.09,-0.31 -0.21,-0.6 -0.24,-0.93 -0.02,-0.2 0.04,-0.45 -0.03,-0.65 -0.39,-0.06 -0.26,0.67 -0.26,0.88 0,0.5 0,0.94 -0.1,1.43 -0.22,0.98 -0.18,1.92 -0.18,2.91 0,0.33 -0.07,0.74 -0.01,1.06 0.06,0.32 0.15,0.51 0.15,0.86 -0,0.25 -0.06,0.56 0.07,0.78 0.13,0.24 0.31,0.16 0.38,0.41 0.04,0.16 -0.09,0.36 -0.12,0.51 -0.04,0.21 -0.04,0.37 -0.03,0.57 0.01,0.34 -0.06,0.63 -0.11,0.97 -0.06,0.43 -0.09,0.88 -0.14,1.31 -0.04,0.27 0.05,0.67 -0.03,0.92 -0.04,0.12 0.03,0.23 -0.15,0.24 -0.22,0.01 -0.08,-0.21 -0.17,-0.31 -0.37,-0.41 -0.92,-0.09 -1.26,-0.45 -0.12,-0.13 -0.26,-0.57 -0.13,-0.75 0.1,-0.14 0.37,-0.09 0.4,-0.32 -0.18,-0.12 -0.11,-0.29 -0.11,-0.47 -0.01,-0.27 -0.07,-0.24 -0.2,-0.43 -0.12,-0.17 -0.51,-0.53 -0.3,-0.71 0.12,-0.1 0.37,0.1 0.48,-0.03 0.13,-0.15 -0.08,-0.34 -0.11,-0.48 -0.06,-0.28 -0.06,-0.72 0,-1 0.04,-0.2 0.18,-0.27 0.11,-0.5 -0.08,-0.25 -0.41,-0.28 -0.53,-0.46 -0.13,-0.2 -0.02,-0.73 -0.02,-0.97 -0.01,-0.56 -0.33,-1.02 -0.47,-1.57 -0.06,-0.23 -0.02,-1.24 -0.21,-1.27 -0.12,0.32 -0.01,0.8 -0.03,1.13 -0.02,0.49 -0.15,0.94 -0.15,1.43 0.01,0.57 0.09,1.24 -0.07,1.78 -0.06,0.2 -0.14,0.43 -0.25,0.61 -0.19,0.33 -0.3,0.63 -0.37,1.03 -0.1,0.61 -0.03,1.24 -0.17,1.85 -0.05,0.24 -0.28,0.47 -0.27,0.71 0.33,0.06 0.94,-0.54 1.14,-0.8 -0.01,0.18 -0.08,0.52 -0.01,0.68 0.04,0.11 0.2,0.17 0.23,0.26 0.18,0.51 -0.54,1.21 -0.78,1.6 -0.12,0.19 -0.21,0.33 -0.39,0.46 -0.36,0.27 -0.84,0.41 -1.24,0.61 -0.76,0.37 -1.52,0.76 -2.32,1.06 -0.57,0.23 -1.15,0.44 -1.74,0.62 -0.54,0.2 -1.09,0.4 -1.63,0.59 -0.19,0.07 -0.39,0.11 -0.59,0.17 -1.12,0.31 -2.15,0.95 -3.26,1.32 -1.02,0.34 -2.08,0.57 -3.12,0.86 -0.26,0.07 -1.2,0.17 -1.28,0.37 0.8,0.25 1.91,0.03 2.75,0.04 1.22,0.02 2.4,0.23 3.63,0.22 2.01,-0.01 4.03,-0 6.04,0 1.8,0 3.55,0.21 5.32,0.41 1.28,0.14 2.56,0.24 3.83,0.43 1.26,0.19 2.73,0.02 4,0.02 1.41,0 2.82,0 4.23,0 1.14,0 2.29,0.01 3.43,-0.01 0.74,-0.01 1.43,0.2 2.16,0.22 0.47,0.01 0.94,0.02 1.41,-0.07 0.53,-0.09 0.93,-0.31 1.46,-0.31 1.29,0.01 2.59,0.16 3.88,0.2 1.93,0.05 3.85,0.03 5.77,-0.04l0 -23.16z"/>
 </g>
</svg>
