<?xml version="1.0" encoding="UTF-8"?>
<!DOCTYPE svg PUBLIC "-//W3C//DTD SVG 1.1//EN" "http://www.w3.org/Graphics/SVG/1.1/DTD/svg11.dtd">
<!-- Creator: CorelDRAW -->
<svg xmlns="http://www.w3.org/2000/svg" xml:space="preserve" width="2.06667in" height="2.09634in" version="1.1" style="shape-rendering:geometricPrecision; text-rendering:geometricPrecision; image-rendering:optimizeQuality; fill-rule:evenodd; clip-rule:evenodd"
viewBox="0 0 46.27 46.93"
 xmlns:xlink="http://www.w3.org/1999/xlink"
 xmlns:xodm="http://www.corel.com/coreldraw/odm/2003">
 <defs>
  <style type="text/css">
   <![CDATA[
    .fil0 {fill:#9D7865}
    .fil1 {fill:#89604E;fill-opacity:0.501961}
   ]]>
  </style>
 </defs>
 <g id="Layer_x0020_1">
  <metadata id="CorelCorpID_0Corel-Layer"/>
  <g id="_1811956901488">
   <path class="fil0" d="M44.25 26.16c-0.2,0.03 -0.41,0.06 -0.61,0.08 -0.17,0.02 -0.33,0.05 -0.47,0.1 0.33,-0.17 0.56,-0.45 0.87,-0.63 0.13,-0.08 0.24,-0.09 0.36,-0.2 0.11,-0.1 0.14,-0.2 0.22,-0.31 0.14,-0.21 0.42,-0.29 0.5,-0.54 -0.02,0.64 -0.41,1.11 -0.87,1.51zm-27.08 14.82l0.07 0.04 -0.07 0.02 0 -0.06zm26.72 -7.58c-0.11,-0.03 -0.22,-0.07 -0.33,-0.1 0.32,-0.18 0.62,-0.37 0.94,-0.54 0.09,0.13 0.07,0.33 0,0.53 -0.21,0.04 -0.41,0.08 -0.61,0.12zm-4.33 1.18l0.05 -0.01c0.78,0.3 1.7,0.82 2.5,0.6 -0,-0 -0.04,-0.24 -0.11,-0.4 0.21,0.13 0.42,0.26 0.64,0.38 -0.19,0.05 -0.38,0.11 -0.57,0.15 -1.21,0.32 -2.39,0.68 -3.57,1.04 -0.23,-0.27 -0.46,-0.58 -0.44,-0.7 0.29,0.15 0.83,0.55 1.14,0.4 -0.27,-0.37 -0.81,-0.55 -1.17,-0.83 -0.43,-0.33 -0.76,-0.76 -0.78,-1.31 0.35,-0.01 0.86,0.51 1.18,0.65 0.15,0.06 1.05,0.41 1.11,0.03zm1.25 -3.67c0.05,-0.02 0.1,-0.04 0.15,-0.06 0.18,-0.08 0.4,-0.26 0.6,-0.29 -0.02,0.18 -0.16,0.36 -0.12,0.53 -0.19,-0.1 -0.41,-0.14 -0.63,-0.18zm-1.6 -0.58c0.26,-0.13 0.52,-0.24 0.76,-0.22 -0.02,0.13 -0.12,0.31 -0.2,0.48 -0.19,-0.08 -0.38,-0.16 -0.56,-0.26zm-1.69 0.4c0.23,0.02 0.51,-0.01 0.72,-0.04 0.37,0.22 0.74,0.42 1.15,0.51 0.26,0.05 0.64,0.17 0.67,-0.08 0.1,-0.02 0.2,-0.04 0.3,-0.06 0.37,0.11 0.77,0.14 1.14,0.14 0.02,0.03 0.05,0.05 0.09,0.07 0.44,-0.09 0.68,-0.31 1,-0.63 0.13,-0.13 0.26,-0.34 0.45,-0.39 0.13,0.21 -0.17,0.71 -0.1,0.98 0.4,0.19 1.1,-0.86 1.35,-1.1 0.31,0.22 -1.49,2.13 -1.72,2.36 -0.16,0.16 -0.33,0.29 -0.5,0.41 -0.48,-0.12 -0.97,-0.24 -1.43,-0.43 -0.32,-0.13 -0.62,-0.31 -0.94,-0.44 -0.27,-0.11 -0.54,-0.18 -0.8,-0.31 -0.23,-0.12 -1.02,-0.55 -1.38,-0.99zm4.54 -3.12c0.14,-0 0.26,-0.04 0.38,-0.1 0.26,0.2 0.5,0.48 0.79,0.6 0,0 0.03,0.01 0.07,0.02 -0.57,0.37 -1.15,0.68 -1.81,0.9 -0.37,0.12 -0.74,0.24 -1.12,0.33 -0.52,0.13 -1.04,0.12 -1.56,0.22 -0.1,0.02 -0.22,0.04 -0.35,0.08 -0.1,-0.15 -0.19,-0.32 -0.31,-0.47 -0.21,-0.27 -0.44,-0.57 -0.38,-0.91 0.23,0.08 0.45,0.45 0.67,0.46 -0.13,-0.4 -0.45,-0.6 -0.63,-0.95 -0.09,-0.18 -0.17,-0.42 -0.08,-0.61 0.31,-0.04 0.61,0.16 0.88,0.3 0.32,0.17 0.62,0.32 0.97,0.42 0.09,0.03 0.59,0.18 0.7,0.11 0.15,-0.09 0.08,-0.26 0.09,-0.41 0.15,0.13 0.32,0.37 0.53,0.38 0.02,-0.31 -0.27,-0.51 -0.36,-0.79 0.37,0.28 0.73,0.56 1.1,0.83 0.15,0.1 0.72,0.7 0.91,0.43 -0.06,-0.29 -0.22,-0.43 -0.38,-0.67 -0.03,-0.05 -0.08,-0.1 -0.12,-0.15zm-0.09 -0.31c0.03,0.01 0.06,0.02 0.09,0.03 -0.04,0.02 -0.07,0.04 -0.11,0.06 -0,-0.03 0,-0.06 0.01,-0.08zm0.73 -0.77c0.04,-0.01 0.07,-0.02 0.11,-0.04 -0.03,0.02 -0.06,0.03 -0.08,0.05l-0.02 -0.01zm1.23 -6.04c-0.11,0.13 -0.21,0.27 -0.2,0.35 0.2,0.05 0.38,-0.07 0.55,-0.23 0.02,0 0.04,0 0.06,0.01 0.11,0.01 0.57,0.04 0.49,-0.19 -0.09,-0.04 -0.18,-0.08 -0.25,-0.13 0.1,-0.1 0.19,-0.18 0.29,-0.22 0.04,0.23 0.06,0.63 -0,0.87 -0.06,0.21 -0.28,0.46 -0.41,0.64 -0.22,0.31 -0.39,0.64 -0.61,0.96 -0.24,0.36 -0.51,0.68 -0.79,0.98 -0.02,0.02 -0.04,0.04 -0.06,0.06 -0.32,0.33 -0.68,0.63 -1.06,0.92 -0.38,0.29 -0.78,0.56 -1.18,0.81 -0.15,-0.1 -0.29,-0.2 -0.44,-0.29 -0.43,-0.27 -0.97,-0.45 -1.28,-0.87 -0.17,-0.24 -0.31,-0.5 -0.48,-0.74 -0.06,-0.09 -0.15,-0.16 -0.14,-0.27 0.16,-0.08 0.2,0.07 0.3,0.15 0.21,0.16 0.57,0.23 0.83,0.25 0,-0.29 -0.26,-0.61 -0.4,-0.86 -0.08,-0.15 -0.28,-0.37 -0.3,-0.53 0.43,0.16 1,0.8 1.44,0.46 -0.01,-0.09 -0.07,-0.18 -0.12,-0.25 0.4,0.17 0.91,0.31 1.33,0.28 -0.51,-0.19 -0.98,-0.39 -1.42,-0.71 -0.44,-0.32 -0.91,-0.68 -1.25,-1.11 -0.52,-0.65 -1.43,-1.38 -1.18,-2.32 0.2,-0.03 0.67,0.48 0.82,0.6 0.25,0.2 0.7,0.65 1.05,0.61 0.04,-0.2 -0.11,-0.52 0,-0.67 0.19,0.19 0.44,0.65 0.71,0.68 0.11,-0.32 -0.34,-0.76 -0.38,-1.1 0.36,0.46 0.83,0.86 1.3,1.19 0.3,0.21 0.73,0.72 1.13,0.59 0.04,-0.19 -0.04,-0.38 -0.01,-0.57 0.2,0.12 0.5,0.42 0.75,0.39 0.22,-0.03 0.03,-0.17 0.37,-0.03 0.2,0.08 0.37,0.21 0.55,0.31zm-1.65 -1.61l0.04 -0.03c0.16,0.37 0.77,0.08 0.99,-0.16 0.28,0.07 0.35,0.29 0.73,0.2 0.56,-0.13 0.95,-0.68 1.4,-0.99 0.08,0.26 -0.2,0.62 -0.3,0.86 -0.15,0.31 -0.3,0.61 -0.46,0.92 -0.1,0.2 -0.22,0.3 -0.36,0.44 -0.13,-0.1 -0.27,-0.19 -0.42,-0.27 -0.35,-0.17 -0.7,-0.3 -1.04,-0.5 -0.21,-0.13 -0.39,-0.3 -0.58,-0.46zm-14.6 17.39c0.17,0.02 0.36,-0.03 0.49,-0.06 0.25,0.15 0.56,0.22 0.82,0.08 0.29,-0.16 0.25,-0.35 0.61,-0.2 0.1,0.04 0.19,0.11 0.29,0.16 -0.04,0.15 -0.06,0.3 -0.05,0.4 0.25,0.1 0.53,0.03 0.81,-0.11 0.03,0.02 0.06,0.04 0.09,0.05 0.23,0.08 0.54,0.11 0.78,0.07 0.21,-0.03 0.33,-0.08 0.23,-0.32 -0.05,-0.12 -0.16,-0.23 -0.29,-0.33 0.18,-0.13 0.34,-0.25 0.47,-0.32 -0.02,0.21 -0.04,0.46 -0.01,0.67 0.05,0.3 0.12,0.37 0.43,0.24 0.19,-0.08 0.36,-0.2 0.52,-0.33 0.15,-0.12 0.29,-0.26 0.43,-0.4 0.22,-0.22 0.44,-0.55 0.72,-0.69 0.65,-0.34 -0.12,1.37 -0.16,1.54 0.24,0.11 0.47,-0.09 0.7,-0.08 0.02,0.47 -0.44,0.81 -0.82,0.99l-0.08 0.02c-0.94,0.19 -1.77,0.55 -2.73,0.67 -0.4,0.05 -0.8,0.11 -1.2,0.18 -0.3,-0.26 -0.57,-0.53 -0.91,-0.74 -0.35,-0.22 -0.55,-0.35 -0.72,-0.75 -0.12,-0.27 -0.26,-0.49 -0.41,-0.72zm-2.24 -0.88l-0.04 0.01c0.02,-0.04 0.03,-0.08 0.04,-0.12 0,0.04 0,0.07 0,0.11zm2.11 -6.88c-0.04,0.03 -0.08,0.07 -0.11,0.11 -0.27,0.28 0.19,0.45 0.46,0.46 0.18,0.01 0.34,-0.03 0.48,-0.09 0.02,0.02 0.05,0.03 0.07,0.05 0.15,0.08 0.72,0.17 0.87,0.01l0.04 -0.05c0.2,0.04 0.4,0.02 0.6,-0 0.07,-0.01 0.44,0.01 0.51,-0.06 0.07,-0.08 0.05,-0.16 -0.01,-0.24 0.22,-0.14 0.42,-0.29 0.57,-0.39 0.16,0.07 -0.03,0.69 -0.04,0.85 0.27,0.06 0.49,-0.04 0.66,-0.29 0.3,-0.23 0.59,-0.48 0.87,-0.74 0.14,-0.13 0.53,-0.71 0.72,-0.68 0.06,0.27 -0.18,0.77 -0.23,0.98 -0.04,0.19 -0.22,0.66 -0.02,0.81 0.51,0.39 1.13,-0.87 1.37,-1.14 0.14,0.17 0.13,0.29 0.37,0.37 0.07,0.02 0.18,0.03 0.28,0.03 -0.02,0.09 -0.04,0.19 -0.06,0.26 -0.12,0.34 -0.29,0.66 -0.5,0.95 -0.16,0.22 -0.29,0.21 -0.5,0.34 -0.24,0.14 -0.54,0.45 -0.73,0.65 -0.14,0.15 -0.25,0.25 -0.43,0.35 -0.13,0.08 -0.43,0.15 -0.44,0.33 0.67,0.4 1.16,-0.3 1.68,-0.56 0.02,0.77 1.13,-0.16 1.3,-0.22 -0.07,0.4 -0.16,0.68 -0.41,1 -0.32,0.43 -0.78,0.87 -1.2,1.21 -0.97,0.79 -2.08,1.29 -3.31,1.64 -0.28,0.08 -0.56,0.16 -0.84,0.25 -0.22,-0.25 -0.41,-0.57 -0.61,-0.81 -0.14,-0.18 -0.3,-0.36 -0.48,-0.49 -0.1,-0.08 -0.22,-0.11 -0.31,-0.2 -0.1,-0.1 -0.16,-0.24 -0.27,-0.33 -0.34,-0.28 -0.73,-0.58 -0.64,-1.1 0.2,-0.02 0.25,0.15 0.39,-0.05 0.11,-0.16 -0,-0.41 0.02,-0.59 0.41,0.02 0.69,0.61 1.16,0.33 -0.03,-0.28 -0.3,-0.48 -0.5,-0.64 -0.21,-0.17 -0.32,-0.32 -0.47,-0.54 -0.08,-0.12 -0.2,-0.23 -0.27,-0.35 -0.06,-0.13 -0.07,-0.32 -0.12,-0.46 -0.09,-0.23 -0.46,-0.68 -0.46,-0.94 -0,-0.35 0.32,-0.13 0.51,-0zm-9.85 12.77c-0.06,0.13 -0.11,0.27 -0.17,0.41l-0.36 0.11c-0,-0.22 -0,-0.45 -0,-0.67 0.08,0 0.17,-0 0.27,-0.01 0.09,0.05 0.18,0.11 0.27,0.17zm-0.52 -0.8c0.19,-0.09 0.37,-0.19 0.48,-0.11 0.08,0.06 -0.04,0.21 0.03,0.28 0.05,0.04 0.13,0.04 0.19,0.02 0.02,0.06 0.03,0.11 0.05,0.17 -0.01,0.02 -0.02,0.05 -0.04,0.07 -0.06,-0 -0.11,-0 -0.17,0 -0.08,0 -0.15,0.02 -0.22,0.03 -0.11,-0.04 -0.22,-0.07 -0.34,-0.1l0 -0.09c-0,-0.09 0,-0.18 0.01,-0.27zm0.55 -2.05c0.07,-0.01 0.13,-0.02 0.21,-0.04 0.12,-0.04 0.21,-0.16 0.34,-0.14 -0.03,0.14 -0.18,0.35 -0.25,0.5 -0.06,0.14 -0.15,0.26 -0.24,0.37 -0.01,-0.05 -0.01,-0.1 -0.02,-0.14 -0.01,-0.12 -0.01,-0.35 -0.04,-0.55zm0.69 2.48c-0.01,-0.01 -0.03,-0.02 -0.04,-0.02l-0.01 -0.03c0.06,0 0.1,0.02 0.14,0.05l-0.09 -0zm0.3 0.42c-0.03,-0.08 -0.06,-0.16 -0.11,-0.23 0.18,0.02 0.35,0.05 0.5,0.11l-0.39 0.12zm27.55 -35.46c-0.1,0.03 -0.21,0.07 -0.31,0.1 -0.28,0.09 -0.55,0.21 -0.48,0.55 0.25,0.05 0.52,0.03 0.79,0.02l0 -0.67zm-42.38 40.02l0 0.11c-0.41,0.07 -0.84,0.13 -1.27,0.2 -0.52,0.09 -1.3,0.15 -1.8,0.28 -0.34,0.09 -0.59,0.08 -0.82,0.4 5.65,-0.3 11.4,-0.02 17.06,-0.02l8.75 0c1.83,0 3.68,0.12 5.5,0.02 1.54,-0.07 2.97,-0.4 4.52,-0.39 2.64,0.02 5.29,0.01 7.92,0 0.85,-0 1.68,0.04 2.52,0.12l0 -4.86 0 -7.9 0 -14.61c-0.18,-0.28 -0.32,-0.58 -0.22,-0.92 0.08,-0.02 0.15,0.03 0.22,0.1l0 -4.26c-0.04,-0.05 -0.07,-0.11 -0.09,-0.17 0.03,-0.02 0.06,-0.03 0.09,-0.04l0 -2.02c-0.1,-0.12 -0.21,-0.26 -0.07,-0.36 0.02,-0.01 0.04,-0.02 0.07,-0.02l0 -4.22c-0.14,0.34 -0.32,0.67 -0.45,1.02 -0.11,0.3 -0.33,0.58 -0.38,0.91 -0.37,0.04 -0.93,0.44 -1.13,0.75 -0.34,0.54 0.34,0.09 0.46,0.36 0.12,0.28 -0.67,0.74 -0.82,0.84 -0.49,0.33 -0.86,0.79 -1.31,1.16 0.21,-0.01 0.47,0.05 0.67,-0.02 0.32,-0.1 0.6,-0.44 0.87,-0.64 0.19,0.43 0.65,0.08 0.87,-0.1 0.24,-0.19 0.48,-0.16 0.73,-0.27 0.11,0.27 -0.08,0.72 -0.2,0.96 -0.08,0.17 -0.21,0.3 -0.3,0.47 -0.1,0.18 -0.14,0.38 -0.23,0.57 -0.09,0.21 -0.21,0.42 -0.31,0.62 -0.07,0.13 -0.28,0.3 -0.3,0.43 0.3,0.14 0.71,-0.43 0.83,-0.66 0.17,0.08 0.03,0.41 0.07,0.57 0.05,0.22 0.17,0.31 0.1,0.59 -0.03,0.13 -0.09,0.25 -0.16,0.36 -0.43,0.08 -0.84,0.21 -1.22,0.43 -0.22,0.13 -0.74,0.4 -0.52,0.77 0.13,0.23 0.43,0.16 0.76,0.03 -0.21,0.27 -0.43,0.54 -0.67,0.79 -0.34,0.36 -0.67,0.76 -1.14,0.92 -0.24,0.08 -0.46,0.18 -0.67,0.31 -0.33,-0.24 -0.66,-0.47 -0.97,-0.74 -0.2,-0.17 -0.46,-0.3 -0.63,-0.51 -0.15,-0.19 -0.23,-0.36 -0.43,-0.52 -0.15,-0.12 -0.33,-0.16 -0.46,-0.31 -0.12,-0.15 -0.22,-0.33 -0.33,-0.49 -0.23,-0.31 -0.42,-0.64 -0.69,-0.93 -0.16,-0.17 -0.5,-0.61 -0.42,-0.85 0.33,0.12 0.67,0.26 1.01,0.27 0.45,0.02 0.2,-0.12 0.3,-0.41 0.19,0.03 0.24,0.31 0.43,0.39 0.14,0.06 0.44,0.04 0.59,-0 0.02,-0.24 -0.5,-0.59 -0.69,-0.69 -0.28,-0.15 -0.56,-0.34 -0.85,-0.5 -0.41,-0.24 -0.76,-0.51 -0.99,-0.93 -0.18,-0.33 -0.47,-0.86 -0.81,-1.04 0.18,0.09 0.42,0.15 0.61,0.24 0.21,0.1 0.51,0.21 0.74,0.11 -0.04,-0.23 -0.16,-0.29 -0.34,-0.41 -0.2,-0.13 -0.37,-0.31 -0.52,-0.51 -0.28,-0.39 -0.53,-0.71 -0.46,-1.19 0.33,0.02 0.97,1.11 1.26,0.41 0.1,0.03 0.27,0.24 0.4,0.2 0.17,-0.05 0.05,-0.26 0.09,-0.41 0.28,0.07 0.44,0.5 0.75,0.58 0.2,0.06 0.56,0.05 0.75,-0.01 -0.08,-0.23 -0.34,-0.33 -0.52,-0.46 -0.19,-0.14 -0.41,-0.27 -0.61,-0.37 -0.3,-0.16 -0.53,-0.43 -0.77,-0.66 -0.17,-0.16 -0.37,-0.3 -0.54,-0.48 -0.21,-0.23 -0.43,-0.55 -0.53,-0.84 -0.05,-0.15 -0.07,-0.34 -0.15,-0.49 -0.04,-0.08 -0.14,-0.14 -0.18,-0.22 -0.05,-0.11 -0.05,-0.29 -0.04,-0.4 0.06,-0.61 0.65,0.21 0.79,0.4 0.23,0.33 0.67,0.52 1.05,0.4 -0.06,-0.19 -0.27,-0.45 -0.41,-0.58 -0.1,-0.09 -0.22,-0.12 -0.32,-0.21 -0.09,-0.08 -0.13,-0.2 -0.21,-0.29 -0.05,-0.05 -0.13,-0.1 -0.19,-0.15 -0.14,-0.13 -0.36,-0.24 -0.45,-0.37 -0.12,-0.18 -0.17,-0.41 -0.23,-0.61 -0.07,-0.25 -0.14,-0.39 -0.14,-0.66 -0.01,-0.29 0.09,-0.29 0.37,-0.23 0.19,0.04 0.45,0.14 0.67,0.2 0.22,0.07 0.78,0.33 1,0.26 -0.02,-0.13 -0.11,-0.12 -0.2,-0.18 -0.08,-0.05 -0.15,-0.12 -0.24,-0.18 -0.06,-0.04 -0.15,-0.05 -0.21,-0.1 -0.07,-0.05 -0.14,-0.14 -0.21,-0.2 -0.31,-0.29 -0.54,-0.62 -0.74,-0.98 -0.09,-0.17 -0.26,-0.57 -0.04,-0.66 0.15,-0.07 0.67,0.09 0.28,-0.22 -0.24,-0.19 -0.34,-0.31 -0.49,-0.58 -0.08,-0.14 -0.19,-0.28 -0.23,-0.43 -0.07,-0.22 -0.03,-0.78 -0.18,-0.99 -0.3,0.09 -0.39,0.7 -0.53,0.92 -0.15,0.23 -0.21,0.43 -0.27,0.7 -0.05,0.25 -0.01,0.57 0.08,0.81 0.12,0.37 -0.11,0.54 -0.31,0.83 -0.21,0.3 -0.28,0.65 -0.45,0.97 -0.05,0.09 -0.27,0.23 -0.19,0.37 0.06,0.09 0.21,0.08 0.3,0.05 0.32,-0.12 0.34,-0.55 0.49,-0.78 0.04,-0.06 0.11,-0.09 0.15,-0.14 0.06,-0.08 0.02,-0.18 0.12,-0.24 -0,0.36 -0.02,0.68 -0.05,1.03 -0.04,0.48 -0.29,0.69 -0.53,1.06 -0.12,0.19 -0.19,0.4 -0.36,0.56 -0.15,0.14 -0.3,0.28 -0.42,0.45 -0.07,0.11 -0.08,0.2 -0.14,0.31 -0.07,0.13 -0.12,0.13 -0.23,0.22 -0.16,0.13 -0.34,0.28 -0.45,0.46 0.29,0.14 0.63,-0.19 0.77,-0.4 0.07,-0.1 0.06,-0.16 0.17,-0.2 0.09,-0.03 0.22,0.04 0.32,0.01 0.12,-0.04 0.09,-0.13 0.18,-0.21 0.08,-0.08 0.2,-0.05 0.28,-0.12 0.14,-0.11 0.12,-0.3 0.2,-0.45 0,0.42 -0.06,0.94 -0.23,1.32 -0.1,0.21 -0.32,0.46 -0.47,0.64 -0.11,0.13 -0.26,0.21 -0.39,0.32 -0.12,0.11 -0.18,0.27 -0.29,0.39 -0.16,0.17 -0.4,0.27 -0.59,0.42 -0.19,0.15 -0.43,0.2 -0.65,0.3 -0.22,0.1 -0.4,0.22 -0.58,0.36 -0.19,0.14 -0.44,0.2 -0.64,0.33 -0.46,0.3 0.19,0.36 0.45,0.23 0.23,-0.11 0.35,-0.2 0.58,-0.15 0.14,0.03 0.29,0.09 0.46,0.04 0.09,-0.02 0.16,-0.09 0.25,-0.12 0.19,-0.08 0.11,-0.04 0.3,0.01 0.33,0.07 0.63,0.04 0.89,-0.17 0.25,-0.2 0.42,-0.45 0.59,-0.72 0.11,-0.17 0.2,-0.2 0.37,-0.29 0.1,0.19 -0.09,0.26 -0.14,0.41 -0.04,0.12 -0.05,0.34 -0.07,0.46 -0.05,0.27 -0.15,0.42 -0.27,0.65 -0.05,0.09 -0.04,0.13 -0.1,0.2 -0.08,0.09 -0.22,0.17 -0.32,0.25 -0.16,0.13 -0.48,0.26 -0.45,0.52 0.32,0.15 0.51,-0.18 0.7,-0.35 0.28,-0.26 0.16,-0.08 0.39,-0.03 0.05,0.01 0.25,-0.05 0.3,0.01 0.12,0.15 -0.2,0.64 -0.25,0.78 -0.14,0.36 -0.36,0.67 -0.6,0.96 -0.19,0.22 -0.44,0.36 -0.64,0.57 -0.2,0.21 -0.36,0.47 -0.56,0.69 -0.13,0.14 -0.51,0.59 -0.36,0.82 0.34,0.08 0.55,-0.11 0.79,-0.3 0.16,-0.12 0.46,-0.4 0.68,-0.4 0.12,0.29 -0.01,0.57 -0.11,0.82 -0.09,0.23 -0.2,0.34 -0.35,0.53 -0.26,0.33 -0.41,0.75 -0.64,1.11 -0.77,1.17 -1.82,2.07 -3.1,2.68 -0.34,0.17 -0.62,0.3 -0.9,0.55 -0.28,0.25 -0.7,0.24 -0.93,0.53 -0.29,0.35 0.54,0.37 0.76,0.32 0.3,-0.07 0.59,-0.27 0.86,-0.4 0.11,-0.05 0.22,-0.11 0.32,-0.18 0.05,-0.01 0.09,0.01 0.1,0.07 0.17,0.01 0.3,0.06 0.48,0.02 0.34,-0.08 0.61,-0.39 0.89,-0.58 0.05,0.32 -0.08,0.79 0.43,0.78 0.45,-0.01 0.91,-0.61 1.13,-0.9 0.2,-0.26 0.4,-0.77 0.7,-0.91 0.1,0.22 -0.22,0.69 -0.29,0.91 -0.11,0.35 -0.34,0.84 -0.16,1.21 0.38,0.05 0.65,-0.34 0.86,-0.58 0.07,-0.08 0.17,-0.26 0.28,-0.3 0.07,-0.02 0.09,-0.06 0.16,-0.01 0.13,0.09 0.06,0.43 0.04,0.54 -0.11,0.71 -0.52,1.07 -1.08,1.46 -0.43,0.3 -0.9,0.55 -1.33,0.86 -0.16,0.12 -0.58,0.48 -0.22,0.65 0.13,0.06 0.48,0.02 0.61,-0.01 0.18,-0.04 0.4,-0.31 0.58,-0.28 0.08,0.2 -0.12,0.34 -0.07,0.5 0.04,0.16 0.35,0.11 0.47,0.09 0.1,-0.02 0.15,-0.09 0.27,-0.1 0.13,-0.01 0.26,0.09 0.39,0.11 0.31,0.04 0.47,-0.17 0.65,-0.37 -0.13,0.33 -0.45,0.62 -0.68,0.88 -0.19,0.21 -0.36,0.44 -0.56,0.64 -0.08,0.08 -0.15,0.11 -0.25,0.17 -0.54,0.34 -1.02,0.77 -1.57,1.1 -0.6,0.36 -1.26,0.59 -1.89,0.9 -0.31,0.15 -0.6,0.34 -0.92,0.47 -0.15,0.06 -0.31,0.1 -0.47,0.14 -0.07,-0.05 -0.13,-0.1 -0.2,-0.14 -0.23,-0.17 -0.5,-0.28 -0.72,-0.46 -0.11,-0.09 -0.19,-0.22 -0.31,-0.3 -0.09,-0.02 -0.17,-0.06 -0.25,-0.11 -0.07,-0.07 -0.12,-0.15 -0.15,-0.23 -0.1,-0.09 -0.75,-0.38 -0.47,-0.64 0.11,-0.1 0.34,0.02 0.45,0.03 0.19,0.02 0.38,0.02 0.56,-0.05 -0.03,-0.2 -0.47,-0.49 -0.61,-0.62 -0.26,-0.24 -0.48,-0.48 -0.52,-0.83 -0.01,-0.07 -0.07,-0.34 -0.01,-0.4 0.14,-0.11 0.2,0.06 0.33,0.08 0.07,0.01 0.4,-0.01 0.45,-0.07 0.05,-0.07 0.04,-0.18 -0.01,-0.28 0.25,0.23 0.77,0.29 1.05,0.16 -0.06,-0.19 -0.27,-0.47 -0.4,-0.64 -0.22,-0.26 -0.54,-0.43 -0.83,-0.6 -0.37,-0.22 -0.49,-0.61 -0.54,-1.05 -0.03,-0.26 -0.14,-0.74 0.29,-0.59 0.03,0.35 0.61,0.78 0.95,0.58 -0.2,-0.25 -0.35,-0.45 -0.51,-0.73 -0.09,-0.16 -0.23,-0.33 -0.32,-0.49 -0.37,-0.62 -0.6,-1.33 -0.97,-1.96 -0,-0.04 -0.01,-0.11 -0,-0.05l0 0.04 -0 -0.01 0 0.02c0.02,0.5 -0.05,1.05 -0.19,1.54 -0.11,0.38 -0.34,0.7 -0.49,1.06 -0.08,0.19 -0.48,0.9 -0.43,1.1 0.23,0.07 0.53,-0.29 0.63,-0.48 0.06,0.14 0,0.29 0.05,0.44 0.03,0.1 0.12,0.11 0.14,0.21 0.07,0.27 -0.14,0.46 -0.28,0.65 -0.08,0.11 -0.14,0.24 -0.21,0.36 -0.1,0.17 -0.2,0.23 -0.32,0.38 -0.2,0.25 -0.4,0.67 -0.49,0.98 0.17,0.06 0.36,-0.03 0.5,-0.14 0.11,-0.09 0.22,-0.36 0.35,-0.39 0.13,-0.03 0.1,0.1 0.23,0.09 0.15,-0 0.2,-0.08 0.32,-0.15 0.13,0.3 0.05,0.7 -0.04,1 -0.04,0.15 -0.1,0.25 -0.19,0.38 -0.08,0.12 -0.3,0.3 -0.31,0.41 0.23,0.04 0.36,-0.02 0.54,-0.14 0.04,0.12 0.08,0.32 0.06,0.45 -0.03,0.23 -0.17,0.26 -0.3,0.42 -0.12,0.14 -0.14,0.29 -0.24,0.44 -0.16,0.22 -0.42,0.42 -0.63,0.57 -0.45,0.32 -0.79,0.74 -1.23,1.06 -0.21,0.16 -0.41,0.35 -0.61,0.52 -0.11,0.09 -0.2,0.11 -0.22,0.26 0.25,0.07 0.7,-0.02 0.94,-0.1 0.19,-0.06 0.21,-0.13 0.39,-0.11 0.08,0.01 0.13,0.07 0.26,0.07 0.28,0 0.66,-0.28 0.9,-0.42 0.09,-0.05 0.19,-0.1 0.26,-0.17 0.11,-0.1 0.12,-0.26 0.25,-0.35 0.26,0.64 -0.3,1.39 -0.66,1.85 -0.16,0.2 -0.24,0.46 -0.41,0.65 -0.12,0.13 -0.41,0.25 -0.42,0.43 0.15,0.03 0.42,0.02 0.56,-0.05 0.22,-0.11 0.27,-0.3 0.56,-0.28 0.29,0.02 0.24,0.09 0.26,0.39 0.02,0.3 0.07,0.4 -0.12,0.62 -0.21,0.24 -0.54,0.29 -0.72,0.52 -0.13,0.16 -0.12,0.34 -0.25,0.51 -0.18,0.24 -0.41,0.37 -0.6,0.59 -0.18,0.21 -0.37,0.42 -0.53,0.64 -0.2,0.27 -0.3,0.61 -0.52,0.86 -0.24,0.28 -0.43,0.57 -0.64,0.9 -0.13,0.19 -0.37,0.4 -0.39,0.65 -0.03,0.29 0.09,0.22 0.34,0.2 0.51,-0.05 0.88,-0.43 1.29,-0.72 0.18,0.03 0.36,0.04 0.54,0.04 0.21,0 0.45,0.03 0.65,-0.02 0.02,-0 0.04,-0.01 0.05,-0.02 -0.06,0.08 -0.13,0.16 -0.17,0.23 -0.29,0.37 -0.59,0.66 -0.81,1.08 -0.26,0.49 -0.83,1 -1.33,1.25 -0.21,0.1 -0.56,0.2 -0.52,0.55 0.24,0.04 0.57,0 0.79,-0.08 0.28,-0.1 0.49,-0.43 0.8,-0.41 0.03,0.2 -0.24,0.27 -0.2,0.47 0.37,0.1 0.57,-0.31 0.89,-0.3 0.12,0.28 -0.04,0.56 -0.27,0.8 -0.34,0.13 -0.68,0.26 -1.06,0.36 -1.12,0.3 -2.24,0.62 -3.36,0.95 -0.03,-0.01 -0.06,-0.02 -0.09,-0.03 -0.08,-0.03 -0.32,-0.09 -0.38,-0.17 -0.12,-0.17 0.05,-0.06 0.07,-0.2 0.06,-0.04 0.08,-0.1 0.06,-0.18 -0.06,-0.05 -0.12,-0.11 -0.18,-0.16 -0.29,-0.33 -0.42,-0.93 -0.53,-1.36 -0.08,-0.31 0.04,-0.91 -0.27,-1.08 0.62,0.36 1.23,0.31 1.92,0.32 0.09,0 0.83,0.11 0.68,-0.18 -0.12,-0.22 -0.92,-0.19 -1.08,-0.23 -0.23,-0.05 -0.42,-0.07 -0.64,-0.1 -0.2,-0.02 -0.23,-0.05 -0.29,-0.27 -0.08,-0.32 -0.09,-0.47 -0.29,-0.75 -0.1,-0.13 -0.27,-0.32 -0.23,-0.49 0.27,-0.05 0.56,0.05 0.81,-0.03 0.14,-0.6 -0.6,-0.9 -0.79,-1.37 0.11,-0.08 0.44,-0.08 0.59,-0.13 0.1,-0.03 0.36,-0.1 0.4,-0.2 0.05,-0.15 -0.13,-0.24 -0.22,-0.31 -0.17,-0.14 -0.36,-0.26 -0.48,-0.45 -0.12,-0.19 -0.06,-0.22 -0.1,-0.44 -0.02,-0.12 -0.1,-0.21 -0.12,-0.32 -0.07,-0.45 0.29,-0.6 -0.09,-1.02l0 -1.01c-0.02,0.09 -0.07,0.16 -0.09,0.25 -0.08,0.34 -0.11,0.75 -0.12,1.1 -0,0.15 0.07,0.44 0.01,0.58 -0.05,0.11 -0.13,0.08 -0.19,0.19 -0.1,0.16 -0.02,0.43 0.14,0.5 0.29,0.13 0.36,-0.1 0.35,0.31 -0,0.11 0.02,0.2 -0.02,0.3 -0.05,0.12 -0.17,0.17 -0.19,0.3 -0.02,0.12 0.02,0.19 -0.04,0.31 -0.03,0.06 -0.14,0.14 -0.18,0.19 -0.16,0.19 -0.21,0.44 -0.37,0.62 -0.19,0.21 -0.52,0.18 -0.61,0.48 0.21,0.06 0.6,0.06 0.79,-0.04 0.03,0.1 0,0.21 0.02,0.31 0.02,0.09 0.09,0.1 0.09,0.21 0.01,0.22 -0.38,0.61 -0.5,0.76 -0.22,0.28 -0.49,0.65 -0.81,0.82 -0.36,0.19 -0.85,0.14 -1.09,0.59 0.3,0.06 0.7,0.02 0.99,-0.08 0.17,-0.07 0.43,-0.44 0.6,-0.4 -0.11,0.24 -0.13,0.29 0.18,0.29 -0.03,0.3 0.01,0.62 0.07,0.93 -0.02,0.03 -0.04,0.05 -0.05,0.08 -0.25,0.4 -0.56,0.76 -0.86,1.11 0.11,0.08 0.27,0.03 0.43,-0.04 -0.02,0.09 -0.04,0.19 -0.06,0.28l-0 0.02c-0.11,-0.03 -0.21,-0.06 -0.32,-0.09 -0.09,-0.03 -0.19,-0.05 -0.28,-0.08l0.05 0.02c0.17,0.08 0.36,0.17 0.54,0.25 -0.01,0.05 -0.01,0.11 -0.02,0.16 -0.05,0.02 -0.09,0.03 -0.14,0.05 0.04,-0 0.09,-0 0.13,-0 -0.02,0.22 -0.04,0.44 -0.05,0.66 -0.1,-0.08 -0.2,-0.15 -0.31,-0.22 0.06,0.11 0.14,0.21 0.21,0.32 -0.67,0.2 -1.33,0.41 -2,0.61 -0.2,0.06 -0.41,0.12 -0.61,0.19 -0.11,-0.1 -0.23,-0.19 -0.43,-0.25 -0.43,-0.14 -0.87,-0.21 -1.33,-0.21 0.51,0.13 1.04,0.29 1.51,0.53 -1.63,0.51 -3.23,1.08 -4.84,1.65 -0.03,-0.03 -0.05,-0.06 -0.08,-0.1 -0.13,-0.14 -0.22,-0.09 -0.36,-0.18 -0.26,-0.16 -0.16,-0.58 -0.39,-0.79 -0.2,-0.19 -0.49,-0.31 -0.59,-0.59 0.33,-0.13 0.83,0.17 1.2,0.19 0.21,0.01 0.58,0.06 0.78,-0.03 -0.2,-0.21 -0.52,-0.23 -0.69,-0.51 -0.11,-0.18 -0.13,-0.4 -0.2,-0.58 -0.09,-0.22 -0.28,-0.39 -0.38,-0.61 -0.07,-0.15 -0.06,-0.44 -0.21,-0.54 0.02,-0.14 0.39,-0.06 0.5,-0.08 0.2,-0.03 0.42,-0.11 0.59,-0.22 -0.09,-0.1 -0.22,-0.11 -0.33,-0.18 -0.16,-0.09 -0.28,-0.22 -0.37,-0.38 -0.14,-0.25 -0.06,-0.29 -0.01,-0.53 0.04,-0.2 -0.08,-0.32 -0.14,-0.5 -0.08,-0.26 -0.05,-0.55 -0.05,-0.82l-0.3 -0.41c-0.23,0.18 -0.1,0.81 -0.1,1.05 0,0.16 0.03,0.34 -0.02,0.49 -0.07,0.23 -0.22,0.2 -0.34,0.35 -0.18,0.2 -0.14,0.51 -0.35,0.7 -0.14,0.13 -0.44,0.14 -0.4,0.43 0.24,0.06 0.6,0.07 0.76,-0.15 -0.15,0.26 -0.15,0.56 -0.34,0.81 -0.11,0.13 -0.19,0.2 -0.23,0.38 -0.04,0.17 -0.01,0.27 -0.16,0.4 -0.1,0.09 -0.19,0.06 -0.27,0.21 -0.03,0.06 -0.04,0.17 -0.07,0.22 -0.05,0.07 -0.07,0.05 -0.14,0.11 -0.14,0.11 -0.32,0.17 -0.48,0.27 -0.17,0.1 -0.29,0.26 -0.47,0.34 0.24,-0.02 0.41,-0.01 0.63,-0.11 0.2,-0.09 0.3,-0.21 0.48,-0.13 0.05,0.02 0.07,0.1 0.13,0.12 0.07,0.03 0.17,0.01 0.25,0.01 0.15,-0.01 0.19,0.01 0.31,-0.1 0.08,-0.07 0.07,-0.19 0.18,-0.2 0.02,0.17 -0.12,0.23 -0.18,0.36 -0.06,0.14 -0.06,0.28 -0.14,0.42 -0.12,0.23 -0.33,0.36 -0.54,0.52 -0.1,0.07 -0.18,0.08 -0.27,0.19 -0.09,0.11 -0.15,0.24 -0.24,0.32l-0.14 0.07c-0.07,0.04 -0.12,0.12 -0.19,0.17 -0.19,0.12 -0.43,0.14 -0.6,0.28 0.5,0 0.93,-0.13 1.38,-0.3 0.05,0.22 0.03,0.26 0.2,0.42 0.02,0.02 0.04,0.04 0.07,0.06l-0.32 0.12c-0.7,0.25 -1.37,0.41 -2.04,0.53l-0.62 -0z"/>
   <path class="fil1" d="M46.27 39.51l0 7.25c-0.61,-0.14 -1.22,-0.28 -1.82,-0.4 -0.47,-0.09 -1.06,0.01 -1.54,0.01 -0.58,0 -1.16,0 -1.74,0 -1.3,0 -2.69,-0.16 -4.51,0.19 -0.53,-0.3 -1.02,-0.59 -1.52,-0.93 -0.39,-0.26 -0.75,-0.42 -1.09,-0.75 -0.24,-0.24 -0.43,-0.43 -0.72,-0.6 -0.93,-0.56 -1.89,-1.17 -2.86,-1.64 -0.5,-0.24 -0.97,-0.51 -1.38,-0.89 -0.28,-0.26 -0.34,-0.54 -0.55,-0.81 0.56,0.37 1.28,0.52 1.92,0.69 0.79,0.21 1.57,0.43 2.36,0.65 0.56,0.15 0.9,0.21 1.31,0.6 0.36,0.34 0.72,0.71 1.22,0.85 0.62,0.17 1.41,0.03 2.05,0.03 1.15,0 2.45,-0.16 3.57,0.04 0.51,0.09 4.24,1.09 4.27,0.53 -0.92,-0.87 -2.03,-1.52 -2.95,-2.39 -0.63,-0.6 -1.04,-1.42 -1.7,-1.97 -0.63,-0.53 -1.49,-1.08 -2.24,-1.42 -0.67,-0.3 -1.4,-0.83 -2,-1.26 0.59,-0.16 1.08,-0.36 1.71,-0.41 1.02,-0.08 2.03,-0.3 3.05,-0.38 0.65,-0.05 0.85,0.1 1.23,0.56 0.49,0.59 1.32,1.18 2.01,1.5 0.41,0.19 0.85,0.32 1.26,0.54 0.23,0.12 0.45,0.28 0.68,0.41z"/>
  </g>
 </g>
</svg>
