<?xml version="1.0" encoding="UTF-8"?>
<!DOCTYPE svg PUBLIC "-//W3C//DTD SVG 1.1//EN" "http://www.w3.org/Graphics/SVG/1.1/DTD/svg11.dtd">
<!-- Creator: CorelDRAW -->
<svg xmlns="http://www.w3.org/2000/svg" xml:space="preserve" width="6.37845in" height="2.37802in" version="1.1" style="shape-rendering:geometricPrecision; text-rendering:geometricPrecision; image-rendering:optimizeQuality; fill-rule:evenodd; clip-rule:evenodd"
viewBox="0 0 330.65 123.27"
 xmlns:xlink="http://www.w3.org/1999/xlink"
 xmlns:xodm="http://www.corel.com/coreldraw/odm/2003">
 <defs>
  <style type="text/css">
   <![CDATA[
    .fil0 {fill:#65382E}
   ]]>
  </style>
 </defs>
 <g id="Layer_x0020_1">
  <metadata id="CorelCorpID_0Corel-Layer"/>
  <path class="fil0" d="M14.75 56.12c0.08,-1.75 -0.29,-3.6 0.31,-5.27 0.2,-0.54 0.42,-1.11 0.66,-1.67 -0.04,0.47 -0.07,0.95 -0.07,1.44 0,0.76 0.03,1.53 0,2.29 -0.03,0.72 -0.35,0.96 -0.48,1.57 -0.18,0.81 -0.09,1.45 -0.42,2.28 -0.11,0.29 -0.24,0.58 -0.37,0.88 0.15,-0.5 0.34,-0.92 0.37,-1.53zm315.9 26.9l0 40.25 -330.65 0 0 -40.25 0 -4.21 0 -21.22c1.37,0.22 2.63,0.54 4.11,0.57 0.08,0 0.16,0.01 0.24,0.01 -0.59,-1.56 -1.34,-3.44 -2.41,-4.44 -0.62,-0.57 -1.1,-0.69 -1.49,-1.51 -0.2,-0.43 -0.31,-0.87 -0.45,-1.3l0 -0.13c0.9,0.73 1.8,1.48 2.44,2.45 0.46,0.69 0.99,1.48 1.37,2.19 0.37,0.68 0.51,1.82 1.28,2.16 0.22,-0.35 -0,-0.49 -0.1,-0.88 -0.37,-1.42 -1.12,-2.75 -1.43,-4.24 -0.46,-2.24 -1.15,-4.53 -2.48,-6.43 0.75,0.85 1.35,1.74 1.8,2.77 0.67,1.52 1.86,2.58 2.75,3.99 0.39,0.61 0.84,1.28 1.1,1.94 0.23,0.57 0.13,1.06 0.25,1.62 0.11,0.53 0.29,1.58 0.8,1.76 0.35,-1.47 0.7,-2.6 1.49,-3.84 0.62,-0.98 1.19,-1.98 1.78,-2.98 -0.26,0.76 -0.39,1.59 -0.44,2.27 -0.06,0.73 -0.39,4.83 0.36,5.03 1.16,-4.04 2.92,-7.71 4.99,-11.28 0.08,-0.52 0.17,-1.05 0.26,-1.58 0.15,-0.91 0.67,-1.78 0.83,-2.63 0.18,-0.92 -0,-1.72 0.46,-2.64 -0.08,1.47 -0.09,2.95 -0.09,4.43 0.82,-1.2 2.09,-2.21 3.26,-3.08 1.13,-0.84 2.47,-1.64 3.96,-1.48 -1.6,-0.2 -4.24,3.26 -5.2,4.23 -0.65,0.66 -1.37,1.24 -2.01,1.89 0.02,1.6 0.05,3.2 0.05,4.79 0,1.77 -0.02,3.28 -0.35,4.97 -0.18,0.91 -0.09,1.82 -0.11,2.75 -0.09,-1.83 0.65,-3.1 2.06,-4.21 0.55,-0.44 1.16,-0.77 1.73,-1.17 0.4,-0.28 0.6,-0.5 0.77,-0.73l-0.19 -0.39c-0.32,-0.69 -1.33,-1.44 -1.22,-2.24 0.83,-0.11 1.72,0.78 2.48,1.57 1.23,-0.8 2.82,-0.65 4.22,-0.93 -0.67,0.32 -1.29,0.73 -1.87,1.21 0.22,0.18 0.44,0.42 0.64,0.65 0.68,0.8 1.19,1.46 1.69,2.39 0.3,0.56 0.52,1.58 1.41,1.43 0.3,-0.73 0.06,-1.88 0.07,-2.66 0.01,-1.76 0.14,-3.4 -0.43,-5.1 -0.74,-2.2 -1.41,-4.07 -1.39,-6.41 0.01,-0.75 -0.14,-1.61 -0.03,-2.35 0.13,-0.93 0.66,-1.36 1.07,-2.15 0.45,-0.86 0.82,-3.65 2.08,-3.64 0.48,0.99 -0.8,2.99 -0.85,4.08 -0.1,1.8 0.04,3.63 0.02,5.43 -0.02,1.57 0.32,3.13 0.43,4.7 0.12,1.73 1.1,3.55 0.95,5.28 -0.03,-1.13 0.01,-2.19 0.24,-3.32 0.27,-1.38 0.67,-4.27 1.97,-5.15 0.57,1.6 -1.02,4.67 1.21,5.36 0.96,0.3 1.43,-0.23 1.64,1.13 0.17,1.13 -0.29,2.33 0.07,3.44 0.49,-0.11 0.53,-1.31 0.72,-1.79 0.73,-1.88 1.88,-3.62 2.74,-5.44 0.85,-1.79 1.67,-3.63 2.82,-5.26 0.92,-1.3 2.15,-2.21 3.16,-3.42 1.74,-2.09 4.21,-4.16 6.96,-4.55 -1.35,0.39 -2.7,2.1 -3.49,2.83 -1.2,1.09 -2.23,2.07 -3.11,3.46 -0.83,1.31 -1.16,2.75 -1.79,4.16 -1.51,3.39 -3.57,7.5 -2.56,11.35 0.9,0 1.2,-0.64 1.75,-1.21 0.38,-0.39 0.97,-0.75 1.29,-1.13l0.53 -1.37c0.31,-0.67 0.44,-1.41 1.13,-1.71 0.78,-0.34 2.32,0.05 3.18,0.02 1.74,-0.07 2.63,-1.53 4.24,-1.81 -0.75,1.28 -2.15,2.02 -2.88,3.39 -0.52,0.98 -0.67,2.18 -1.39,3.03 0.76,-0.48 2.04,-2.02 2.98,-1.86 0.21,0.75 -0.1,1.52 0.07,2.28 1.56,-0.39 2.78,-2.72 3.98,-3.74 1.56,-1.32 3.1,-1.83 5.04,-2.36 1.77,-0.48 3.5,-0.83 5.29,-1.21 0.94,-0.2 2.3,-0.35 3.52,-0.69 -1.48,0.86 -2.92,1.81 -4.37,2.71 -1.17,0.73 -5.68,3.02 -6.14,5.12l0.07 -0.02c1.57,-0.52 2.29,-1.6 4.01,-1.07 0.24,0.08 0.47,0.17 0.69,0.28 0.75,-0.02 1.51,0.11 2.26,0.05 0.87,-0.07 5.06,-1.44 5.33,-0.52 0.31,1.04 -1.53,2.64 -2.04,3.4 -0.22,0.33 -0.42,0.68 -0.63,1.02 1.2,0.65 2.51,1.01 4.11,1.3 3.22,0.59 6.78,1.1 10.05,1.21 4.17,0.14 8.25,1.07 12.34,1.86 0.97,-0.97 1.93,-2.01 3.28,-2.32 1.61,-0.37 2.43,0.25 3.77,-1.07 0.98,-0.96 2.02,-1.78 3.31,-2.29 1.74,-0.68 3.67,0.06 5.45,-0.59 -0.92,1.15 -2.21,2.64 -2.63,4.02 -0.17,0.54 -0.04,1.07 -0.2,1.62 -0.17,0.63 -0.57,1 -0.27,1.79 0.87,-0.44 0.95,-1.62 1.5,-2.33 0.79,-1.01 1.08,-1.63 1.61,-2.8 0.36,-0.81 1.27,-3.12 2.19,-3.24 0.08,0.48 0.45,0.74 0.56,1.17 0.25,0.97 0.14,1.32 1.12,1.87 0.59,0.33 1.28,0.35 1.83,0.69 0.64,0.4 1.15,1.11 1.7,1.57 1.11,0.92 2.48,1.11 3.66,1.7 0.68,0.34 1.38,0.72 1.91,1.27 0.4,0.42 0.49,0.96 1.08,1.09 0.33,-0.92 0.07,-2.9 -0.72,-3.72 0.91,0.65 1.79,0.78 3,1.15 1.5,0.45 3.09,1.17 4.4,1.98 1.41,0.87 3.54,2.77 4.6,4.67 1.98,-0.28 3.84,-1.02 5.83,-1.31 2.33,-0.34 4.95,0.07 7.31,0.04 3.82,-0.05 7.8,-1.29 11.51,-2.26 2.33,-0.61 5.3,-1.09 7.7,-1.22 1.15,-0.06 2.31,0.13 3.46,0.08 1.64,-0.07 3.15,-0.67 4.77,-0.76 0.99,-0.05 1.92,-0.12 2.84,-0.2 0.44,-0.41 0.7,-0.87 0.97,-1.44 0.6,-1.24 0.76,-1.69 1.84,-2.81 0.9,-0.94 1.8,-1.6 3.08,-1.86 0.45,-0.09 0.9,0.04 1.35,-0.06 0.55,-0.12 1.03,-0.59 1.58,-0.78 1.6,-0.55 3.38,-0.91 4.93,-1.55 1.88,-0.78 2.9,-2.65 4.71,-3.6 1.51,-0.79 2.9,-1.81 4.34,-2.69 2.28,-1.39 3.56,-1.58 6.13,-0.84 2.45,0.7 4.87,1.94 6.77,3.68 1.3,1.19 1.88,2.77 3.39,3.86 0.91,0.66 1.22,1.35 1.94,2.18 0.61,0.7 1.17,1.26 1.61,2.05 0.33,0.59 0.48,1.24 1.01,1.71 0.59,0.52 1.29,0.64 1.76,1.32 -0.1,-1.43 0.06,-1.71 -0.94,-2.68 -0.75,-0.72 -0.98,-1.58 -1.71,-2.29 -0.8,-0.77 -1.35,-1.1 -0.14,-1.71 1.11,-0.56 1.75,-0.86 3,-0.91 1.04,-0.05 1.85,-0.78 2.97,-0.5 0.66,0.16 0.85,0.62 1.32,1.05 0.74,0.68 1.66,1.22 2.44,1.85 2.13,1.71 3.41,3.57 4.45,6.18 0.49,1.24 0.83,1.82 1.75,2.45 0.48,0.06 0.96,0.13 1.44,0.22 1.92,0.33 3.87,-0.13 5.78,0.21 1.59,0.29 2.86,0.64 4.49,0.63 5.65,-0.04 11.31,0 16.96,0 2.92,0 5.82,-0.22 8.7,-0.58 0.21,-0.34 0.26,-0.77 0,-1.34 -0.2,-0.45 -1.06,-0.77 -1.52,-1.22 -0.74,-0.73 -0.68,-0.88 -0.88,-1.89 -2.03,0.75 -3.97,1.35 -6.22,1.35 0.77,-0.63 1.85,-0.74 2.69,-1.28 0.33,-0.21 0.57,-0.56 0.87,-0.76l0.63 -0.31c0.4,-0.39 0.69,-0.98 1.08,-1.45 0.39,-0.47 0.76,-0.52 1.2,-0.84 0.97,-0.7 1.89,-1.32 2.44,-2.33 0.36,-0.67 0.35,-1.28 0.62,-1.91 0.24,-0.56 0.91,-0.85 0.8,-1.6 -0.52,0.07 -0.46,0.58 -0.82,0.9 -0.54,0.49 -0.73,0.41 -1.39,0.44 -0.34,0.02 -0.8,0.09 -1.11,-0.04 -0.27,-0.11 -0.37,-0.46 -0.6,-0.56 -0.83,-0.34 -1.28,0.2 -2.16,0.6 -1,0.45 -1.78,0.4 -2.85,0.48 0.8,-0.34 1.37,-1.07 2.12,-1.51 0.7,-0.42 1.52,-0.72 2.15,-1.2 0.33,-0.25 0.39,-0.15 0.63,-0.48 0.16,-0.22 0.17,-0.7 0.32,-0.97 0.37,-0.65 0.76,-0.54 1.22,-0.92 0.67,-0.57 0.55,-1 0.72,-1.79 0.18,-0.81 0.55,-1.11 1.04,-1.7 0.89,-1.09 0.86,-2.45 1.54,-3.63 -0.71,1 -2.34,0.98 -3.43,0.7 -0.18,-1.31 1.18,-1.38 1.79,-1.96 0.92,-0.87 0.77,-2.25 1.57,-3.14 0.58,-0.65 1.24,-0.54 1.55,-1.57 0.21,-0.68 0.07,-1.52 0.07,-2.22 -0,-1.1 -0.58,-3.94 0.46,-4.74l1.37 1.83c-0,1.21 -0.16,2.5 0.21,3.67 0.27,0.85 0.8,1.38 0.61,2.27 -0.23,1.08 -0.6,1.25 0.04,2.37 0.41,0.72 0.96,1.3 1.66,1.72 0.5,0.3 1.11,0.34 1.51,0.81 -0.75,0.52 -1.77,0.87 -2.66,1 -0.48,0.07 -2.16,-0.28 -2.24,0.35 0.71,0.42 0.66,1.74 0.97,2.42 0.44,0.98 1.29,1.75 1.7,2.76 0.34,0.83 0.43,1.81 0.92,2.62 0.76,1.27 2.2,1.36 3.1,2.29 -0.89,0.37 -2.53,0.17 -3.49,0.11 -1.62,-0.1 -3.87,-1.43 -5.38,-0.86 0.43,1.27 1.73,1.83 2.64,2.67 1.04,0.95 0.59,2.86 1.77,3.57 0.64,0.38 1.04,0.15 1.62,0.8 0.57,0.63 0.88,1.12 1.64,1.56 0.76,0.44 3.92,0.79 4.11,1.86 1.23,-1.51 2.22,-2.73 4.28,-3.58 1.12,-0.46 2.26,-0.54 3.38,-0.96 1.13,-0.42 2.21,-0.9 3.4,-1.15 2,-0.42 4.24,-0.18 6.23,0.32 0.49,0.12 0.99,0.3 1.48,0.49 -0.05,-0.07 -0.08,-0.15 -0.1,-0.24 0.76,-0.14 1.33,-0.5 2.03,-0.79 0.29,-0.12 0.59,-0.2 0.9,-0.27 -1.21,-1.42 -2.57,-2.69 -4.14,-3.63 -2.4,-1.45 -5.19,-2.31 -7.89,-3.01 2.04,-0.01 4.02,0.33 5.97,0.95 1.97,0.63 2.34,1.78 3.9,2.98 1.25,0.95 2.74,1.52 4.19,2.16 0.18,-0.08 0.35,-0.18 0.51,-0.29l0.62 -0.45c-0.55,-0.64 -1.03,-1.32 -1.14,-2.07 0.59,0.52 1.11,1.11 1.58,1.74 1.17,-0.87 2.38,-1.84 3.39,-2.78 0.32,-0.3 0.66,-0.63 0.99,-0.98 -0,-0.76 -0,-1.52 0.01,-2.28 -0.49,-0.66 -0.96,-1.32 -1.34,-1.96 0.47,0.31 0.92,0.65 1.37,0.99 0.03,-0.98 0.11,-1.97 0.22,-2.95 -0.2,0 -0.4,0.01 -0.6,0.02 0.21,-0.08 0.42,-0.16 0.62,-0.24 0.03,-0.24 0.05,-0.48 0.09,-0.72 -0.82,-0.39 -1.64,-0.77 -2.43,-1.15l-0.23 -0.1c0.43,0.1 0.86,0.21 1.28,0.35 0.48,0.15 0.96,0.29 1.44,0.43l0.01 -0.07c0.07,-0.42 0.16,-0.85 0.26,-1.27 -0.73,0.33 -1.44,0.57 -1.95,0.19 1.36,-1.58 2.79,-3.19 3.89,-4.99 0.08,-0.13 0.16,-0.25 0.24,-0.37 -0.25,-1.4 -0.42,-2.83 -0.3,-4.17 -1.36,-0.01 -1.28,-0.25 -0.8,-1.32 -0.77,-0.2 -1.91,1.49 -2.69,1.79 -1.3,0.49 -3.1,0.64 -4.45,0.38 1.08,-1.98 3.29,-1.76 4.91,-2.64 1.43,-0.77 2.67,-2.41 3.66,-3.69 0.55,-0.71 2.29,-2.46 2.25,-3.44 -0.02,-0.48 -0.32,-0.54 -0.4,-0.94 -0.09,-0.47 0.02,-0.92 -0.09,-1.39 -0.84,0.44 -2.62,0.48 -3.55,0.19 0.39,-1.38 1.88,-1.22 2.74,-2.18 0.72,-0.8 0.98,-1.93 1.68,-2.77 0.19,-0.23 0.68,-0.62 0.8,-0.87 0.26,-0.52 0.07,-0.83 0.18,-1.39 0.12,-0.61 0.67,-0.83 0.87,-1.37 0.18,-0.47 0.06,-0.89 0.08,-1.37 0.06,-1.86 -0.26,-0.83 -1.56,-1.41 -0.73,-0.32 -1.07,-1.55 -0.64,-2.27 0.29,-0.48 0.66,-0.33 0.87,-0.84 0.25,-0.62 -0.08,-1.9 -0.06,-2.59 0.04,-1.58 0.16,-3.42 0.54,-4.96 0.1,-0.4 0.33,-0.75 0.4,-1.14l0 4.53c1.7,1.87 0.12,2.57 0.42,4.58 0.08,0.52 0.43,0.92 0.52,1.46 0.16,1.01 -0.1,1.13 0.44,2 0.41,0.64 1,1.11 1.59,1.57l0 2.66c-0.09,0.03 -0.16,0.05 -0.23,0.07 -0.69,0.24 -2.16,0.2 -2.66,0.58 0.53,1.32 1.99,2.34 2.89,3.56l0 2.76c-0.98,0.09 -2.02,-0.19 -3,0.01 -0.18,0.76 0.6,1.61 1.04,2.21 0.93,1.26 0.95,1.92 1.33,3.38 0.18,0.68 0.29,0.94 0.64,1.08l0 2.15c-1.11,-0.2 -2.2,-0.55 -3.29,-1.18 1.41,0.76 0.87,3.48 1.21,4.87 0.44,1.77 0.95,4.22 2.08,5.76l0 4.95c-0.18,-0.09 -0.36,-0.18 -0.55,-0.26 -0.7,-0.29 -1.5,-0.45 -2.36,-0.54 0.32,0.49 0.51,1.07 0.73,1.71l0.02 0.05c0.17,0.08 0.33,0.17 0.48,0.27 0.67,0.42 1.18,1.13 1.68,1.78l0 28.81 0 4.21zm-50.41 -16.4c0.02,-0.07 0.06,-0.14 0.12,-0.21 0.23,-0.27 1.18,-0.26 1.88,-0.11 -0.67,0.11 -1.33,0.22 -2,0.32zm2.72 -0.44c-0.04,-0.9 0.02,-2.14 0.71,-2.57 0.55,-0.34 1.95,0.33 2.5,0.4 0.79,0.08 1.57,-0 2.36,0.09 0.64,0.07 1.28,0.35 1.92,0.36l-0.39 0.46c0.16,-0.16 0.32,-0.32 0.49,-0.46 0.05,-0 0.11,-0 0.16,-0.01 0.02,-0.05 0.04,-0.11 0.04,-0.16 2.01,-1.58 4.89,-2.15 7.31,-2.63 1.52,-0.31 3,-0.93 4.53,-1.17 1.1,-0.17 2.24,-0.08 3.35,-0.08 2.91,0.01 5.95,-0 8.8,0.67 0.2,0.31 0.4,0.61 0.59,0.92l0.09 0.14c-2.83,0.42 -5.92,0.14 -8.79,0.13 -2.32,-0.01 -3.93,0.73 -6.16,0.69 -2.38,-0.04 -4.54,1.08 -6.99,1.45 -3.53,0.53 -7.04,1.18 -10.53,1.76zm43.92 -20.84c-0.06,-0.04 -0.13,-0.08 -0.19,-0.11l-0.03 -0.12c0.27,0.02 0.45,0.11 0.65,0.24l-0.42 -0.01zm-3.1 -11.16c0.3,-0.02 0.59,-0.08 0.93,-0.19 0.53,-0.18 0.94,-0.74 1.55,-0.63 -0.15,0.65 -0.83,1.57 -1.13,2.25 -0.28,0.64 -0.66,1.17 -1.06,1.69 -0.04,-0.21 -0.07,-0.43 -0.09,-0.65 -0.06,-0.54 -0.06,-1.57 -0.19,-2.46zm-2.46 9.23c0.85,-0.4 1.68,-0.84 2.17,-0.48 0.35,0.26 -0.19,0.96 0.13,1.24 0.22,0.2 0.57,0.19 0.87,0.09 0.08,0.25 0.15,0.5 0.23,0.75 -0.05,0.11 -0.11,0.22 -0.17,0.33 -0.26,0 -0.52,-0 -0.77,0 -0.34,0.02 -0.67,0.08 -1,0.14 -0.5,-0.16 -1.01,-0.31 -1.52,-0.46l0 -0.38c-0,-0.41 0.02,-0.82 0.05,-1.22zm2.36 3.58c-0.38,0.84 -0.69,1.71 -1.07,2.5 -0.14,0.29 -0.31,0.59 -0.51,0.88 -0.21,-0.1 -0.41,-0.21 -0.59,-0.33l-0.22 -0.16c-0.03,-1.21 -0.03,-2.41 -0.03,-3.62 0.38,0 0.78,-0.01 1.2,-0.03 0.42,0.24 0.83,0.48 1.21,0.75zm-12.06 12.87c0.84,0.03 1.71,-0.05 2.19,-0.14 0.22,0.31 0.44,0.62 0.65,0.93 -0.73,-0.23 -1.44,-0.48 -2.17,-0.71 0.22,0.02 0.44,0.03 0.67,0.04 -0.45,0.03 -0.89,-0.02 -1.33,-0.11zm-289.17 -5.1c0.45,1.23 0.7,2.49 0.99,3.77 0.15,0.66 0.34,1.02 0.36,1.69 -1.52,-0 -3.04,-0 -4.56,0 -0.17,0 -0.33,-0 -0.5,-0 0.39,-0.72 0.81,-1.43 1.28,-2.1 0.76,-1.07 1.55,-2.25 2.43,-3.36zm298.83 -9.16l0.31 0.17 -0.31 0.09 0 -0.26z"/>
 </g>
</svg>
