<?xml version="1.0" encoding="UTF-8"?>
<!DOCTYPE svg PUBLIC "-//W3C//DTD SVG 1.1//EN" "http://www.w3.org/Graphics/SVG/1.1/DTD/svg11.dtd">
<!-- Creator: CorelDRAW -->
<svg xmlns="http://www.w3.org/2000/svg" xml:space="preserve" width="0.489362in" height="0.489362in" version="1.1" style="shape-rendering:geometricPrecision; text-rendering:geometricPrecision; image-rendering:optimizeQuality; fill-rule:evenodd; clip-rule:evenodd"
viewBox="0 0 360.34 360.34"
 xmlns:xlink="http://www.w3.org/1999/xlink"
 xmlns:xodm="http://www.corel.com/coreldraw/odm/2003">
 <defs>
  <style type="text/css">
   <![CDATA[
    .fil0 {fill:#555F97}
    .fil1 {fill:white}
   ]]>
  </style>
 </defs>
 <g id="Layer_x0020_1">
  <metadata id="CorelCorpID_0Corel-Layer"/>
  <g id="_2534272879568">
   <rect class="fil0" width="360.34" height="360.34" rx="24.55" ry="24.55"/>
   <g>
    <path class="fil1" d="M239.63 128.21c-10.74,7.4 -20.95,18.26 -28.93,27.6 -21.96,25.71 -40.79,55.48 -57.55,84.78l-4.06 7.1 -7.85 -101.57c-0.11,-1.69 -0.19,-3.38 -0.29,-5.05 -0.17,-2.61 -0.04,-5.76 0.08,-8.7 -5.38,1.18 -11.29,1.46 -16.62,1.49 -12.86,0.05 -26.06,1.78 -38.05,6.62 -9.93,4 -18.57,10 -24.92,18.7 -5.49,7.53 -8.91,15.94 -8.91,25.33 0,5.69 1.34,11.07 4.59,15.78 1.5,2.17 3.58,4.33 6.4,4.33 1.25,0 2.2,-0.46 3.08,-1.35 0.96,-0.97 1.29,-2.18 1.29,-3.52 0,-1.75 -1.99,-4.53 -3,-5.85 -3.4,-4.39 -7.07,-10.31 -7.07,-16.05 0,-11.22 6.34,-19.95 14.84,-26.72 13.43,-10.7 29.94,-14.47 46.84,-14.47l2.68 0 -0.18 2.68c-1.27,19.6 -4.48,39.03 -9.21,58.09 -3.85,15.49 -9.01,32.72 -16.86,46.69 -4.8,8.55 -11.36,18.17 -19.57,23.76 -3.99,2.71 -8.55,4.72 -13.46,4.72 -2.97,0 -6.13,-0.61 -8.98,-1.33 -2.4,-0.55 -5.39,-1.19 -7.89,-1.19 -1.89,0 -3.6,0.46 -5,1.76 -1.16,1.07 -1.84,2.32 -1.84,3.9 0,2.02 1.03,3.47 2.61,4.66 2.44,1.84 5.93,2.26 8.89,2.26 7.58,0 14.78,-2.4 21.35,-6.06 8.69,-4.84 15.93,-13.32 21.52,-21.39 8.79,-12.69 14.82,-29.22 19.21,-43.93 6,-20.11 9.69,-40.9 11.7,-61.79l0.22 -2.3 4.62 0.06 9.22 126.35 6.64 -11.65c11.54,-20.75 23.7,-41.62 37.17,-61.19 9.39,-13.65 19.73,-28.93 30.69,-41.36l12.51 -14.18 -8.36 16.96c-4.52,9.17 -7.8,23 -10.31,32.94l-9.48 37.59c-3.61,14.32 -7.51,29.2 -12.55,43.21 3.44,-0.8 6.96,-1.32 10.45,-1.32 4.69,0 9.44,0.44 14.1,0.99 4.65,0.55 9.54,1.03 14.23,1.03 2.46,0 5.12,-0.33 7.64,-0.71l0.38 -1.78c-3.34,0.46 -6.71,0.72 -10.07,0.72 -5.84,0 -11.75,-0.83 -17.45,-2.07l-2.48 -0.54 3.54 -15.61c1.09,-4.82 2.15,-9.68 3.37,-14.46l15.1 -58.95c4.7,-18.34 9.78,-37.03 15.99,-55.01z"/>
    <g>
     <path class="fil1" d="M292.13 77.93c0.06,0.59 0.1,1.16 0.08,1.75 -0.02,0.5 -0.05,0.99 -0.09,1.48 -0.07,0.98 -0.15,1.97 -0.22,2.95 -0.14,2.12 -0.27,4.23 -0.46,6.34 -0.06,0.6 -0.67,1.02 -1.24,0.94 -0.62,-0.08 -0.99,-0.64 -0.94,-1.24 0.18,-2.08 0.28,-4.16 0.42,-6.24 0.07,-0.98 0.17,-1.96 0.28,-2.94 0.11,-1.02 0.27,-2.04 0.37,-3.06 0.04,-0.4 0.39,-0.72 0.79,-0.77 0.32,-0.04 0.64,0.11 0.83,0.36 0.09,0.12 0.15,0.26 0.17,0.43l0 0z"/>
     <path class="fil1" d="M289.82 93.15c-0.09,1.18 -0.19,2.36 -0.3,3.54 -0.08,0.84 -0.15,1.68 -0.27,2.52 -0.15,1.03 -0.3,2.05 -0.48,3.07 -0.17,0.99 -0.36,1.96 -0.55,2.94 -0.36,1.81 -0.72,3.63 -1.07,5.44 -0.35,1.81 -0.67,3.64 -1.02,5.45 -1.43,7.45 -2.83,14.92 -4.71,22.27 -0.95,3.69 -1.88,7.38 -2.61,11.12 -0.36,1.84 -0.69,3.68 -1.06,5.51 -0.21,0.99 -0.43,1.98 -0.66,2.97 -0.23,0.97 -0.49,1.94 -0.75,2.91 -0.51,1.92 -1.1,3.81 -1.68,5.71 -0.53,1.73 -1.03,3.48 -1.55,5.21 -0.52,1.77 -0.98,3.55 -1.5,5.31 -0.27,0.9 -0.51,1.81 -0.79,2.69 -0.29,0.9 -0.57,1.82 -0.91,2.71 -0.34,0.9 -0.68,1.81 -1.06,2.7 -0.39,0.89 -0.78,1.77 -1.19,2.65 -0.84,1.77 -1.7,3.52 -2.56,5.28 -1.63,3.33 -3.24,6.67 -5.06,9.9 -0.97,1.71 -1.94,3.43 -2.94,5.12 -0.96,1.63 -1.9,3.28 -2.91,4.87 -1.03,1.6 -2.04,3.21 -3.17,4.73 -0.58,0.79 -1.14,1.61 -1.75,2.37 -0.64,0.8 -1.28,1.61 -1.92,2.41 -1.25,1.57 -2.55,3.08 -3.84,4.6 -1.14,1.34 -2.28,2.69 -3.45,4.01 -2.59,2.94 -5.28,5.81 -7.93,8.69 -1.16,1.26 -2.32,2.51 -3.52,3.73 -0.79,0.8 -1.58,1.6 -2.37,2.4 -0.75,0.76 -1.53,1.49 -2.3,2.24 -2.65,2.55 -5.42,4.98 -8.25,7.33 -0.91,0.76 -1.8,1.53 -2.73,2.26 -1.38,1.08 -2.76,2.17 -4.14,3.25 -0.86,0.68 -1.75,1.33 -2.63,1.99 -1.5,1.13 -3.01,2.25 -4.52,3.37 -0.59,0.44 -1.46,0.33 -1.91,-0.27 -0.44,-0.59 -0.33,-1.47 0.26,-1.91 2.09,-1.55 4.17,-3.12 6.25,-4.68 1.55,-1.16 3.04,-2.38 4.55,-3.58 1.47,-1.16 2.9,-2.39 4.33,-3.6 0.57,-0.48 1.12,-0.98 1.68,-1.47 0.67,-0.59 1.35,-1.17 2,-1.78 0.9,-0.84 1.83,-1.66 2.71,-2.52 0.8,-0.79 1.6,-1.57 2.4,-2.35 1.35,-1.38 2.69,-2.77 4,-4.18 1.26,-1.35 2.48,-2.7 3.72,-4.07 2.53,-2.8 5.05,-5.59 7.44,-8.51 2.19,-2.68 4.37,-5.36 6.44,-8.12 0.46,-0.61 0.92,-1.2 1.35,-1.83 0.52,-0.76 1.08,-1.5 1.58,-2.28 0.5,-0.8 1.02,-1.6 1.53,-2.4 0.46,-0.71 0.87,-1.45 1.3,-2.17 1.86,-3.23 3.71,-6.46 5.55,-9.7 1.86,-3.28 3.56,-6.65 5.33,-9.98 0.9,-1.7 1.83,-3.39 2.74,-5.08 0.43,-0.81 0.84,-1.65 1.25,-2.49 0.39,-0.77 0.72,-1.59 1.08,-2.4 0.19,-0.42 0.34,-0.87 0.51,-1.31 0.15,-0.4 0.32,-0.8 0.46,-1.21 0.3,-0.88 0.62,-1.75 0.9,-2.64 0.58,-1.79 1.16,-3.57 1.74,-5.36 0.68,-2.08 1.38,-4.17 2.06,-6.26 0.34,-1.04 0.67,-2.08 0.99,-3.13 0.27,-0.85 0.5,-1.72 0.74,-2.58 0.21,-0.83 0.44,-1.66 0.63,-2.5 0.2,-0.92 0.4,-1.84 0.58,-2.75 0.37,-1.84 0.7,-3.68 1.1,-5.51 0.41,-1.87 0.83,-3.74 1.31,-5.6 0.49,-1.88 0.99,-3.75 1.48,-5.62 0.94,-3.66 1.81,-7.33 2.63,-11.01 0.84,-3.76 1.66,-7.52 2.45,-11.29 0.73,-3.5 1.46,-6.98 2.21,-10.47 0.19,-0.89 0.36,-1.77 0.53,-2.66 0.15,-0.77 0.29,-1.55 0.39,-2.33 0.27,-1.95 0.51,-3.9 0.73,-5.86 0.03,-0.31 0.34,-0.52 0.64,-0.48 0.15,0.02 0.28,0.1 0.36,0.21 0.09,0.12 0.13,0.27 0.12,0.43l0 0z"/>
     <path class="fil1" d="M250.76 156.29l0 0c0,-0.03 0,-0.07 0,-0.1 0,0.01 -0,0.03 -0,0.04 0,0.02 0,0.04 0,0.06l0 0zm0 0.03l0 0c0,-0.02 0,-0.04 0,-0.05 0,0.06 0,0.12 0,0.18 0,-0.01 0,-0.02 0,-0.03 0,-0.03 0,-0.06 0,-0.1l0 0zm2.79 45.35l0 0c-0.02,0.09 -0.05,0.18 -0.07,0.27 0.02,-0.09 0.05,-0.18 0.07,-0.27l0 0zm-6.98 -41.75l0 0c-0.02,0.08 -0.04,0.17 -0.07,0.25 0.03,-0.08 0.05,-0.17 0.07,-0.25l0 0zm4.06 -9.15l0 0c0.09,1.84 0.12,3.66 0.12,5.5 0,-0.01 0,-0.03 0,-0.04 0,-0.05 0,-0.09 0,-0.14 0,0.03 0,0.06 0,0.09 0,-0.01 0,-0.01 0,-0.02 0,0.05 0,0.1 -0,0.15 0,-0.01 0,-0.02 0,-0.03 0,0.01 0,0.02 0,0.03 0,0.01 0,0.02 0,0.03 0,0.02 0,0.05 0,0.07 0,0.04 0,0.07 0,0.11 0,-0.03 0,-0.05 0,-0.08 -0.01,0.96 -0.02,1.91 -0.03,2.87 0.01,-0.04 0.01,-0.08 0.01,-0.12 -0.04,2.22 -0.07,4.44 -0.08,6.66 -0.01,1.03 0.04,2.08 0.07,3.11 0.03,1 0.14,1.99 0.22,2.98 0.26,3.11 0.91,6.18 1.54,9.23 0.92,4.48 2.1,8.95 2.12,13.56 -0.02,1.28 -0.12,2.55 -0.34,3.81 -0.2,1.15 -0.48,2.28 -0.78,3.41 -0.32,1.17 -0.68,2.33 -1.06,3.49 -0.25,-0.85 -0.52,-1.7 -0.78,-2.55 -0.46,-1.51 -0.93,-3.02 -1.44,-4.52 -0.49,-1.46 -1.05,-2.9 -1.59,-4.35 -0.51,-1.37 -1.03,-2.74 -1.52,-4.11 -0.29,-0.79 -0.56,-1.57 -0.83,-2.37 -0.23,-0.66 -0.41,-1.33 -0.61,-2 -0.17,-0.69 -0.34,-1.37 -0.46,-2.07 -0.17,-0.92 -0.3,-1.84 -0.43,-2.77 -0.22,-1.59 -0.27,-3.2 -0.3,-4.8 0.06,-2.59 0.21,-5.17 0.56,-7.74 0.19,-1.41 0.36,-2.84 0.65,-4.24 0.28,-1.35 0.59,-2.7 0.91,-4.04 0.64,-2.3 1.33,-4.58 2.05,-6.85 0.35,-1.09 0.7,-2.17 1.03,-3.26 0.18,-0.59 0.36,-1.19 0.54,-1.77 0.07,-0.21 0.13,-0.43 0.19,-0.64 0.02,0.21 0.04,0.41 0.05,0.61 0.08,0.93 0.14,1.87 0.18,2.8l0 0zm-0.6 -5.79l0 0c0.01,0.02 0.01,0.03 0.01,0.06l0 0c-0,-0.02 -0.01,-0.03 -0.01,-0.06l0 0zm1.79 -0.92l0 0c-0.03,-0.04 -0.06,-0.09 -0.1,-0.14 -0.07,-0.1 -0.17,-0.21 -0.25,-0.26 -0.31,-0.19 -0.76,-0.4 -1.13,-0.2 -0.2,0.12 -0.37,0.21 -0.53,0.38 -0.16,0.16 -0.27,0.34 -0.38,0.53 -0.56,1.06 -0.9,2.21 -1.29,3.33 -0.22,0.64 -0.43,1.27 -0.66,1.9 -1.09,3.02 -2.26,6.02 -3.29,9.07 -0.52,1.55 -0.94,3.14 -1.36,4.72 -0.4,1.47 -0.64,2.99 -0.9,4.49 -0.27,1.51 -0.45,3.05 -0.58,4.58 -0.14,1.64 -0.13,3.29 -0.07,4.93 0.06,1.51 0.28,3.03 0.51,4.53 0.12,0.79 0.28,1.56 0.45,2.34 0.08,0.4 0.2,0.79 0.3,1.19 0.1,0.37 0.18,0.77 0.3,1.14 0.21,0.68 0.41,1.37 0.66,2.05 0.28,0.79 0.57,1.57 0.86,2.35 0.52,1.37 1.05,2.73 1.55,4.1 0.53,1.45 1.07,2.9 1.52,4.39 0.46,1.52 0.87,3.05 1.26,4.59 -0.03,-0.13 -0.07,-0.27 -0.1,-0.4 0.49,1.94 0.89,3.9 1.36,5.85 0.04,0.31 0.15,0.58 0.34,0.83 0.11,0.11 0.21,0.21 0.32,0.33 0,0 0,0 0.01,0 -0.12,0.34 -0.24,0.69 -0.36,1.03 -0.16,0.46 -0.2,0.93 -0.01,1.39 0.19,0.46 0.55,0.83 1.01,1.03 0.89,0.37 2.08,-0.04 2.42,-1 0.76,-2.16 1.52,-4.32 2.23,-6.5 0.7,-2.15 1.35,-4.34 1.79,-6.55 0.44,-2.21 0.6,-4.5 0.47,-6.75 -0.07,-1.15 -0.21,-2.28 -0.37,-3.41 -0.16,-1.04 -0.34,-2.08 -0.58,-3.11 -0.19,-0.83 -0.39,-1.68 -0.59,-2.51 -0.32,-1.36 -0.66,-2.71 -0.98,-4.06 -0.17,-0.72 -0.34,-1.43 -0.5,-2.15 -0.17,-0.82 -0.39,-1.63 -0.52,-2.45 -0.15,-0.9 -0.31,-1.8 -0.46,-2.69 -0.11,-0.68 -0.17,-1.36 -0.23,-2.05 -0.07,-0.66 -0.16,-1.33 -0.19,-2 -0.04,-1 -0.08,-1.98 -0.12,-2.97 -0.06,-1.34 -0.04,-2.67 -0.04,-4.01 0,-1.74 -0.01,-3.48 -0.03,-5.22 -0.03,-2.98 -0.19,-5.96 -0.65,-8.91 -0.12,-0.75 -0.27,-1.51 -0.48,-2.25 -0.09,-0.3 -0.17,-0.61 -0.3,-0.9 -0.09,-0.19 -0.19,-0.39 -0.3,-0.57l0 0z"/>
     <path class="fil1" d="M250.42 145.02c-0.16,1.31 -0.3,2.61 -0.43,3.93 -0.11,1.2 -0.22,2.39 -0.35,3.58 -0.14,1.27 -0.3,2.54 -0.46,3.8 -0.16,1.19 -0.34,2.37 -0.49,3.56 -0.12,1.01 -0.24,2.02 -0.3,3.04 -0.03,0.53 -0.07,1.07 -0.08,1.61 -0.01,0.53 -0.03,1.07 -0.04,1.6 0,-0.01 0,-0.03 0,-0.05 0.01,0.62 0.01,1.25 0.01,1.87 0,0.28 0.02,0.55 0.03,0.82 0.02,0.4 0.03,0.8 0.05,1.2 0.01,0.2 0.03,0.39 0.05,0.58 0.04,0.45 0.08,0.9 0.12,1.35 0.06,0.61 0.16,1.23 0.24,1.84 0.16,1.19 0.37,2.37 0.57,3.56 0.19,1.19 0.37,2.39 0.52,3.58 0.32,2.57 0.63,5.14 0.98,7.7 0.32,2.4 0.71,4.78 1.05,7.18 0.14,1.03 0.29,2.06 0.41,3.09 0.16,1.32 0.31,2.64 0.47,3.96 0.04,0.37 0.06,0.76 0.08,1.14 0.06,0.83 0.12,1.66 0.19,2.49 0.05,0.69 0.1,1.38 0.15,2.06 0.08,1.01 0.12,2.02 0.17,3.03 0.02,0.23 -0.02,0.44 -0.17,0.63 -0.14,0.18 -0.35,0.3 -0.59,0.33 -0.44,0.05 -0.93,-0.28 -0.96,-0.75 -0.06,-1.05 -0.11,-2.09 -0.19,-3.14 -0.06,-0.8 -0.12,-1.6 -0.18,-2.4 -0.06,-0.85 -0.13,-1.69 -0.19,-2.54 -0.02,-0.3 -0.04,-0.59 -0.08,-0.9 -0.18,-1.5 -0.36,-3.01 -0.53,-4.51 -0.06,-0.47 -0.14,-0.93 -0.2,-1.4 -0.1,-0.72 -0.21,-1.44 -0.31,-2.16 -0.16,-1.12 -0.34,-2.23 -0.5,-3.35 -0.2,-1.37 -0.39,-2.75 -0.58,-4.12 -0.15,-1.16 -0.29,-2.31 -0.42,-3.47 -0.14,-1.22 -0.27,-2.44 -0.45,-3.66 -0.18,-1.26 -0.36,-2.53 -0.56,-3.79 -0.1,-0.65 -0.2,-1.3 -0.3,-1.95 -0.1,-0.66 -0.17,-1.33 -0.26,-2 -0.03,-0.22 -0.04,-0.43 -0.05,-0.65 -0.04,-0.44 -0.08,-0.88 -0.11,-1.31 -0.05,-0.62 -0.05,-1.24 -0.06,-1.86 -0.04,-1.3 0.01,-2.61 0.07,-3.9 0.11,-2.4 0.48,-4.79 0.92,-7.14 0.46,-2.45 0.92,-4.89 1.2,-7.36 0.1,-0.83 0.18,-1.66 0.28,-2.49 0.1,-0.92 0.22,-1.85 0.33,-2.77 0.03,-0.25 0.27,-0.43 0.52,-0.4 0.12,0.02 0.23,0.08 0.3,0.18 0.07,0.1 0.11,0.21 0.09,0.34l0 0z"/>
     <path class="fil1" d="M300.95 163.29l0 0c0.01,-0.02 0.02,-0.04 0.03,-0.06 -0.01,0.01 -0.01,0.02 -0.01,0.03 -0.01,0.01 -0.01,0.02 -0.02,0.03l0 0zm-17.98 25.41l0 0c0.02,-0.02 0.03,-0.03 0.05,-0.05 -0.02,0.02 -0.03,0.03 -0.06,0.06 0,0 0,-0 0,-0l0 0zm-19.03 16.11l0 0c-0.06,0.03 -0.11,0.07 -0.17,0.1 0.06,-0.04 0.11,-0.07 0.17,-0.1l0 0zm12.5 -16.05l0 0c-0.78,0.95 -1.64,1.83 -2.49,2.71 -0.39,0.35 -0.77,0.71 -1.16,1.07 -0.37,0.33 -0.75,0.63 -1.12,0.95 -0.7,0.59 -1.42,1.15 -2.15,1.7 -2.12,1.6 -4.27,3.17 -6.42,4.73 0.46,-0.45 0.91,-0.9 1.36,-1.35 -0.05,0.05 -0.1,0.1 -0.15,0.15 0.81,-0.8 1.58,-1.63 2.34,-2.46 0.72,-0.79 1.39,-1.63 2.06,-2.47 1.27,-1.6 2.56,-3.2 3.86,-4.77 1.67,-2.03 3.33,-4.09 5.04,-6.08 0.55,-0.63 1.08,-1.26 1.63,-1.89 0.39,-0.46 0.81,-0.89 1.21,-1.34 0.86,-0.92 1.74,-1.82 2.62,-2.73 0.77,-0.75 1.53,-1.49 2.3,-2.24 0.35,-0.34 0.73,-0.66 1.09,-0.99 0.41,-0.38 0.83,-0.75 1.24,-1.13 0.53,-0.47 1.1,-0.91 1.64,-1.37 0.41,-0.34 0.83,-0.68 1.25,-1 0.01,-0.01 0.02,-0.01 0.03,-0.02 -0.7,0.96 -1.39,1.93 -2.1,2.89 -0.76,1.04 -1.53,2.06 -2.32,3.07 -0.8,1 -1.6,1.99 -2.39,2.99 -1.68,2.14 -3.3,4.32 -4.92,6.5 -0.78,1.05 -1.61,2.07 -2.44,3.08l0 0zm15.27 -12.36l0 0c-0.56,1.09 -1.17,2.16 -1.77,3.23 -0.37,0.59 -0.73,1.17 -1.1,1.76 -0.27,0.43 -0.55,0.83 -0.84,1.24 -0.47,0.66 -0.91,1.33 -1.41,1.97 -1.11,1.42 -2.3,2.77 -3.57,4.06 0.08,-0.08 0.15,-0.15 0.23,-0.22 -0.1,0.09 -0.19,0.18 -0.28,0.28 -0.01,0.01 -0.03,0.03 -0.04,0.03 0.01,-0.01 0.03,-0.02 0.04,-0.03 -1.34,1.31 -2.74,2.56 -4.26,3.66 -0.86,0.62 -1.73,1.19 -2.61,1.77 -1.11,0.73 -2.25,1.4 -3.38,2.08 -0.75,0.42 -1.5,0.83 -2.24,1.24 -0.98,0.55 -1.99,1.05 -2.99,1.55 -0.1,0.05 -0.21,0.1 -0.3,0.16 1.33,-0.92 2.66,-1.85 3.96,-2.81 1.07,-0.79 2.15,-1.57 3.15,-2.46 0.52,-0.45 1.03,-0.91 1.52,-1.39 0.52,-0.52 1.05,-1.04 1.55,-1.59 0.92,-1.01 1.8,-2.05 2.65,-3.13 0.81,-1.03 1.59,-2.09 2.39,-3.14 1.57,-2.1 3.17,-4.16 4.79,-6.21 1.57,-2 3.09,-4.05 4.6,-6.1 0.74,-0.99 1.46,-2.02 2.24,-2.99 0.72,-0.88 1.46,-1.73 2.25,-2.55 -0.38,0.75 -0.74,1.52 -1.09,2.28 -0.61,1.31 -1.2,2.63 -1.81,3.93 -0.52,1.15 -1.09,2.27 -1.67,3.38l0 0zm6.54 -11.53l0 0c-0.01,0.01 -0.01,0.01 -0.02,0.02 0.01,-0.01 0.01,-0.01 0.01,-0.01 0,-0 0,-0 0,-0l0 0zm2.99 -2.1l0 0c-0.02,0.04 -0.04,0.08 -0.07,0.12 0.02,-0.04 0.05,-0.08 0.07,-0.12l0 0zm0.21 -0.95l0 0c-0.03,-0.19 -0.11,-0.37 -0.22,-0.52 -0.28,-0.37 -0.79,-0.56 -1.26,-0.36 -0.46,0.19 -0.87,0.48 -1.27,0.77 -0.3,0.22 -0.6,0.43 -0.91,0.65 -0.45,0.33 -0.89,0.66 -1.34,0.99 -0.86,0.63 -1.7,1.28 -2.55,1.92 -2.11,1.6 -4.2,3.23 -6.22,4.95 -0.43,0.37 -0.86,0.73 -1.28,1.12 -0.62,0.58 -1.26,1.16 -1.88,1.73 -0.96,0.89 -1.87,1.84 -2.8,2.76 0.01,-0.01 0.03,-0.03 0.04,-0.04 -0.46,0.46 -0.9,0.94 -1.34,1.41 -0.34,0.35 -0.67,0.7 -1,1.06 -0.46,0.51 -0.93,1 -1.38,1.52 -0.46,0.54 -0.92,1.08 -1.38,1.62 -1.51,1.79 -2.98,3.62 -4.46,5.43 -1.69,2.06 -3.37,4.13 -5.02,6.22 -0.43,0.54 -0.86,1.06 -1.3,1.59 -0.42,0.5 -0.87,0.97 -1.31,1.46 -0.8,0.88 -1.66,1.7 -2.5,2.54 0.02,-0.02 0.03,-0.04 0.05,-0.05 -1.05,1.03 -2.11,2.04 -3.21,3.03 -0.55,0.49 -1.1,0.98 -1.66,1.47 -0.28,0.26 -0.57,0.51 -0.85,0.77 -0.12,0.11 -0.24,0.22 -0.36,0.34 -0.12,0.11 -0.26,0.22 -0.37,0.35 -0.14,0.15 -0.22,0.3 -0.31,0.49 -0.18,0.38 0.06,0.85 0.43,1 -1.03,0.79 -2.05,1.59 -3.07,2.39 -0.76,0.6 -0.94,1.7 -0.34,2.48 0.58,0.77 1.73,0.94 2.48,0.34 1.15,-0.91 2.31,-1.8 3.47,-2.7 0.65,-0.5 1.31,-0.99 1.97,-1.47 1.07,-0.76 2.18,-1.44 3.31,-2.1 0.16,-0.09 0.33,-0.18 0.49,-0.26 2.46,-1.32 4.93,-2.59 7.4,-3.89 0.58,-0.31 1.14,-0.64 1.71,-0.97 0.58,-0.32 1.16,-0.64 1.72,-0.98 0.7,-0.43 1.41,-0.87 2.11,-1.3 0.54,-0.33 1.06,-0.71 1.59,-1.06 0.95,-0.64 1.9,-1.3 2.81,-2.01 1.58,-1.25 3.05,-2.64 4.44,-4.09 0.69,-0.73 1.38,-1.48 2.02,-2.25 0.53,-0.64 1.08,-1.28 1.55,-1.97 0.43,-0.63 0.86,-1.26 1.3,-1.88 0.3,-0.44 0.58,-0.89 0.86,-1.35 0.39,-0.66 0.81,-1.31 1.17,-1.99 0.38,-0.7 0.75,-1.4 1.12,-2.1 0.28,-0.53 0.54,-1.08 0.8,-1.62 1.15,-2.35 2.14,-4.78 3.13,-7.21 0.48,-1.17 0.98,-2.33 1.49,-3.49 0.49,-1.12 1.01,-2.22 1.61,-3.28 -0.02,0.03 -0.04,0.08 -0.06,0.11 0.03,-0.05 0.06,-0.1 0.08,-0.15 0.02,-0.04 0.04,-0.07 0.06,-0.11 -0.02,0.03 -0.03,0.06 -0.05,0.09 0.05,-0.09 0.1,-0.17 0.15,-0.26 -0.01,0.02 -0.02,0.03 -0.03,0.06 0.1,-0.18 0.21,-0.34 0.29,-0.53 0.1,-0.22 0.1,-0.45 0.06,-0.68l0 0z"/>
     <path class="fil1" d="M269.87 167.76l0 0c0.03,0.12 0.06,0.24 0.09,0.36 -0.03,-0.12 -0.06,-0.24 -0.09,-0.36l0 0zm2.41 -11.07l0 0c-0,0.03 -0,0.06 -0,0.09 0,-0.03 0,-0.06 0,-0.09zm-8.04 -22.1l0 0c0,0.03 0,0.06 0,0.09 0,-0.03 0,-0.06 0,-0.09l0 0zm1.08 -9.63l0 0c-0.01,0.07 -0.03,0.14 -0.06,0.21 0.02,-0.07 0.04,-0.14 0.06,-0.21l0 0zm5.83 21.73l0 0c0.6,3.38 1.15,6.8 1.13,10.25 -0.08,3.16 -0.58,6.3 -1.39,9.36 -0.23,0.84 -0.48,1.67 -0.75,2.5 -0.05,-0.22 -0.11,-0.44 -0.17,-0.66 -0.63,-2.59 -1.17,-5.2 -1.95,-7.75 -0.37,-1.22 -0.78,-2.43 -1.16,-3.65 -0.34,-1.12 -0.65,-2.24 -0.96,-3.37 -0.03,-0.15 -0.07,-0.31 -0.11,-0.47 -0.34,-1.43 -0.66,-2.86 -0.84,-4.32 -0.1,-0.78 -0.23,-1.57 -0.29,-2.35 -0.07,-0.88 -0.13,-1.77 -0.2,-2.64 -0.11,-1.47 -0.12,-2.95 -0.16,-4.43 -0.04,-1.44 -0.04,-2.88 -0.05,-4.32 0.03,-1.06 0.08,-2.12 0.11,-3.18 0.04,-1.01 0.14,-2.03 0.28,-3.03 0.16,-1.23 0.38,-2.46 0.69,-3.66 0.36,-1.25 0.82,-2.49 1.42,-3.64 0.06,0.72 0.12,1.44 0.2,2.15 0.14,1.09 0.29,2.18 0.45,3.28 0.29,1.93 0.66,3.85 1.04,5.76 0.64,3.19 1.28,6.38 1.88,9.58 0.29,1.54 0.56,3.08 0.83,4.62l0 0zm-2.92 -27.42l0 0c-0.03,-0.09 -0.07,-0.17 -0.13,-0.25 -0.19,-0.25 -0.5,-0.43 -0.78,-0.46 -0.41,-0.06 -0.79,0.17 -1.08,0.44 -0.39,0.34 -0.66,0.76 -0.92,1.2 -0.53,0.9 -0.94,1.89 -1.3,2.87 -0.33,0.92 -0.6,1.87 -0.8,2.82 -0.39,1.79 -0.65,3.62 -0.75,5.44 -0.09,1.6 -0.18,3.19 -0.22,4.79 -0.04,1.62 -0.06,3.24 -0.07,4.86 0,-0.09 0,-0.19 0,-0.28 -0.01,1.17 -0.01,2.35 0.03,3.53 0.03,0.79 0.02,1.59 0.08,2.38 0.07,0.89 0.14,1.78 0.21,2.66 0.06,0.77 0.19,1.53 0.29,2.28 0.09,0.73 0.24,1.45 0.36,2.17 0.48,2.84 1.2,5.65 1.92,8.44 0.59,2.56 1.05,5.15 1.6,7.72 0.28,1.28 0.59,2.56 0.88,3.85 0.14,0.62 0.3,1.25 0.45,1.87 0.22,0.87 0.5,1.71 0.79,2.55 0.31,0.89 1.41,1.31 2.26,0.97 0.72,-0.28 1.17,-1.05 1.08,-1.81 -0.09,-0.75 -0.18,-1.5 -0.36,-2.23 -0.14,-0.58 -0.28,-1.16 -0.43,-1.74 0.26,-0.15 0.47,-0.38 0.57,-0.67 1.18,-3.6 2.35,-7.21 2.86,-10.98 0.26,-1.9 0.39,-3.83 0.34,-5.75 -0.05,-1.8 -0.23,-3.61 -0.5,-5.39 -0.52,-3.36 -1.23,-6.69 -1.93,-10 -0.62,-2.93 -1.34,-5.82 -1.99,-8.74 -0.66,-2.98 -1.35,-5.95 -1.86,-8.97 -0.13,-0.78 -0.26,-1.57 -0.36,-2.36 -0.05,-0.42 -0.1,-0.83 -0.22,-1.23l0 0z"/>
     <path class="fil1" d="M269.08 172.2l0 0c0,-0.02 0,-0.04 0,-0.06 0,0.03 0,0.06 0,0.09 0,-0.01 0,-0.02 0,-0.03l0 0zm-1.55 -42.85l0 0c0,0.02 0,0.04 -0,0.06 0,-0.02 0,-0.04 0,-0.06l0 0zm0.68 -9.5l0 0c0.01,-0.14 -0.03,-0.27 -0.1,-0.37 -0.07,-0.1 -0.18,-0.17 -0.32,-0.18 -0.28,-0.04 -0.5,0.16 -0.55,0.42 -0.26,1.28 -0.45,2.56 -0.61,3.85 -0.17,1.23 -0.32,2.48 -0.39,3.73 -0.03,0.6 -0.05,1.2 -0.07,1.81 -0.02,0.68 -0,1.36 0.01,2.04 0.01,1.17 0.1,2.34 0.21,3.5 0.23,2.44 0.51,4.87 0.78,7.3 0.29,2.56 0.57,5.12 0.84,7.69 0.24,2.38 0.48,4.77 0.66,7.15 0.09,1.18 0.21,2.36 0.26,3.54 0.06,1.59 0.12,3.17 0.18,4.75 0.01,0.27 0.01,0.53 0.01,0.8 -0.01,0.8 -0.01,1.59 -0.01,2.39 -0.01,1.3 -0.01,2.58 -0.02,3.88 0,-0.02 0,-0.04 0,-0.06 0,0.04 0,0.08 0,0.12 0,0.02 0,0.03 0,0.06 0,-0.01 0,-0.02 0,-0.02 -0.02,1.09 -0.04,2.18 -0.06,3.26 -0,0.19 0.01,0.35 0.13,0.51 0.11,0.14 0.27,0.24 0.45,0.27 0.18,0.02 0.36,-0.03 0.5,-0.14 0.13,-0.1 0.26,-0.28 0.26,-0.45 0.04,-1.72 0.07,-3.44 0.08,-5.16 0.01,-1.56 0.02,-3.12 0.03,-4.68 0,-0.26 0.01,-0.52 0,-0.77 -0.02,-0.55 -0.05,-1.09 -0.06,-1.64 -0.05,-1.27 -0.1,-2.54 -0.15,-3.81 -0.01,-0.17 -0.03,-0.34 -0.04,-0.51 -0.03,-0.39 -0.07,-0.78 -0.09,-1.18 -0.06,-0.77 -0.12,-1.56 -0.18,-2.34 -0.04,-0.49 -0.1,-0.97 -0.14,-1.46 -0.06,-0.67 -0.12,-1.34 -0.19,-2 -0.24,-2.43 -0.5,-4.85 -0.78,-7.27 -0.3,-2.55 -0.6,-5.09 -0.86,-7.63 -0.25,-2.4 -0.48,-4.82 -0.46,-7.24 0,0.02 0,0.03 0,0.05 0,-0.25 0,-0.5 0.01,-0.74 0,-0.06 0,-0.13 0,-0.19 0,0.06 0,0.12 -0,0.18 0.04,-1.58 0.1,-3.17 0.24,-4.74 0.06,-0.76 0.13,-1.51 0.21,-2.26 0.08,-0.81 0.17,-1.62 0.23,-2.43l0 0z"/>
     <path class="fil1" d="M293.12 152.08l0 0c0.02,-0.03 0.03,-0.06 0.06,-0.09 -0.01,0.02 -0.03,0.04 -0.04,0.06 -0,0.01 -0.01,0.02 -0.02,0.03l0 0zm-5.13 9.05l0 0c0.05,-0.07 0.09,-0.14 0.13,-0.22 -0.04,0.08 -0.08,0.15 -0.13,0.22l0 0zm-8.01 2.88l0 0c-0.58,0.74 -1.16,1.48 -1.75,2.2 0.73,-1.2 1.44,-2.41 2.17,-3.62 0.59,-0.98 1.19,-1.96 1.78,-2.94 0.69,-1.12 1.37,-2.24 2.11,-3.32 0.38,-0.55 0.78,-1.07 1.19,-1.6 0.39,-0.51 0.82,-0.99 1.24,-1.48 0.75,-0.89 1.57,-1.72 2.38,-2.56 0.94,-0.92 1.88,-1.86 2.89,-2.7 0.1,-0.08 0.19,-0.16 0.29,-0.24 -0.58,0.57 -1.15,1.16 -1.69,1.76 -0.78,0.85 -1.48,1.77 -2.18,2.68 -0.73,0.95 -1.45,1.91 -2.16,2.87 -0.71,0.97 -1.41,1.95 -2.07,2.94 -0.69,1.02 -1.35,2.07 -2.06,3.08 -0.69,0.99 -1.39,1.97 -2.15,2.92l0 0zm2.47 1.28l0 0c-0.72,0.93 -1.51,1.78 -2.3,2.64 -0.42,0.41 -0.83,0.83 -1.26,1.23 0.92,-1.17 1.83,-2.35 2.72,-3.54 1.46,-1.96 2.73,-4.04 3.99,-6.13 1.27,-2.12 2.53,-4.26 3.84,-6.36 0.61,-0.98 1.25,-1.94 1.96,-2.86 0.58,-0.76 1.22,-1.46 1.88,-2.15 -0.56,0.91 -1.12,1.81 -1.68,2.71 -1,1.62 -1.95,3.28 -2.93,4.92 -1.29,2.16 -2.58,4.31 -3.97,6.41 -0.71,1.07 -1.46,2.11 -2.25,3.13l0 0zm14.72 -21.67l0 0c-0.01,-0.03 -0.04,-0.06 -0.06,-0.09 -0.19,-0.25 -0.48,-0.39 -0.8,-0.41 -0.36,-0.03 -0.76,0.1 -1.08,0.26 -0.58,0.28 -1.14,0.61 -1.68,0.96 -0.27,0.17 -0.55,0.34 -0.81,0.52 -1.02,0.72 -2.04,1.45 -2.97,2.27 -0.45,0.41 -0.9,0.8 -1.34,1.22 -0.52,0.5 -1.03,1 -1.53,1.52 -0.46,0.48 -0.9,0.95 -1.34,1.44 -0.44,0.49 -0.86,0.99 -1.28,1.5 -1.55,1.85 -2.79,3.93 -4.06,5.97 -1.3,2.09 -2.59,4.19 -3.89,6.29 -1.31,2.12 -2.63,4.25 -3.97,6.36 -0.32,0.5 -0.64,1.01 -0.94,1.53 -0.25,0.43 -0.53,0.9 -0.47,1.42 0.04,0.3 0.18,0.56 0.39,0.76 -0.67,0.57 -1.33,1.14 -1.99,1.72 -0.34,0.3 -0.58,0.63 -0.64,1.09 -0.06,0.43 0.05,0.88 0.32,1.23 0.26,0.35 0.66,0.59 1.1,0.65 0.41,0.06 0.91,-0.04 1.23,-0.32 1.31,-1.16 2.64,-2.3 3.97,-3.44 1.14,-0.97 2.31,-1.92 3.41,-2.94 1.02,-0.95 2.02,-1.92 2.97,-2.95 0.43,-0.47 0.84,-0.96 1.25,-1.45 0.4,-0.49 0.77,-0.99 1.15,-1.5 0.36,-0.47 0.68,-0.97 1.02,-1.46 0.33,-0.48 0.65,-0.97 0.95,-1.47 0.65,-1.05 1.29,-2.11 1.91,-3.18 -0.01,0.01 -0.01,0.02 -0.02,0.04 1.75,-3.01 3.42,-6.06 5.15,-9.09 -0.01,0.03 -0.03,0.05 -0.04,0.08 0.02,-0.03 0.04,-0.07 0.06,-0.11 0.02,-0.04 0.05,-0.08 0.07,-0.12 -0.01,0.02 -0.02,0.04 -0.03,0.06 0.64,-1.07 1.28,-2.13 1.9,-3.2 0.34,-0.57 0.67,-1.14 0.99,-1.71 0.3,-0.55 0.62,-1.08 0.87,-1.65 0.1,-0.22 0.21,-0.44 0.29,-0.68 0.05,-0.16 0.1,-0.31 0.11,-0.47 0.02,-0.27 -0.04,-0.44 -0.18,-0.68l0 0z"/>
     <path class="fil1" d="M274.79 111.97l0 0c0,0.07 0,0.15 0,0.22 0,-0.07 0,-0.15 0,-0.22l0 0zm1.6 15.58l0 0c0.06,0.41 0.12,0.8 0.19,1.2 -0.01,-0.04 -0.02,-0.08 -0.03,-0.11 -0.24,-0.73 -0.49,-1.46 -0.69,-2.21 -0.66,-2.69 -0.81,-5.47 -0.93,-8.23 -0.05,-0.96 -0.08,-1.92 -0.11,-2.88 -0.02,-1.04 -0.03,-2.08 -0.03,-3.12 0.02,-0.57 0.02,-1.14 0.06,-1.71 0.04,-0.6 0.08,-1.21 0.14,-1.81 0.01,-0.08 0.02,-0.16 0.03,-0.24 0.05,0.8 0.11,1.61 0.18,2.41 0.21,2.57 0.44,5.13 0.6,7.71 0.13,2.36 0.11,4.73 0.37,7.08 0.07,0.64 0.13,1.28 0.22,1.9l0 0zm0.11 -29.52l0 0c0.04,0.14 0.08,0.28 0.12,0.42 0.08,0.37 0.17,0.74 0.25,1.11 0.09,0.4 0.15,0.8 0.22,1.2 0.14,0.73 0.24,1.46 0.34,2.19 0.23,1.6 0.41,3.19 0.63,4.79 0.32,2.47 0.7,4.94 0.95,7.42 0.13,1.28 0.23,2.55 0.3,3.84 0.06,1.19 0.04,2.39 0.03,3.58 -0,-0.1 0,-0.21 0,-0.32 -0.03,1.14 -0.07,2.28 -0.14,3.41 -0.06,1.01 -0.18,2.02 -0.28,3.02 -0.07,0.69 -0.15,1.37 -0.23,2.06 -0.17,-0.72 -0.32,-1.45 -0.47,-2.17 -0.2,-0.98 -0.32,-1.98 -0.44,-2.97 -0.15,-1.19 -0.22,-2.39 -0.3,-3.59 -0.08,-1.18 -0.08,-2.37 -0.16,-3.55 -0.17,-2.54 -0.43,-5.08 -0.6,-7.62 -0.17,-2.37 -0.21,-4.75 -0.3,-7.12 -0.05,-1.21 -0.09,-2.43 -0.13,-3.65 -0.01,-0.15 -0.01,-0.3 -0.02,-0.46 0.02,-0.13 0.04,-0.26 0.06,-0.39 0.06,-0.41 0.12,-0.81 0.17,-1.21l0 0zm1.96 -1.41l0 0c-0.23,-0.66 -0.51,-1.33 -0.93,-1.88 -0.01,-0.02 -0.03,-0.04 -0.05,-0.06 -0.11,-0.14 -0.27,-0.29 -0.42,-0.38 -0.14,-0.1 -0.29,-0.17 -0.46,-0.19 -0.03,-0.01 -0.06,-0.02 -0.1,-0.02 -0.38,-0.1 -0.75,0.18 -0.98,0.44 -0.22,0.24 -0.27,0.63 -0.34,0.93 -0.03,0.14 -0.06,0.28 -0.09,0.43l0 0c-0.12,0.1 -0.21,0.25 -0.23,0.41 -0.05,0.4 -0.1,0.8 -0.14,1.2 -0.08,0.36 -0.16,0.72 -0.23,1.08 -0.53,2.41 -1.02,4.84 -1.39,7.28 -0.2,1.29 -0.39,2.57 -0.51,3.87 -0.13,1.28 -0.17,2.57 -0.19,3.85 -0.07,2.57 0.01,5.14 0.14,7.7 0.02,0.6 0.08,1.19 0.14,1.79 0.11,1.21 0.28,2.4 0.56,3.58 0.14,0.57 0.28,1.13 0.46,1.68 0.12,0.38 0.25,0.77 0.37,1.16 0.19,0.58 0.44,1.14 0.66,1.71 0.1,0.25 0.23,0.49 0.34,0.74 0.15,0.32 0.3,0.65 0.46,0.97 0.28,0.6 0.62,1.18 0.92,1.76 0.29,0.55 0.6,1.07 0.92,1.59 0.46,0.75 0.91,1.49 1.4,2.21 0.41,0.59 1.3,0.68 1.86,0.25 0.28,-0.21 0.46,-0.53 0.51,-0.88 0.05,-0.36 -0.06,-0.68 -0.26,-0.98 -0.18,-0.26 -0.35,-0.52 -0.52,-0.78 0.17,-0.3 0.25,-0.66 0.32,-0.98 0.05,-0.21 0.09,-0.42 0.12,-0.64 0.07,-0.35 0.13,-0.71 0.19,-1.06 0.28,-1.65 0.51,-3.3 0.65,-4.96 0.21,-2.5 0.23,-5 0.12,-7.5 -0.06,-1.21 -0.1,-2.44 -0.23,-3.64 -0.14,-1.25 -0.29,-2.5 -0.45,-3.74 -0.31,-2.52 -0.61,-5.04 -0.89,-7.57 -0.28,-2.51 -0.52,-5.04 -1.16,-7.49 -0.08,-0.28 -0.13,-0.59 -0.23,-0.86 -0.12,-0.34 -0.23,-0.68 -0.35,-1.02l0 0z"/>
     <path class="fil1" d="M301.31 119.8l0 0c-0.48,0.91 -0.97,1.8 -1.48,2.69 -0.37,0.59 -0.75,1.19 -1.12,1.78 -0.8,1.27 -1.79,2.43 -2.84,3.49 -0.24,0.23 -0.49,0.47 -0.74,0.69 -2.36,2.12 -4.99,3.93 -7.58,5.77 -0.68,0.49 -1.37,0.97 -2.06,1.45 0.13,-0.19 0.25,-0.39 0.37,-0.59 0.57,-0.93 1.12,-1.88 1.67,-2.82 1.42,-2.45 2.8,-4.93 4.46,-7.23 1.61,-2.25 3.5,-4.3 5.4,-6.31 1.24,-1.19 2.52,-2.34 3.86,-3.41 0.75,-0.6 1.49,-1.2 2.25,-1.79 0.4,-0.32 0.81,-0.63 1.22,-0.94 -0.21,0.47 -0.43,0.93 -0.65,1.41 -0.44,0.97 -0.88,1.94 -1.34,2.9 -0.46,0.98 -0.92,1.94 -1.42,2.89l0 0zm5.86 -8.84l0 0c0.03,-0.26 -0.05,-0.54 -0.21,-0.75 -0.06,-0.07 -0.12,-0.13 -0.19,-0.19 -0.31,-0.23 -0.78,-0.22 -1.12,-0.07 -0.4,0.18 -0.78,0.42 -1.14,0.67 -1.23,0.85 -2.4,1.8 -3.56,2.74 -1.13,0.92 -2.23,1.86 -3.33,2.82 -0.52,0.46 -1.03,0.95 -1.52,1.46 -0.48,0.49 -0.97,0.97 -1.44,1.47 -0.95,1.02 -1.91,2.04 -2.84,3.07 -1.01,1.14 -2.02,2.29 -3,3.45 -0.9,1.08 -1.76,2.2 -2.62,3.32 -0.83,1.09 -1.65,2.19 -2.47,3.29 -0.38,0.5 -0.77,1.01 -1.15,1.52 -0.49,0.67 -0.95,1.35 -1.4,2.05 -0.24,0.37 -0.37,0.74 -0.32,1.19 0.05,0.43 0.28,0.84 0.63,1.11 0.07,0.05 0.14,0.1 0.23,0.14 -0.65,0.43 -1.3,0.86 -1.95,1.29 -0.59,0.39 -0.66,1.28 -0.26,1.82 0.45,0.59 1.23,0.64 1.82,0.25 0.98,-0.64 1.95,-1.3 2.92,-1.96 1.27,-0.86 2.52,-1.74 3.77,-2.63 1.11,-0.8 2.21,-1.63 3.31,-2.44 1.09,-0.82 2.16,-1.66 3.2,-2.55 0.94,-0.79 1.85,-1.59 2.7,-2.46 1.19,-1.23 2.3,-2.58 3.17,-4.05 0.75,-1.27 1.52,-2.53 2.17,-3.86 0.63,-1.29 1.24,-2.59 1.81,-3.9 0.57,-1.31 1.11,-2.62 1.66,-3.93 0.26,-0.61 0.51,-1.21 0.77,-1.82 0.14,-0.34 0.3,-0.67 0.35,-1.04l0 0z"/>
     <path class="fil1" d="M281.02 138.22l0 0c0,0 0.01,-0 0.01,-0.01 -0.03,0.03 -0.05,0.05 -0.08,0.07 0.02,-0.02 0.04,-0.04 0.07,-0.06l0 0zm24.22 -26.19l0 0c-0.01,-0.11 -0.06,-0.21 -0.12,-0.3 -0.03,-0.04 -0.07,-0.08 -0.11,-0.11 -0.26,-0.2 -0.64,-0.14 -0.84,0.11 -0.59,0.76 -1.15,1.55 -1.72,2.31 -0.53,0.72 -1.09,1.41 -1.63,2.11 -1.48,1.88 -2.9,3.81 -4.41,5.66 -0.41,0.51 -0.84,1.01 -1.26,1.51 -0.42,0.5 -0.86,0.97 -1.29,1.46 -0.82,0.92 -1.7,1.8 -2.55,2.69 -0.89,0.93 -1.78,1.86 -2.66,2.8 -0.73,0.79 -1.45,1.58 -2.19,2.36 -0.86,0.91 -1.71,1.84 -2.59,2.73 -0.94,0.95 -1.88,1.9 -2.82,2.84 0,-0.01 0.01,-0.01 0.01,-0.02 -0.01,0.01 -0.01,0.02 -0.02,0.02 -0.05,0.05 -0.09,0.09 -0.14,0.14 0.02,-0.03 0.05,-0.05 0.07,-0.08 -0.36,0.35 -0.72,0.69 -1.07,1.04 -0.17,0.17 -0.3,0.32 -0.34,0.57 -0.03,0.23 0.03,0.46 0.17,0.64 0.14,0.18 0.34,0.3 0.57,0.33 0.2,0.03 0.48,-0.02 0.64,-0.17 1.05,-1.02 2.08,-2.05 3.11,-3.08 0.63,-0.63 1.26,-1.26 1.88,-1.91 0.92,-0.97 1.85,-1.94 2.77,-2.92 0.86,-0.93 1.72,-1.88 2.6,-2.79 0.89,-0.93 1.79,-1.84 2.67,-2.77 0.82,-0.88 1.65,-1.76 2.41,-2.68 1.61,-1.93 3.08,-3.97 4.54,-6.01 0.68,-0.95 1.35,-1.89 2.03,-2.84 0.75,-1.05 1.49,-2.12 2.17,-3.23 0.08,-0.14 0.14,-0.27 0.12,-0.44l0 0z"/>
     <path class="fil1" d="M289.73 78.55l0 0c0.01,-0.04 0.02,-0.08 0.03,-0.12 -0.01,0.03 -0.02,0.08 -0.03,0.12l0 0zm-0.64 39.48l0 0c0.05,-0.08 0.1,-0.17 0.14,-0.25 -0.05,0.08 -0.1,0.17 -0.14,0.25l0 -0zm4.45 -24.32l0 0c0,0 0,0.01 0,0.01 0,0.01 0,0.02 0,0.02 0,-0.01 0,-0.01 0,-0.03l0 0zm0 -0.04l0 0c0,0 0,0.01 0,0.01l0 0c0,-0 0,-0.01 0,-0.01l0 0zm-0.06 -1.6l0 0c0.03,0.55 0.04,1.09 0.06,1.64 0,0.02 0,0.05 0,0.08 -0.01,1.2 -0.06,2.39 -0.13,3.59 -0.07,1.11 -0.19,2.22 -0.32,3.32 -0.06,0.5 -0.14,0.99 -0.23,1.49 -0.12,0.63 -0.23,1.26 -0.35,1.88 -0.2,1.03 -0.45,2.05 -0.72,3.07 -0.22,0.71 -0.45,1.41 -0.69,2.11 -0.1,0.27 -0.2,0.54 -0.31,0.81 -0.12,0.3 -0.23,0.61 -0.37,0.9 -0.32,0.68 -0.63,1.36 -0.98,2.03 -0.28,0.55 -0.58,1.1 -0.88,1.64 -1.03,1.73 -2.1,3.44 -3.18,5.14 0.02,-0.16 0.04,-0.32 0.06,-0.48 0.14,-1.19 0.3,-2.37 0.36,-3.57 0.06,-1.19 0.12,-2.39 0.18,-3.58 0.06,-1.22 0.12,-2.44 0.13,-3.66 0.01,-1.27 0,-2.55 -0.01,-3.82 0.01,-0.49 0.03,-0.99 0.04,-1.48 0.1,-2.44 0.48,-4.88 0.76,-7.31 0.14,-1.17 0.25,-2.35 0.42,-3.52 0.18,-1.17 0.42,-2.31 0.71,-3.45 0.3,-1.01 0.61,-2.01 0.96,-3.01 0.36,-1.02 0.72,-2.04 1.01,-3.09 0.31,-1.11 0.58,-2.24 0.84,-3.36 0.09,-0.4 0.18,-0.79 0.27,-1.19 0.06,0.24 0.12,0.49 0.18,0.73 0.29,1.21 0.57,2.44 0.82,3.66 0.25,1.2 0.5,2.41 0.68,3.63 0.19,1.29 0.36,2.58 0.5,3.87 0.07,0.63 0.12,1.27 0.16,1.92l0 0zm-1.58 -15.63l0 0c0.01,0.04 0.02,0.08 0.03,0.12 -0.01,-0.04 -0.02,-0.08 -0.03,-0.12l0 0zm-0.19 -0.81l0 0c-0.01,-0.05 -0.03,-0.09 -0.06,-0.13 -0.12,-0.16 -0.35,-0.27 -0.53,-0.23 -0.19,0.04 -0.35,0.08 -0.47,0.24 -0.1,0.14 -0.16,0.29 -0.21,0.46 -0.05,0.16 -0.1,0.32 -0.14,0.48 -0.1,0.34 -0.19,0.68 -0.28,1.02 0.01,-0.03 0.02,-0.07 0.03,-0.1 -0.11,0.41 -0.22,0.81 -0.33,1.21 0,-0.01 0.01,-0.02 0.01,-0.03 -0.3,1.1 -0.59,2.2 -0.94,3.29 -0.35,1.09 -0.75,2.16 -1.15,3.24 -0.39,1.06 -0.76,2.13 -1.09,3.21 -0.33,1.08 -0.57,2.19 -0.8,3.29 -0.25,1.21 -0.42,2.43 -0.62,3.65 -0.19,1.18 -0.41,2.36 -0.59,3.54 -0.19,1.23 -0.36,2.45 -0.47,3.68 -0.11,1.24 -0.14,2.48 -0.17,3.72 -0.07,2.41 -0.28,4.8 -0.39,7.19 -0.06,1.21 -0.05,2.42 -0.14,3.63 -0.09,1.26 -0.3,2.52 -0.42,3.78 -0.06,0.63 0.34,1.21 0.98,1.31 -0.11,0.18 -0.22,0.35 -0.34,0.52 -0.16,0.26 -0.26,0.52 -0.23,0.83 0.04,0.3 0.2,0.58 0.44,0.76 0.23,0.18 0.54,0.26 0.83,0.23 0.28,-0.04 0.61,-0.19 0.77,-0.44 1.3,-2.05 2.63,-4.09 3.84,-6.19l0 0c0.2,-0.36 0.41,-0.71 0.61,-1.06 -0.05,0.08 -0.1,0.16 -0.14,0.24 0.26,-0.46 0.52,-0.93 0.77,-1.39 0.22,-0.41 0.44,-0.82 0.63,-1.24 0.21,-0.46 0.43,-0.92 0.64,-1.38 0.09,-0.2 0.17,-0.41 0.25,-0.6 0.1,-0.24 0.21,-0.47 0.3,-0.71 0.34,-0.96 0.69,-1.93 0.94,-2.93 0.12,-0.47 0.24,-0.95 0.34,-1.42 0.1,-0.52 0.2,-1.03 0.29,-1.55 0.2,-1.2 0.4,-2.41 0.55,-3.62 0.15,-1.24 0.28,-2.48 0.36,-3.72 0.08,-1.2 0.13,-2.4 0.13,-3.61 -0.01,-0.68 -0.02,-1.35 -0.04,-2.04 -0.02,-0.66 -0.08,-1.32 -0.13,-1.97 -0.05,-0.62 -0.15,-1.24 -0.22,-1.87 -0.07,-0.6 -0.16,-1.19 -0.25,-1.79 -0.17,-1.24 -0.41,-2.48 -0.66,-3.7 -0.25,-1.21 -0.51,-2.41 -0.8,-3.6 -0.27,-1.14 -0.58,-2.27 -0.89,-3.4 -0.06,-0.27 -0.11,-0.54 -0.19,-0.81l0 0z"/>
     <path class="fil1" d="M251.91 228.37l0 0c0.01,-0 0.03,-0.01 0.05,-0.01 -0.01,0 -0.01,0 -0.02,0 -0.01,0 -0.01,0.01 -0.02,0.01l0 0zm0.57 -0.15l0 0c-0.05,0.01 -0.1,0.03 -0.16,0.04 0.03,-0.01 0.07,-0.02 0.1,-0.03 0.02,-0.01 0.04,-0.01 0.06,-0.01l0 0zm21.68 -14.02l0 0c-2.51,1.56 -5.01,3.15 -7.55,4.66 -0.51,0.28 -1.01,0.56 -1.53,0.82 -0.67,0.34 -1.33,0.65 -2.01,0.97 -0.56,0.26 -1.14,0.5 -1.72,0.73 -0.64,0.26 -1.28,0.52 -1.92,0.77 -1.4,0.54 -2.81,1.07 -4.23,1.57 -1.13,0.4 -2.29,0.71 -3.44,1.01 -0.21,0.05 -0.41,0.1 -0.62,0.15 -0.09,0.01 -0.17,0.03 -0.26,0.05 -1.07,0.24 -2.14,0.46 -3.21,0.68 -1.27,0.27 -2.5,0.61 -3.75,0.95 2.1,-1.61 4.16,-3.27 6.26,-4.88 1.1,-0.84 2.21,-1.66 3.34,-2.47 1.04,-0.74 2.16,-1.39 3.25,-2.04 0.46,-0.24 0.92,-0.49 1.38,-0.74 0.45,-0.24 0.92,-0.44 1.38,-0.66 0.42,-0.2 0.85,-0.38 1.28,-0.55 0.44,-0.17 0.88,-0.36 1.34,-0.51 0.61,-0.2 1.21,-0.39 1.82,-0.59 0.5,-0.16 1.01,-0.28 1.51,-0.43 0.92,-0.26 1.84,-0.49 2.77,-0.73 2.77,-0.69 5.54,-1.35 8.3,-2.11 1.64,-0.45 3.25,-0.96 4.87,-1.46 -0.06,0.04 -0.12,0.09 -0.18,0.13 -2.26,1.69 -4.66,3.17 -7.06,4.65l0 0zm11.36 -6.44l0 0c0.02,-0.25 -0.05,-0.5 -0.19,-0.69 -0.13,-0.18 -0.33,-0.31 -0.58,-0.33 -0.53,-0.06 -1.06,0.05 -1.58,0.16 -0.37,0.08 -0.74,0.15 -1.11,0.25 -0.83,0.2 -1.64,0.41 -2.46,0.63 -1.57,0.43 -3.14,0.84 -4.71,1.25 -0.3,0.07 -0.59,0.15 -0.89,0.22 -2.88,0.72 -5.77,1.4 -8.62,2.23 -0.73,0.21 -1.46,0.42 -2.19,0.63 -0.69,0.2 -1.38,0.46 -2.06,0.69 -0.34,0.11 -0.68,0.27 -1,0.41 -0.3,0.12 -0.6,0.23 -0.89,0.36 -0.63,0.31 -1.28,0.59 -1.89,0.93 -1.37,0.76 -2.73,1.53 -4.02,2.41 -1.28,0.86 -2.51,1.78 -3.72,2.73 -2.44,1.91 -4.85,3.86 -7.31,5.75 -0.41,0.32 -0.5,0.92 -0.18,1.34 0.15,0.2 0.37,0.32 0.61,0.37 -0.11,0.13 -0.2,0.28 -0.26,0.42 -0.09,0.23 -0.12,0.46 -0.1,0.7 0.07,0.59 0.57,1.17 1.2,1.22 0.97,0.08 1.97,0.09 2.94,-0.03 0.85,-0.12 1.68,-0.27 2.52,-0.42 0.8,-0.14 1.6,-0.29 2.38,-0.49 0.18,-0.05 0.34,-0.08 0.5,-0.13 -0.02,0.01 -0.04,0.01 -0.06,0.01 0.03,-0.01 0.06,-0.01 0.08,-0.02 0.01,0 0.01,-0 0.02,-0 0.12,-0.03 0.23,-0.06 0.35,-0.09 -0.12,0.03 -0.23,0.06 -0.35,0.09 0.01,-0 0.01,-0 0.02,-0.01 0.11,-0.03 0.22,-0.06 0.33,-0.08 -0.04,0.01 -0.08,0.02 -0.13,0.03 0.11,-0.03 0.22,-0.06 0.33,-0.08 0.04,-0.01 0.08,-0.02 0.12,-0.03 -0.03,0.01 -0.07,0.02 -0.1,0.02 0.67,-0.17 1.33,-0.36 1.99,-0.56 2.79,-0.86 5.44,-2.11 8.09,-3.31 1.45,-0.66 2.83,-1.46 4.18,-2.29 1.23,-0.75 2.39,-1.62 3.55,-2.48 2.4,-1.74 4.83,-3.43 7.27,-5.12 1.1,-0.77 2.18,-1.54 3.25,-2.35 0.63,-0.47 1.25,-0.94 1.87,-1.41 0.43,-0.33 0.86,-0.66 1.27,-1 0.36,-0.3 0.73,-0.6 1.06,-0.94 0.27,-0.29 0.44,-0.61 0.47,-1l0 0z"/>
     <path class="fil1" d="M281.95 209.17c0.11,0.26 -0.04,0.49 -0.27,0.62 -1.17,0.64 -2.36,1.25 -3.52,1.9 -1.09,0.61 -2.19,1.22 -3.32,1.76 -1.1,0.52 -2.23,0.96 -3.35,1.44 -1.17,0.5 -2.3,1.06 -3.44,1.62 -1.12,0.55 -2.23,1.11 -3.36,1.65 -1.1,0.54 -2.24,1.03 -3.36,1.54 -2.28,1.02 -4.57,2.05 -6.84,3.08 -4.24,1.91 -8.46,3.87 -12.67,5.85 -0.61,0.29 -1.38,-0.09 -1.62,-0.7 -0.12,-0.3 -0.12,-0.64 0.01,-0.94 0.13,-0.33 0.38,-0.54 0.69,-0.68 2.77,-1.3 5.55,-2.58 8.33,-3.84 2.2,-0.99 4.42,-1.94 6.64,-2.88 1.11,-0.48 2.21,-0.96 3.32,-1.43 1.14,-0.49 2.28,-0.97 3.41,-1.48 1.17,-0.53 2.34,-1.08 3.5,-1.64 1.12,-0.54 2.25,-1.06 3.4,-1.52 0.94,-0.39 1.9,-0.69 2.86,-1.02 0.98,-0.33 1.95,-0.7 2.9,-1.08 0.94,-0.37 1.86,-0.79 2.79,-1.18 1.09,-0.45 2.18,-0.88 3.27,-1.34 0.2,-0.08 0.43,-0.01 0.56,0.16 0.02,0.03 0.05,0.07 0.06,0.11l0 0z"/>
     <path class="fil1" d="M238.45 207.46l0 0c0.4,1.77 0.8,3.56 1,5.36 0.15,1.72 0.13,3.45 -0.07,5.16 -0.1,0.92 -0.21,1.83 -0.32,2.74 0.01,-0.03 0.01,-0.05 0.01,-0.07 -0.14,0.82 -0.28,1.64 -0.42,2.46 -0.1,0.63 -0.19,1.26 -0.34,1.88 -0.16,0.64 -0.32,1.29 -0.49,1.93 0,-0.01 0,-0.01 -0.01,-0.02 -0.41,-1.15 -0.8,-2.3 -1.18,-3.46 -0.37,-1.17 -0.69,-2.36 -1,-3.54 -0.34,-1.28 -0.65,-2.56 -0.95,-3.84 -0.15,-0.68 -0.29,-1.36 -0.42,-2.04 -0.11,-0.57 -0.19,-1.14 -0.27,-1.71 -0.11,-1.15 -0.2,-2.3 -0.26,-3.46 -0.05,-1.26 -0.11,-2.52 -0.2,-3.77 -0.1,-1.39 -0.21,-2.77 -0.28,-4.15 -0.06,-1.18 -0.06,-2.36 -0.07,-3.54 -0.02,-1.41 -0.05,-2.83 -0.04,-4.24 0.01,-1.43 0.08,-2.85 0.19,-4.27 0.05,-0.63 0.11,-1.28 0.18,-1.91 0.03,0.18 0.06,0.36 0.1,0.54 0.48,2.53 0.98,5.04 1.62,7.54 0.68,2.66 1.52,5.28 2.17,7.95 0.36,1.48 0.7,2.97 1.04,4.46l0 0zm-3.84 -28.05l0 0c-0.1,-0.3 -0.23,-0.65 -0.43,-0.91 -0.1,-0.13 -0.21,-0.24 -0.35,-0.32 -0.46,-0.25 -0.97,-0.34 -1.46,-0.09 -0.43,0.23 -0.78,0.7 -0.88,1.18 -0.34,1.7 -0.37,3.46 -0.54,5.19 -0.14,1.44 -0.3,2.88 -0.46,4.32 -0.3,2.79 -0.22,5.58 -0.15,8.39 0.03,1.29 0.07,2.6 0.18,3.9 0.12,1.47 0.28,2.94 0.44,4.41 0.11,1.29 0.2,2.6 0.3,3.9 0.07,0.79 0.13,1.58 0.23,2.37 0.09,0.76 0.21,1.51 0.34,2.27 0.23,1.33 0.61,2.63 0.96,3.93 0.35,1.29 0.74,2.57 1.11,3.86 0.38,1.31 0.78,2.63 1.18,3.94 0.21,0.68 0.43,1.37 0.72,2.02 0.27,0.6 0.57,1.19 0.86,1.77 0.09,0.19 0.23,0.33 0.4,0.42 -0.16,0.56 -0.33,1.11 -0.5,1.67 -0.22,0.74 0.22,1.55 0.96,1.77 0.74,0.22 1.55,-0.21 1.77,-0.96 0.25,-0.82 0.5,-1.64 0.71,-2.46 0.19,-0.77 0.39,-1.54 0.58,-2.31 0.16,-0.65 0.33,-1.3 0.49,-1.95 0.08,-0.3 0.11,-0.6 0.17,-0.9 0.26,-1.51 0.56,-3.02 0.74,-4.54 0.1,-0.88 0.21,-1.77 0.31,-2.65 0.2,-1.73 0.14,-3.48 -0.03,-5.2 -0.19,-1.89 -0.61,-3.76 -1.01,-5.61 -0.32,-1.49 -0.66,-2.98 -1,-4.47 -0.61,-2.67 -1.39,-5.31 -2.05,-7.98 -0.68,-2.77 -1.21,-5.57 -1.81,-8.35 -0.28,-1.33 -0.58,-2.65 -0.95,-3.95 -0.19,-0.67 -0.38,-1.34 -0.61,-1.99 -0.07,-0.22 -0.15,-0.44 -0.22,-0.66l0 0z"/>
     <path class="fil1" d="M233.64 183.24c0.1,1.17 0.13,2.35 0.18,3.53 0.05,1.17 0.14,2.33 0.25,3.5 -0,-0.01 -0,-0.03 -0,-0.04 0.06,0.6 0.13,1.2 0.21,1.79 0.08,0.64 0.21,1.27 0.32,1.9 0.21,1.15 0.54,2.28 0.76,3.42 0.07,0.37 0.14,0.73 0.21,1.09 0.06,0.3 0.09,0.61 0.14,0.92 0.09,0.6 0.16,1.2 0.21,1.8 0.1,1.22 0.17,2.43 0.29,3.65 0.03,0.32 0.06,0.65 0.09,0.98 0.26,2.42 0.62,4.82 0.93,7.23 0.15,1.17 0.28,2.35 0.41,3.52 0.07,0.66 0.15,1.32 0.24,1.98 0.09,0.65 0.19,1.29 0.3,1.93 0.36,2.17 0.66,4.35 0.91,6.53 0.03,0.21 0.02,0.39 -0.1,0.59 -0.11,0.17 -0.28,0.3 -0.48,0.34 -0.2,0.05 -0.41,0.01 -0.59,-0.09 -0.16,-0.1 -0.32,-0.3 -0.34,-0.49 -0.17,-1.47 -0.36,-2.95 -0.55,-4.42 -0.16,-1.17 -0.36,-2.33 -0.5,-3.5 -0.16,-1.28 -0.31,-2.56 -0.46,-3.84 -0.15,-1.17 -0.34,-2.34 -0.55,-3.5 -0.18,-1.03 -0.37,-2.06 -0.54,-3.1 -0.17,-0.98 -0.29,-1.95 -0.41,-2.94 -0.12,-1.03 -0.19,-2.07 -0.24,-3.1 -0.05,-1.01 -0.11,-2.01 -0.18,-3.02 -0.06,-0.55 -0.13,-1.09 -0.21,-1.64 -0.09,-0.6 -0.19,-1.19 -0.3,-1.78 -0.23,-1.24 -0.44,-2.47 -0.57,-3.73 -0.14,-1.25 -0.21,-2.5 -0.28,-3.75 -0.07,-1.18 -0.16,-2.35 -0.27,-3.53 -0.07,-0.75 -0.12,-1.5 -0.13,-2.26 -0.01,-0.35 0.32,-0.63 0.66,-0.62 0.17,0.01 0.33,0.08 0.45,0.21 0.01,0.02 0.03,0.03 0.04,0.05 0.09,0.12 0.12,0.25 0.13,0.41l0 0z"/>
     <path class="fil1" d="M320.3 218.8c-0.23,0.34 -0.47,0.66 -0.75,0.96 -0.23,0.25 -0.48,0.5 -0.72,0.75 -0.48,0.49 -0.97,0.97 -1.45,1.46 -1.03,1.06 -2.06,2.12 -3.11,3.16 -0.3,0.29 -0.81,0.24 -1.08,-0.06 -0.29,-0.32 -0.23,-0.79 0.06,-1.08 1.04,-1.02 2.03,-2.08 3.05,-3.12 0.48,-0.49 0.98,-0.97 1.48,-1.44 0.52,-0.49 1.06,-0.96 1.58,-1.45 0.2,-0.19 0.54,-0.21 0.77,-0.05 0.19,0.12 0.29,0.35 0.28,0.57 -0,0.11 -0.04,0.21 -0.1,0.3l0 0z"/>
     <path class="fil1" d="M312.22 225.28c-0.13,-0.16 -0.4,-0.18 -0.55,-0.03 -1,0.94 -2.02,1.87 -3.04,2.78 -0.41,0.36 -0.84,0.71 -1.26,1.06 -0.49,0.39 -0.99,0.79 -1.49,1.17 -1.98,1.51 -3.95,3.04 -5.92,4.56 -2.12,1.64 -4.26,3.27 -6.41,4.88 -2.1,1.58 -4.23,3.13 -6.38,4.65 -1.11,0.78 -2.22,1.54 -3.33,2.31 -1.1,0.77 -2.16,1.57 -3.23,2.38 -1.04,0.79 -2.05,1.61 -3.08,2.43 -0.51,0.41 -1.03,0.8 -1.55,1.19 -0.48,0.36 -0.97,0.7 -1.47,1.05 -0.52,0.35 -1.03,0.7 -1.56,1.03 -0.65,0.41 -1.3,0.82 -1.95,1.21 -1.31,0.79 -2.62,1.59 -3.93,2.39 -1.12,0.68 -2.23,1.37 -3.35,2.05 -0.55,0.34 -1.11,0.66 -1.67,0.99 -0.26,0.16 -0.53,0.29 -0.79,0.43 -0.29,0.15 -0.57,0.33 -0.86,0.47 -0.55,0.26 -1.1,0.55 -1.66,0.79 -0.6,0.26 -1.19,0.52 -1.79,0.75 -1.25,0.49 -2.51,0.96 -3.76,1.46 -2.44,0.97 -4.87,1.98 -7.35,2.88 -2.44,0.89 -4.89,1.77 -7.33,2.64 -0.56,0.19 -1.12,0.39 -1.68,0.57 -0.63,0.19 -1.27,0.38 -1.9,0.58 -0.61,0.18 -1.24,0.33 -1.87,0.49 -0.51,0.14 -1.03,0.24 -1.54,0.36 -2.35,0.53 -4.73,0.97 -7.1,1.39 -0.07,0.01 -0.15,0.02 -0.23,0.04 0.28,0.71 0.64,1.39 1.1,2.02 0.54,-0.08 1.08,-0.17 1.63,-0.25 1.37,-0.23 2.75,-0.44 4.12,-0.7 0.7,-0.14 1.41,-0.28 2.11,-0.41 0.67,-0.13 1.34,-0.31 2,-0.46 1.29,-0.3 2.56,-0.7 3.83,-1.08 1.26,-0.38 2.5,-0.83 3.75,-1.26 1.3,-0.45 2.59,-0.91 3.88,-1.39 2.43,-0.89 4.79,-1.93 7.17,-2.97 1.25,-0.54 2.5,-1.08 3.75,-1.64 0.62,-0.28 1.23,-0.57 1.83,-0.86 0.61,-0.29 1.19,-0.63 1.79,-0.95 0.58,-0.32 1.14,-0.68 1.71,-1.03 0.56,-0.34 1.09,-0.71 1.64,-1.07 1.07,-0.7 2.12,-1.44 3.19,-2.14 1.06,-0.69 2.12,-1.39 3.19,-2.07 1.17,-0.75 2.34,-1.48 3.48,-2.26 0.58,-0.4 1.15,-0.79 1.72,-1.2 0.57,-0.42 1.13,-0.84 1.7,-1.28 1.03,-0.8 2.04,-1.63 3.06,-2.44 2.08,-1.66 4.24,-3.19 6.42,-4.72 4.33,-3.05 8.46,-6.38 12.59,-9.69 1.01,-0.81 2,-1.63 3.01,-2.43 1.01,-0.8 2.02,-1.6 3.03,-2.4 0.55,-0.43 1.09,-0.86 1.63,-1.3 0.56,-0.46 1.1,-0.94 1.65,-1.42 0.44,-0.39 0.86,-0.8 1.28,-1.21 0.59,-0.58 1.18,-1.16 1.77,-1.75 0.08,-0.08 0.12,-0.18 0.13,-0.28 0.01,-0.1 -0.02,-0.19 -0.1,-0.28z"/>
     <path class="fil1" d="M262.85 241.66l0 0c0.02,-0.02 0.03,-0.03 0.05,-0.05 -0.01,0.01 -0.01,0.01 -0.02,0.02 -0.01,0.01 -0.02,0.02 -0.03,0.03l0 0zm-0.01 0.02l0 0c0.01,-0.01 0.01,-0.02 0.02,-0.03 -0.03,0.03 -0.06,0.06 -0.08,0.1 0,-0 0.01,-0.01 0.01,-0.01 0.01,-0.01 0.03,-0.03 0.05,-0.05l0 0zm-19.06 25.33l0 0c-0.05,0.03 -0.11,0.07 -0.16,0.11 0.05,-0.03 0.11,-0.07 0.16,-0.11zm15.21 -25.32l0 0c-0.05,0.03 -0.1,0.06 -0.15,0.1 0.05,-0.03 0.1,-0.07 0.15,-0.1l0 0zm6.3 -3.02l0 0c-0.78,1.01 -1.6,1.99 -2.42,2.97 0.01,-0.01 0.01,-0.01 0.02,-0.02 0.02,-0.02 0.04,-0.05 0.06,-0.07 -0.01,0.01 -0.03,0.03 -0.04,0.05 0,-0 0.01,-0.01 0.01,-0.01 -0.02,0.03 -0.05,0.05 -0.07,0.08 0.01,-0.01 0.01,-0.01 0.01,-0.02 -0,0.01 -0.01,0.01 -0.01,0.02 -0.01,0 -0.01,0.01 -0.01,0.01 -0.01,0.01 -0.02,0.02 -0.03,0.03 -0.02,0.02 -0.03,0.04 -0.05,0.06 0.01,-0.01 0.03,-0.03 0.04,-0.04 -0.44,0.5 -0.88,1.01 -1.32,1.51 0.02,-0.02 0.04,-0.04 0.06,-0.06 -1.02,1.16 -2.04,2.32 -3.06,3.5 -0.47,0.55 -0.92,1.12 -1.37,1.68 -0.43,0.54 -0.83,1.12 -1.23,1.68 -1.27,1.77 -2.31,3.69 -3.36,5.6 -1.54,2.8 -2.94,5.71 -5.02,8.15 -0.59,0.67 -1.22,1.3 -1.9,1.87 -0.63,0.52 -1.29,0.99 -1.96,1.46 -0.7,0.47 -1.42,0.93 -2.14,1.37 0.25,-0.57 0.5,-1.14 0.74,-1.71 0.44,-1.01 0.87,-2.02 1.28,-3.05 0.4,-1 0.76,-2.02 1.13,-3.03 0.35,-0.96 0.7,-1.92 1.06,-2.88 0.2,-0.54 0.41,-1.09 0.63,-1.63 0.18,-0.46 0.38,-0.9 0.58,-1.34 0.22,-0.44 0.44,-0.88 0.69,-1.31 0.33,-0.57 0.67,-1.11 1.03,-1.66 0.61,-0.95 1.3,-1.83 2.02,-2.69 1.21,-1.34 2.46,-2.65 3.8,-3.85 0.74,-0.66 1.48,-1.35 2.26,-1.95 0.76,-0.59 1.53,-1.17 2.31,-1.73 1.38,-0.93 2.78,-1.83 4.2,-2.71 0.68,-0.42 1.35,-0.83 2.02,-1.26 0.37,-0.23 0.72,-0.46 1.09,-0.7 0.13,-0.08 0.26,-0.17 0.39,-0.25 -0.08,0.12 -0.17,0.23 -0.25,0.34 -0.38,0.53 -0.77,1.06 -1.17,1.57l0 0zm2.31 -3.35l0 0c-0.01,0.01 -0.01,0.02 -0.02,0.04l0 0c0.01,-0.01 0.01,-0.03 0.02,-0.04l0 0zm1.37 0.32l0 0c0,-0.03 0.01,-0.08 0.01,-0.12 0,-0.09 0,-0.18 -0.02,-0.25 -0.08,-0.23 -0.22,-0.56 -0.51,-0.61 -0.16,-0.03 -0.29,-0.06 -0.45,-0.04 -0.15,0.01 -0.3,0.06 -0.44,0.12 -0.77,0.31 -1.48,0.76 -2.19,1.19 -0.4,0.24 -0.8,0.48 -1.21,0.71 -1.95,1.11 -3.93,2.18 -5.86,3.33 -0.98,0.59 -1.92,1.24 -2.86,1.89 -0.88,0.6 -1.69,1.3 -2.51,1.97 -0.83,0.69 -1.62,1.42 -2.39,2.17 -0.82,0.81 -1.56,1.69 -2.27,2.59 -0.66,0.83 -1.23,1.73 -1.78,2.63 -0.29,0.48 -0.56,0.96 -0.83,1.44 -0.14,0.25 -0.26,0.51 -0.38,0.77 -0.12,0.24 -0.26,0.49 -0.36,0.74 -0.2,0.46 -0.4,0.92 -0.58,1.39 -0.21,0.55 -0.41,1.09 -0.61,1.64 -0.34,0.96 -0.68,1.92 -1.03,2.88 -0.38,1.01 -0.75,2.03 -1.18,3.02 -0.44,1.01 -0.92,2.01 -1.41,3.01 0.04,-0.09 0.08,-0.18 0.12,-0.26 -0.62,1.25 -1.29,2.47 -1.92,3.72 -0.12,0.18 -0.19,0.38 -0.2,0.59 0.01,0.1 0.02,0.21 0.02,0.32 0,0 0,0 0,0 -0.22,0.13 -0.44,0.26 -0.66,0.38 -0.3,0.17 -0.52,0.41 -0.63,0.74 -0.11,0.33 -0.08,0.69 0.07,1 0.31,0.6 1.13,0.92 1.74,0.57 1.38,-0.81 2.76,-1.61 4.13,-2.44 1.34,-0.82 2.68,-1.69 3.91,-2.66 1.23,-0.97 2.36,-2.12 3.3,-3.37 0.48,-0.64 0.92,-1.31 1.35,-1.98 0.39,-0.62 0.77,-1.26 1.11,-1.91 0.27,-0.54 0.55,-1.07 0.82,-1.6 0.45,-0.86 0.88,-1.74 1.32,-2.6 0.23,-0.46 0.46,-0.92 0.71,-1.37 0.28,-0.51 0.54,-1.04 0.83,-1.54 0.33,-0.55 0.65,-1.09 0.98,-1.64 0.25,-0.41 0.53,-0.79 0.8,-1.19 0.27,-0.38 0.52,-0.78 0.81,-1.15 0.43,-0.54 0.86,-1.08 1.28,-1.63 0.58,-0.73 1.19,-1.44 1.8,-2.15 0.79,-0.92 1.57,-1.85 2.35,-2.79 1.33,-1.59 2.59,-3.25 3.69,-5.02 0.28,-0.45 0.55,-0.93 0.76,-1.41 0.09,-0.2 0.19,-0.4 0.25,-0.62 0.04,-0.14 0.08,-0.29 0.1,-0.44l0 0z"/>
     <path class="fil1" d="M267.78 235.52c-0.68,0.62 -1.35,1.25 -2.01,1.89 -0.6,0.59 -1.2,1.17 -1.81,1.75 -0.65,0.61 -1.31,1.21 -1.97,1.81 -0.62,0.56 -1.26,1.1 -1.87,1.67 -0.52,0.48 -1.04,0.96 -1.53,1.48 -0.26,0.27 -0.52,0.54 -0.77,0.81 -0.25,0.28 -0.5,0.55 -0.74,0.83 0.01,-0.01 0.01,-0.01 0.02,-0.02 -0.28,0.33 -0.57,0.67 -0.84,1 -0.12,0.14 -0.24,0.3 -0.35,0.45 -0.17,0.22 -0.34,0.44 -0.52,0.66 -0.08,0.11 -0.16,0.22 -0.23,0.33 -0.18,0.26 -0.36,0.51 -0.55,0.77 -0.25,0.35 -0.48,0.72 -0.7,1.09 -0.45,0.71 -0.88,1.43 -1.32,2.15 -0.44,0.72 -0.88,1.43 -1.35,2.14 -0.99,1.51 -1.99,3.01 -2.97,4.53 -0.91,1.41 -1.79,2.86 -2.69,4.28 -0.39,0.61 -0.78,1.23 -1.19,1.83 -0.51,0.77 -1.03,1.55 -1.54,2.32 -0.15,0.22 -0.32,0.43 -0.48,0.65 -0.34,0.47 -0.69,0.93 -1.03,1.4 -0.28,0.39 -0.57,0.78 -0.85,1.17 -0.42,0.57 -0.85,1.12 -1.28,1.68 -0.09,0.13 -0.21,0.22 -0.37,0.26 -0.16,0.03 -0.32,-0 -0.46,-0.09 -0.26,-0.17 -0.37,-0.57 -0.17,-0.83 0.44,-0.58 0.89,-1.16 1.32,-1.75 0.33,-0.45 0.66,-0.9 0.99,-1.36 0.35,-0.48 0.7,-0.95 1.05,-1.43 0.12,-0.17 0.25,-0.33 0.37,-0.51 0.58,-0.88 1.17,-1.76 1.75,-2.64 0.18,-0.27 0.35,-0.55 0.53,-0.83 0.27,-0.43 0.54,-0.86 0.81,-1.28 0.42,-0.67 0.83,-1.34 1.25,-2 0.52,-0.82 1.03,-1.64 1.56,-2.45 0.44,-0.68 0.89,-1.36 1.35,-2.04 0.48,-0.71 0.96,-1.42 1.42,-2.14 0.48,-0.75 0.95,-1.5 1.42,-2.26 0.24,-0.39 0.48,-0.78 0.72,-1.17 0.25,-0.4 0.51,-0.79 0.77,-1.18 0.08,-0.13 0.18,-0.25 0.26,-0.37 0.18,-0.25 0.36,-0.5 0.54,-0.75 0.26,-0.35 0.54,-0.68 0.81,-1.02 0.57,-0.71 1.19,-1.38 1.81,-2.04 1.15,-1.23 2.42,-2.32 3.73,-3.38 1.35,-1.09 2.7,-2.18 3.97,-3.36 0.43,-0.4 0.85,-0.8 1.27,-1.2 0.48,-0.45 0.95,-0.88 1.43,-1.32 0.13,-0.12 0.34,-0.1 0.45,0.03 0.06,0.07 0.09,0.15 0.08,0.23 -0.01,0.08 -0.04,0.16 -0.1,0.22l0 0z"/>
     <path class="fil1" d="M286.32 268.11l0 0c0.01,-0.01 0.03,-0.01 0.05,-0.01 -0.01,0 -0.01,0 -0.02,0 -0.01,0 -0.02,0.01 -0.03,0.01l0 0zm-21.05 5.35l0 0c0.02,-0 0.03,-0 0.05,-0.01 -0.01,0 -0.03,0 -0.05,0.01 0,0 0,0 0,0l0 0zm-17.4 -0.07l0 0c-0.05,-0.01 -0.09,-0.01 -0.14,-0.02 0.04,0.01 0.09,0.02 0.14,0.02l0 0zm13.91 -2.86l0 0c-0.84,0.15 -1.7,0.23 -2.55,0.31 -0.37,0.01 -0.73,0.03 -1.1,0.04 -0.34,0.01 -0.68,-0 -1.02,-0.01 -0.63,-0.01 -1.28,-0.03 -1.91,-0.07 -1.85,-0.11 -3.7,-0.25 -5.55,-0.4 0.44,-0.03 0.89,-0.06 1.33,-0.1 -0.05,0 -0.1,0.01 -0.15,0.01 0.79,-0.06 1.58,-0.15 2.36,-0.25 0.74,-0.09 1.47,-0.24 2.21,-0.38 1.4,-0.27 2.8,-0.54 4.21,-0.79 1.81,-0.32 3.62,-0.66 5.43,-0.95 0.58,-0.09 1.15,-0.18 1.72,-0.26 0.42,-0.07 0.84,-0.11 1.25,-0.16 0.88,-0.1 1.75,-0.18 2.63,-0.26 0.74,-0.05 1.49,-0.09 2.23,-0.14 0.34,-0.02 0.68,-0.02 1.02,-0.03 0.39,-0.01 0.78,-0.03 1.17,-0.03 0.49,-0.01 0.99,0.01 1.49,0.01 0.37,0.01 0.75,0.02 1.11,0.03 0.01,0 0.02,0 0.03,0 -0.81,0.19 -1.61,0.39 -2.42,0.58 -0.88,0.21 -1.75,0.4 -2.63,0.57 -0.87,0.17 -1.75,0.33 -2.62,0.51 -1.85,0.37 -3.7,0.8 -5.55,1.22 -0.89,0.2 -1.79,0.37 -2.69,0.53l0 0zm13.7 0.36l0 0c-0.79,0.32 -1.59,0.62 -2.4,0.91 -0.46,0.14 -0.92,0.29 -1.38,0.43 -0.33,0.11 -0.67,0.19 -1.01,0.28 -0.55,0.14 -1.09,0.29 -1.64,0.4 -1.23,0.25 -2.48,0.43 -3.73,0.53 0.08,-0.01 0.15,-0.01 0.22,-0.01 -0.09,0.01 -0.18,0.01 -0.27,0.02 -0.01,0 -0.02,0 -0.03,0 0.01,0 0.02,-0 0.03,-0 -1.3,0.09 -2.61,0.12 -3.92,0.01 -0.74,-0.06 -1.46,-0.14 -2.19,-0.24 -0.92,-0.12 -1.83,-0.27 -2.74,-0.43 -0.59,-0.12 -1.17,-0.24 -1.75,-0.36 -0.77,-0.15 -1.53,-0.34 -2.29,-0.53 -0.08,-0.02 -0.15,-0.03 -0.23,-0.06 1.12,0.12 2.25,0.22 3.37,0.31 0.93,0.07 1.85,0.14 2.78,0.12 0.48,-0.01 0.96,-0.02 1.44,-0.06 0.52,-0.03 1.03,-0.07 1.54,-0.14 0.95,-0.12 1.89,-0.28 2.83,-0.46 0.9,-0.18 1.79,-0.38 2.69,-0.59 1.78,-0.4 3.56,-0.77 5.35,-1.12 1.75,-0.35 3.48,-0.75 5.2,-1.15 0.85,-0.19 1.69,-0.41 2.54,-0.57 0.78,-0.14 1.56,-0.26 2.35,-0.34 -0.54,0.23 -1.08,0.47 -1.61,0.72 -0.91,0.42 -1.83,0.85 -2.74,1.27 -0.79,0.37 -1.61,0.71 -2.42,1.04l0 0zm8.7 -3.16l0 0c-0.01,0 -0.01,0 -0.02,0 0.01,0 0.01,-0 0.02,-0 0,0 0,0 0,0l0 0zm2.54 0.24l0 0c-0.03,0.01 -0.06,0.02 -0.09,0.03 0.03,-0.01 0.06,-0.02 0.09,-0.03l0 0zm0.55 -0.41l0 0c0.07,-0.11 0.11,-0.24 0.12,-0.37 0.02,-0.32 -0.17,-0.65 -0.51,-0.76 -0.33,-0.11 -0.68,-0.14 -1.03,-0.17 -0.26,-0.02 -0.52,-0.05 -0.77,-0.07 -0.39,-0.03 -0.77,-0.06 -1.16,-0.09 -0.74,-0.05 -1.48,-0.09 -2.23,-0.13 -1.84,-0.11 -3.69,-0.19 -5.54,-0.19 -0.39,0 -0.79,-0.01 -1.18,0.01 -0.59,0.02 -1.19,0.05 -1.78,0.07 -0.92,0.04 -1.83,0.12 -2.74,0.2 0.01,0 0.03,-0 0.04,-0 -0.45,0.03 -0.9,0.09 -1.35,0.14 -0.34,0.03 -0.68,0.07 -1.02,0.11 -0.47,0.06 -0.95,0.11 -1.42,0.19 -0.49,0.08 -0.98,0.16 -1.46,0.24 -1.61,0.26 -3.22,0.57 -4.83,0.86 -1.83,0.33 -3.66,0.67 -5.48,1.03 -0.47,0.09 -0.94,0.17 -1.41,0.25 -0.45,0.08 -0.9,0.12 -1.35,0.18 -0.82,0.1 -1.65,0.15 -2.48,0.22 0.02,0 0.03,-0 0.05,-0.01 -1.03,0.07 -2.05,0.13 -3.08,0.16 -0.51,0.01 -1.03,0.02 -1.54,0.03 -0.27,0.01 -0.53,0.01 -0.8,0.02 -0.12,0 -0.23,0.01 -0.34,0.01 -0.12,0 -0.24,0 -0.35,0.02 -0.15,0.02 -0.26,0.06 -0.39,0.12 -0.27,0.12 -0.36,0.48 -0.23,0.72 -0.9,-0.04 -1.8,-0.09 -2.71,-0.12 -0.68,-0.03 -1.27,0.48 -1.31,1.16 -0.04,0.67 0.49,1.28 1.16,1.31 1.02,0.04 2.05,0.09 3.07,0.14 0.57,0.03 1.14,0.06 1.71,0.11 0.91,0.08 1.81,0.22 2.7,0.38 0.13,0.02 0.25,0.06 0.38,0.08 1.9,0.41 3.79,0.86 5.69,1.29 0.45,0.1 0.9,0.17 1.35,0.26 0.45,0.09 0.9,0.18 1.36,0.26 0.57,0.09 1.14,0.17 1.71,0.26 0.44,0.07 0.89,0.11 1.33,0.16 0.8,0.09 1.6,0.17 2.4,0.2 1.4,0.05 2.81,-0.02 4.21,-0.16 0.7,-0.07 1.4,-0.15 2.09,-0.28 0.57,-0.1 1.15,-0.19 1.71,-0.34 0.52,-0.14 1.03,-0.28 1.54,-0.41 0.36,-0.1 0.71,-0.21 1.06,-0.32 0.51,-0.17 1.03,-0.33 1.52,-0.52 0.52,-0.2 1.03,-0.4 1.55,-0.61 0.39,-0.15 0.77,-0.33 1.16,-0.5 1.68,-0.73 3.3,-1.57 4.93,-2.41 0.79,-0.4 1.58,-0.79 2.37,-1.17 0.77,-0.37 1.54,-0.72 2.34,-1.01 -0.03,0.01 -0.06,0.02 -0.09,0.03 0.04,-0.01 0.08,-0.03 0.11,-0.04 0.03,-0.01 0.06,-0.02 0.08,-0.03 -0.02,0.01 -0.04,0.02 -0.06,0.03 0.07,-0.03 0.13,-0.05 0.2,-0.07 -0.01,0.01 -0.03,0.01 -0.04,0.01 0.13,-0.05 0.27,-0.09 0.39,-0.15 0.15,-0.07 0.26,-0.19 0.34,-0.33l0 0z"/>
     <path class="fil1" d="M267.8 256.4l0 0c-0.03,0.08 -0.07,0.16 -0.11,0.23 0.04,-0.08 0.08,-0.15 0.11,-0.23l0 0zm6.29 -4.78l0 0c-0.01,0.01 -0.03,0.03 -0.05,0.05 0.01,-0.02 0.03,-0.03 0.04,-0.05l0 0zm5.74 -15.38l0 0c-0.01,0.01 -0.03,0.03 -0.05,0.05 0.01,-0.02 0.03,-0.04 0.05,-0.05l0 0zm4.93 -4.63l0 0c-0.04,0.03 -0.08,0.06 -0.12,0.09 0.04,-0.03 0.08,-0.06 0.12,-0.09l0 0zm-6.75 14.18l0 0c-1.21,2.07 -2.47,4.13 -4.04,5.95 -1.47,1.65 -3.16,3.08 -4.97,4.34 -0.5,0.34 -1.01,0.67 -1.53,0.99 0.07,-0.14 0.14,-0.29 0.21,-0.43 0.84,-1.66 1.74,-3.29 2.48,-5 0.35,-0.82 0.68,-1.64 1.03,-2.46 0.32,-0.75 0.67,-1.48 1.02,-2.22 0.05,-0.1 0.1,-0.2 0.16,-0.3 0.47,-0.91 0.95,-1.82 1.51,-2.67 0.3,-0.46 0.59,-0.94 0.91,-1.38 0.37,-0.5 0.73,-1 1.09,-1.49 0.61,-0.83 1.27,-1.63 1.92,-2.43 0.63,-0.78 1.28,-1.55 1.93,-2.31 0.5,-0.55 1,-1.09 1.5,-1.64 0.48,-0.52 0.99,-1.01 1.52,-1.48 0.64,-0.58 1.32,-1.13 2.03,-1.63 0.76,-0.5 1.57,-0.95 2.4,-1.28 -0.29,0.4 -0.59,0.81 -0.87,1.23 -0.42,0.64 -0.83,1.29 -1.24,1.94 -0.72,1.16 -1.39,2.35 -2.06,3.53 -1.1,1.98 -2.21,3.97 -3.33,5.94 -0.54,0.94 -1.1,1.88 -1.65,2.83l0 0zm10.87 -15.88l0 0c0.02,-0.06 0.03,-0.12 0.04,-0.19 0.01,-0.21 -0.07,-0.46 -0.21,-0.6 -0.19,-0.22 -0.5,-0.27 -0.77,-0.26 -0.36,0.01 -0.7,0.11 -1.03,0.22 -0.69,0.24 -1.36,0.58 -1.99,0.94 -0.59,0.34 -1.17,0.72 -1.71,1.13 -1.01,0.78 -1.98,1.63 -2.86,2.55 -0.77,0.81 -1.55,1.61 -2.29,2.44 -0.75,0.84 -1.5,1.69 -2.24,2.55 0.04,-0.05 0.08,-0.1 0.12,-0.15 -0.54,0.62 -1.07,1.24 -1.58,1.89 -0.34,0.43 -0.71,0.85 -1.03,1.29 -0.36,0.5 -0.73,1.01 -1.09,1.51 -0.32,0.43 -0.59,0.9 -0.89,1.34 -0.28,0.43 -0.53,0.88 -0.79,1.32 -1.03,1.73 -1.92,3.54 -2.81,5.35 -0.85,1.62 -1.78,3.2 -2.65,4.82 -0.43,0.81 -0.85,1.62 -1.28,2.44 -0.21,0.4 -0.41,0.8 -0.61,1.2 -0.28,0.56 -0.51,1.13 -0.74,1.71 -0.23,0.62 0.15,1.33 0.76,1.54 0.51,0.17 1.1,-0.03 1.4,-0.48 0.29,-0.43 0.58,-0.87 0.82,-1.34 0.19,-0.37 0.37,-0.74 0.56,-1.12 0.2,0.04 0.42,0.01 0.6,-0.1 2.26,-1.37 4.51,-2.77 6.49,-4.53 1,-0.9 1.94,-1.86 2.79,-2.9 0.79,-0.98 1.51,-2.02 2.17,-3.09 1.24,-2.02 2.37,-4.11 3.5,-6.19 0.99,-1.83 1.93,-3.69 2.9,-5.54 0.99,-1.88 1.98,-3.77 3.07,-5.6 0.28,-0.48 0.58,-0.95 0.88,-1.41 0.16,-0.25 0.32,-0.48 0.44,-0.75l0 0z"/>
     <path class="fil1" d="M265.37 258.4l0 0c0.01,-0.01 0.02,-0.02 0.03,-0.03 -0.01,0.02 -0.03,0.03 -0.04,0.05 0,-0.01 0.01,-0.01 0.01,-0.01l0 0zm18.59 -23.45l0 0c-0.01,0.01 -0.02,0.02 -0.03,0.03 0.01,-0.01 0.02,-0.02 0.03,-0.03l0 0zm4.66 -4.73l0 0c0.07,-0.07 0.11,-0.16 0.12,-0.25 0,-0.09 -0.02,-0.17 -0.09,-0.24 -0.13,-0.14 -0.34,-0.14 -0.48,-0.03 -0.71,0.56 -1.39,1.15 -2.07,1.77 -0.65,0.58 -1.29,1.17 -1.89,1.8 -0.29,0.31 -0.57,0.62 -0.86,0.93 -0.32,0.35 -0.62,0.72 -0.92,1.09 -0.52,0.63 -1,1.29 -1.47,1.95 -0.98,1.39 -1.93,2.82 -2.89,4.23 -1.01,1.49 -2.01,2.98 -3.04,4.46 -0.95,1.37 -1.9,2.75 -2.88,4.1 -0.49,0.67 -0.96,1.35 -1.47,2 -0.68,0.87 -1.37,1.73 -2.06,2.6 -0.11,0.15 -0.23,0.29 -0.36,0.43 -0.36,0.42 -0.72,0.84 -1.09,1.26 -0.59,0.68 -1.17,1.36 -1.76,2.05 0.01,-0.01 0.02,-0.02 0.03,-0.03 -0.02,0.02 -0.04,0.04 -0.06,0.06 -0.01,0.01 -0.01,0.01 -0.02,0.03 0,-0.01 0.01,-0.01 0.01,-0.01 -0.5,0.57 -1.01,1.14 -1.51,1.71 -0.09,0.1 -0.15,0.19 -0.16,0.33 -0.01,0.12 0.03,0.24 0.12,0.34 0.08,0.09 0.2,0.14 0.33,0.15 0.11,0.01 0.26,-0.03 0.34,-0.12 0.8,-0.9 1.6,-1.79 2.38,-2.7 0.7,-0.82 1.42,-1.65 2.13,-2.47 0.12,-0.13 0.24,-0.27 0.35,-0.41 0.23,-0.3 0.47,-0.6 0.7,-0.9 0.55,-0.7 1.1,-1.39 1.65,-2.09 0.07,-0.09 0.14,-0.19 0.21,-0.29 0.16,-0.22 0.32,-0.45 0.48,-0.67 0.32,-0.44 0.64,-0.88 0.97,-1.32 0.2,-0.28 0.39,-0.56 0.59,-0.84 0.27,-0.39 0.54,-0.77 0.81,-1.15 0.97,-1.4 1.93,-2.8 2.88,-4.21 1,-1.49 1.99,-2.97 3,-4.44 0.95,-1.39 1.93,-2.77 3.04,-4.05 -0.01,0.01 -0.02,0.02 -0.02,0.03 0.11,-0.13 0.23,-0.26 0.34,-0.39 0.03,-0.03 0.06,-0.07 0.09,-0.1 -0.03,0.03 -0.06,0.06 -0.08,0.09 0.74,-0.82 1.49,-1.63 2.27,-2.41 0.38,-0.37 0.75,-0.74 1.13,-1.1 0.41,-0.39 0.82,-0.78 1.22,-1.18l0 0z"/>
     <path class="fil1" d="M287.24 258.61l0 0c0.02,-0.01 0.05,-0.02 0.07,-0.03 -0.01,0.01 -0.03,0.01 -0.04,0.01 -0.01,0.01 -0.02,0.01 -0.03,0.01l0 0zm-6.82 2.48l0 0c0.06,-0.02 0.11,-0.04 0.17,-0.06 -0.06,0.02 -0.11,0.04 -0.17,0.06l0 0zm-5.55 -2.1l0 0c-0.64,0.13 -1.28,0.26 -1.92,0.38 0.93,-0.31 1.86,-0.63 2.79,-0.94 0.76,-0.26 1.52,-0.5 2.28,-0.75 0.87,-0.28 1.74,-0.57 2.63,-0.81 0.45,-0.12 0.9,-0.21 1.35,-0.31 0.44,-0.1 0.89,-0.16 1.33,-0.23 0.8,-0.13 1.62,-0.2 2.42,-0.28 0.92,-0.07 1.84,-0.13 2.76,-0.12 0.09,0.01 0.18,0.01 0.27,0.01 -0.57,0.04 -1.13,0.1 -1.7,0.17 -0.8,0.1 -1.58,0.27 -2.37,0.44 -0.82,0.17 -1.64,0.36 -2.45,0.55 -0.81,0.19 -1.62,0.39 -2.43,0.62 -0.83,0.23 -1.66,0.48 -2.49,0.7 -0.82,0.21 -1.63,0.42 -2.46,0.58l0 0zm0.73 1.79l0 0c-0.8,0.17 -1.61,0.26 -2.42,0.36 -0.41,0.03 -0.81,0.06 -1.22,0.08 1.02,-0.2 2.03,-0.41 3.05,-0.65 1.66,-0.38 3.28,-0.91 4.89,-1.45 1.64,-0.55 3.27,-1.11 4.92,-1.64 0.77,-0.24 1.55,-0.46 2.33,-0.63 0.65,-0.14 1.32,-0.22 1.98,-0.29 -0.71,0.23 -1.42,0.45 -2.12,0.68 -1.27,0.4 -2.52,0.86 -3.78,1.28 -1.66,0.56 -3.33,1.12 -5.01,1.6 -0.86,0.25 -1.74,0.46 -2.61,0.65l0 0zm17.63 -4.84l0 0c0,-0.02 0.01,-0.05 0.01,-0.08 0.01,-0.22 -0.08,-0.42 -0.24,-0.58 -0.18,-0.18 -0.45,-0.29 -0.69,-0.35 -0.43,-0.11 -0.88,-0.19 -1.32,-0.25 -0.22,-0.03 -0.45,-0.07 -0.67,-0.09 -0.87,-0.08 -1.74,-0.15 -2.61,-0.14 -0.42,0.01 -0.84,0.01 -1.26,0.04 -0.5,0.03 -1,0.07 -1.5,0.12 -0.46,0.05 -0.91,0.1 -1.36,0.16 -0.46,0.06 -0.91,0.13 -1.36,0.21 -1.66,0.28 -3.26,0.83 -4.86,1.33 -1.64,0.52 -3.28,1.05 -4.92,1.58 -1.66,0.53 -3.32,1.06 -4.99,1.58 -0.4,0.12 -0.79,0.25 -1.19,0.39 -0.33,0.11 -0.69,0.24 -0.9,0.55 -0.12,0.17 -0.16,0.38 -0.14,0.57 -0.61,0 -1.22,0 -1.84,0.01 -0.32,0 -0.6,0.08 -0.84,0.29 -0.23,0.21 -0.37,0.5 -0.39,0.8 -0.02,0.31 0.09,0.61 0.29,0.84 0.19,0.21 0.5,0.39 0.8,0.38 1.22,-0.02 2.45,-0.02 3.67,-0.02 1.05,0 2.1,0.03 3.14,-0.01 0.97,-0.04 1.94,-0.1 2.91,-0.22 0.44,-0.06 0.88,-0.13 1.32,-0.2 0.43,-0.08 0.86,-0.18 1.29,-0.27 0.41,-0.09 0.81,-0.21 1.21,-0.31 0.39,-0.1 0.78,-0.22 1.17,-0.34 0.82,-0.27 1.64,-0.54 2.46,-0.82 -0.01,0.01 -0.02,0.01 -0.03,0.01 2.29,-0.81 4.56,-1.67 6.85,-2.48 -0.02,0.01 -0.04,0.01 -0.06,0.02 0.03,-0.01 0.06,-0.02 0.08,-0.03 0.03,-0.01 0.06,-0.02 0.09,-0.03 -0.01,0 -0.03,0.01 -0.04,0.01 0.82,-0.28 1.64,-0.55 2.46,-0.83 0.43,-0.15 0.87,-0.3 1.3,-0.46 0.41,-0.15 0.81,-0.29 1.21,-0.48 0.16,-0.07 0.31,-0.14 0.46,-0.23 0.1,-0.06 0.19,-0.12 0.27,-0.2 0.14,-0.14 0.18,-0.26 0.21,-0.44l0 0z"/>
     <path class="fil1" d="M295.68 229.02l0 0c-0.03,0.04 -0.07,0.08 -0.1,0.12 0.03,-0.04 0.07,-0.08 0.1,-0.12l0 -0zm-6.2 9l0 0c-0.15,0.24 -0.3,0.48 -0.45,0.72 0.01,-0.02 0.02,-0.05 0.03,-0.08 0.2,-0.5 0.4,-0.99 0.63,-1.48 0.87,-1.73 2.05,-3.27 3.24,-4.79 0.41,-0.53 0.83,-1.06 1.25,-1.58 0.46,-0.56 0.92,-1.12 1.4,-1.67 0.27,-0.29 0.53,-0.59 0.81,-0.87 0.3,-0.3 0.59,-0.61 0.89,-0.9 0.04,-0.03 0.08,-0.07 0.12,-0.12 -0.33,0.45 -0.67,0.9 -0.99,1.36 -1.06,1.46 -2.09,2.92 -3.17,4.36 -1,1.31 -2.09,2.56 -3.01,3.93 -0.25,0.37 -0.51,0.73 -0.75,1.11l0 0zm13.43 -15.62l0 0c-0.04,0.09 -0.08,0.18 -0.12,0.27 -0.12,0.23 -0.25,0.47 -0.37,0.7 -0.13,0.25 -0.29,0.49 -0.43,0.74 -0.26,0.45 -0.53,0.88 -0.81,1.32 -0.61,0.95 -1.23,1.88 -1.84,2.83 -0.95,1.46 -1.87,2.94 -2.86,4.37 -0.5,0.74 -1.03,1.46 -1.57,2.17 -0.51,0.66 -1.06,1.29 -1.61,1.91 0.05,-0.06 0.1,-0.11 0.14,-0.17 -0.53,0.59 -1.06,1.18 -1.62,1.75 -0.49,0.51 -1.01,0.99 -1.52,1.48 -0.35,0.33 -0.7,0.66 -1.06,0.99 0.24,-0.46 0.48,-0.91 0.73,-1.37 0.34,-0.61 0.73,-1.19 1.11,-1.78 0.46,-0.7 0.96,-1.37 1.47,-2.04 0.49,-0.66 1.03,-1.29 1.52,-1.96 1.06,-1.43 2.08,-2.89 3.13,-4.31 0.99,-1.33 2.04,-2.61 3.06,-3.92 0.52,-0.67 1.06,-1.33 1.59,-2 0.06,-0.08 0.13,-0.17 0.2,-0.25 0.07,-0.06 0.14,-0.12 0.21,-0.18 0.21,-0.19 0.43,-0.38 0.64,-0.57l0 0zm1.68 0.13l0 0c0.18,-0.45 0.33,-0.93 0.36,-1.42 0,-0.01 0,-0.03 0,-0.05 0.01,-0.13 -0.01,-0.28 -0.05,-0.4 -0.03,-0.12 -0.08,-0.21 -0.16,-0.31 -0.01,-0.02 -0.02,-0.04 -0.04,-0.06 -0.16,-0.22 -0.49,-0.24 -0.72,-0.21 -0.22,0.03 -0.43,0.21 -0.6,0.34 -0.08,0.06 -0.16,0.12 -0.24,0.18l0 0c-0.12,-0 -0.23,0.03 -0.31,0.11 -0.21,0.19 -0.42,0.38 -0.62,0.58 -0.21,0.15 -0.41,0.31 -0.61,0.46 -1.38,1.04 -2.73,2.1 -4.04,3.24 -0.69,0.59 -1.37,1.19 -2.02,1.82 -0.65,0.62 -1.25,1.29 -1.85,1.96 -1.2,1.33 -2.32,2.73 -3.42,4.15 -0.26,0.33 -0.49,0.67 -0.74,1.01 -0.49,0.69 -0.94,1.4 -1.32,2.15 -0.18,0.36 -0.36,0.72 -0.52,1.1 -0.11,0.26 -0.22,0.52 -0.32,0.78 -0.17,0.39 -0.28,0.8 -0.42,1.2 -0.06,0.18 -0.1,0.37 -0.15,0.55 -0.06,0.24 -0.13,0.48 -0.2,0.72 -0.12,0.45 -0.21,0.91 -0.31,1.36 -0.09,0.42 -0.17,0.83 -0.23,1.26 -0.09,0.6 -0.19,1.2 -0.26,1.81 -0.05,0.5 0.39,0.95 0.87,0.98 0.25,0.01 0.49,-0.07 0.67,-0.23 0.19,-0.17 0.28,-0.39 0.31,-0.64 0.02,-0.21 0.05,-0.43 0.08,-0.65 0.23,-0.08 0.43,-0.24 0.62,-0.38 0.12,-0.09 0.24,-0.19 0.36,-0.28 0.2,-0.16 0.39,-0.32 0.58,-0.48 0.9,-0.75 1.76,-1.52 2.59,-2.34 1.24,-1.23 2.38,-2.55 3.46,-3.93 0.52,-0.67 1.06,-1.33 1.53,-2.04 0.49,-0.72 0.97,-1.46 1.46,-2.19 0.98,-1.48 1.96,-2.95 2.95,-4.42 0.99,-1.46 2.01,-2.9 2.78,-4.5 0.09,-0.19 0.19,-0.37 0.27,-0.57 0.09,-0.23 0.19,-0.47 0.28,-0.7l0 0z"/>
     <path class="fil1" d="M306.21 245.19l0 0c-0.67,0.27 -1.33,0.52 -2.01,0.76 -0.46,0.14 -0.93,0.29 -1.4,0.44 -1,0.31 -2.05,0.48 -3.09,0.57 -0.23,0.02 -0.47,0.03 -0.7,0.03 -2.21,0.06 -4.43,-0.17 -6.64,-0.37 -0.59,-0.05 -1.17,-0.11 -1.75,-0.17 0.16,-0.04 0.31,-0.09 0.46,-0.14 0.72,-0.24 1.44,-0.49 2.16,-0.74 1.86,-0.66 3.72,-1.35 5.64,-1.82 1.88,-0.46 3.81,-0.7 5.73,-0.9 1.2,-0.07 2.39,-0.1 3.59,-0.07 0.67,0.02 1.34,0.04 2,0.07 0.36,0.02 0.72,0.03 1.07,0.05 -0.32,0.15 -0.65,0.3 -0.98,0.45 -0.67,0.32 -1.35,0.63 -2.02,0.94 -0.68,0.31 -1.37,0.61 -2.07,0.89l0 0zm7.12 -2.04l0 0c0.13,-0.12 0.21,-0.31 0.23,-0.5 0.01,-0.06 0,-0.12 -0.01,-0.19 -0.06,-0.26 -0.31,-0.47 -0.57,-0.55 -0.29,-0.09 -0.61,-0.13 -0.91,-0.16 -1.04,-0.11 -2.09,-0.13 -3.13,-0.16 -1.02,-0.02 -2.03,-0.02 -3.05,-0.01 -0.48,0.01 -0.98,0.04 -1.46,0.08 -0.48,0.04 -0.95,0.08 -1.43,0.13 -0.97,0.11 -1.94,0.21 -2.9,0.35 -1.05,0.14 -2.1,0.29 -3.16,0.47 -0.97,0.16 -1.93,0.37 -2.89,0.58 -0.94,0.2 -1.87,0.41 -2.8,0.62 -0.43,0.1 -0.86,0.19 -1.29,0.29 -0.56,0.13 -1.12,0.29 -1.67,0.46 -0.29,0.08 -0.54,0.22 -0.71,0.48 -0.17,0.25 -0.23,0.57 -0.16,0.87 0.01,0.06 0.03,0.12 0.05,0.18 -0.54,-0.06 -1.08,-0.13 -1.62,-0.2 -0.49,-0.06 -0.93,0.38 -0.96,0.85 -0.03,0.51 0.36,0.9 0.85,0.96 0.81,0.1 1.63,0.19 2.44,0.28 1.07,0.12 2.13,0.22 3.19,0.31 0.95,0.08 1.91,0.14 2.87,0.2 0.95,0.06 1.9,0.1 2.85,0.1 0.86,0 1.7,-0.01 2.55,-0.09 1.19,-0.11 2.39,-0.33 3.52,-0.71 0.97,-0.33 1.96,-0.65 2.91,-1.06 0.92,-0.4 1.83,-0.81 2.73,-1.25 0.89,-0.43 1.77,-0.89 2.66,-1.33 0.41,-0.21 0.82,-0.41 1.23,-0.62 0.23,-0.12 0.46,-0.22 0.66,-0.39l0 0z"/>
     <path class="fil1" d="M287.1 245.77l0 0c0,0 0,0 0.01,0 -0.03,0 -0.05,0 -0.07,0 0.02,0 0.04,-0 0.07,-0l0 0zm24.71 -2.93l0 0c0.04,-0.07 0.07,-0.14 0.07,-0.21 0,-0.04 -0,-0.07 -0.01,-0.11 -0.05,-0.22 -0.28,-0.37 -0.5,-0.32 -0.66,0.14 -1.31,0.3 -1.96,0.45 -0.61,0.14 -1.22,0.26 -1.82,0.38 -1.64,0.33 -3.26,0.71 -4.91,1 -0.45,0.08 -0.9,0.16 -1.35,0.23 -0.45,0.07 -0.9,0.13 -1.35,0.19 -0.86,0.12 -1.72,0.19 -2.57,0.27 -0.89,0.09 -1.79,0.19 -2.68,0.29 -0.75,0.08 -1.49,0.18 -2.23,0.26 -0.87,0.09 -1.74,0.2 -2.61,0.27 -0.93,0.08 -1.86,0.16 -2.78,0.23 0.01,0 0.01,0 0.02,-0 -0.01,0 -0.02,0 -0.02,0 -0.05,0 -0.1,0.01 -0.14,0.01 0.02,-0 0.05,-0.01 0.07,-0.01 -0.34,0.02 -0.69,0.04 -1.04,0.06 -0.17,0.01 -0.31,0.03 -0.43,0.15 -0.12,0.1 -0.19,0.25 -0.2,0.41 -0.01,0.16 0.04,0.32 0.15,0.43 0.1,0.11 0.27,0.21 0.42,0.2 1.02,-0.06 2.03,-0.14 3.05,-0.22 0.62,-0.05 1.24,-0.1 1.86,-0.16 0.93,-0.1 1.86,-0.19 2.79,-0.3 0.88,-0.1 1.76,-0.21 2.65,-0.3 0.89,-0.09 1.79,-0.16 2.67,-0.26 0.83,-0.1 1.67,-0.19 2.5,-0.33 1.73,-0.3 3.43,-0.71 5.13,-1.13 0.79,-0.2 1.58,-0.39 2.36,-0.59 0.88,-0.22 1.76,-0.45 2.62,-0.73 0.11,-0.03 0.19,-0.08 0.26,-0.17l0 0z"/>
     <path class="fil1" d="M318.74 218.05l0 0c0.02,-0.01 0.05,-0.03 0.07,-0.05 -0.02,0.01 -0.05,0.03 -0.07,0.05l0 0zm-18.22 20.68l0 0c0.06,-0.02 0.13,-0.05 0.19,-0.07 -0.06,0.02 -0.13,0.04 -0.19,0.07zm13.38 -10.9l0 0c-0,0 -0,0 -0,0 -0,0 -0.01,0.01 -0.01,0.01 0.01,-0.01 0.01,-0.01 0.01,-0.01l0 0zm0.02 -0.02l0 0c0,0 -0,0 -0,0l0 0c0,0 0,-0 0,-0l0 0zm0.7 -0.88l0 0c-0.23,0.31 -0.47,0.6 -0.71,0.9 -0.01,0.01 -0.02,0.03 -0.04,0.04 -0.55,0.63 -1.11,1.24 -1.69,1.84 -0.54,0.56 -1.1,1.09 -1.67,1.62 -0.25,0.24 -0.53,0.46 -0.8,0.68 -0.34,0.28 -0.69,0.56 -1.04,0.84 -0.58,0.46 -1.17,0.88 -1.77,1.3 -0.43,0.28 -0.88,0.55 -1.32,0.81 -0.17,0.1 -0.35,0.2 -0.53,0.29 -0.2,0.1 -0.4,0.22 -0.6,0.31 -0.48,0.22 -0.95,0.43 -1.44,0.64 -0.4,0.17 -0.8,0.32 -1.21,0.47 -1.33,0.46 -2.67,0.88 -4.02,1.29 0.08,-0.08 0.17,-0.15 0.25,-0.23 0.62,-0.56 1.23,-1.12 1.81,-1.73 0.57,-0.61 1.14,-1.21 1.72,-1.82 0.59,-0.62 1.17,-1.24 1.73,-1.88 0.59,-0.67 1.15,-1.35 1.72,-2.03 0.23,-0.26 0.46,-0.52 0.7,-0.77 1.16,-1.26 2.46,-2.38 3.72,-3.54 0.61,-0.56 1.19,-1.14 1.82,-1.68 0.62,-0.54 1.27,-1.03 1.94,-1.51 0.61,-0.4 1.24,-0.79 1.87,-1.17 0.65,-0.37 1.31,-0.75 1.93,-1.17 0.67,-0.46 1.32,-0.92 1.97,-1.41 0.23,-0.17 0.46,-0.34 0.69,-0.51 -0.08,0.16 -0.16,0.31 -0.24,0.47 -0.4,0.78 -0.8,1.55 -1.22,2.32 -0.41,0.75 -0.82,1.51 -1.28,2.24 -0.48,0.77 -0.98,1.53 -1.49,2.28 -0.25,0.37 -0.52,0.72 -0.79,1.09l0 0zm6.24 -9.01l0 0c-0.01,0.02 -0.03,0.05 -0.04,0.08 0.01,-0.03 0.03,-0.05 0.04,-0.08l0 0zm0.26 -0.51l0 0c0.01,-0.03 0.02,-0.06 0.03,-0.1 0.01,-0.14 -0.07,-0.3 -0.18,-0.36 -0.12,-0.06 -0.22,-0.12 -0.36,-0.09 -0.12,0.03 -0.22,0.08 -0.32,0.15 -0.1,0.06 -0.19,0.12 -0.29,0.19 -0.21,0.13 -0.41,0.28 -0.61,0.41 0.02,-0.01 0.04,-0.03 0.06,-0.04 -0.24,0.16 -0.48,0.33 -0.72,0.5 0.01,-0.01 0.01,-0.01 0.02,-0.02 -0.66,0.45 -1.31,0.9 -1.99,1.32 -0.68,0.41 -1.38,0.81 -2.07,1.19 -0.69,0.39 -1.37,0.79 -2.03,1.21 -0.66,0.42 -1.29,0.9 -1.92,1.39 -0.68,0.52 -1.32,1.1 -1.98,1.66 -0.64,0.54 -1.29,1.07 -1.92,1.61 -0.66,0.56 -1.3,1.13 -1.92,1.73 -0.62,0.61 -1.19,1.26 -1.77,1.9 -1.12,1.24 -2.32,2.42 -3.46,3.64 -0.58,0.62 -1.12,1.27 -1.72,1.87 -0.62,0.63 -1.31,1.2 -1.94,1.82 -0.31,0.3 -0.37,0.8 -0.07,1.14 -0.14,0.04 -0.28,0.08 -0.41,0.13 -0.21,0.07 -0.37,0.15 -0.5,0.33 -0.12,0.18 -0.16,0.4 -0.12,0.6 0.04,0.21 0.17,0.39 0.34,0.5 0.17,0.11 0.41,0.17 0.6,0.11 1.62,-0.5 3.25,-0.98 4.85,-1.55 0.27,-0.1 0.53,-0.19 0.81,-0.28 -0.06,0.02 -0.12,0.04 -0.19,0.06 0.35,-0.12 0.7,-0.26 1.04,-0.39 0.3,-0.11 0.6,-0.23 0.89,-0.37 0.32,-0.15 0.65,-0.3 0.97,-0.44 0.14,-0.06 0.28,-0.14 0.41,-0.21 0.16,-0.08 0.32,-0.15 0.48,-0.24 0.61,-0.35 1.24,-0.71 1.82,-1.13 0.28,-0.2 0.56,-0.39 0.83,-0.6 0.29,-0.23 0.57,-0.46 0.86,-0.69 0.65,-0.55 1.3,-1.1 1.93,-1.67 0.64,-0.59 1.27,-1.19 1.88,-1.81 0.59,-0.6 1.16,-1.21 1.7,-1.86 0.31,-0.37 0.61,-0.73 0.9,-1.1 0.29,-0.36 0.55,-0.73 0.82,-1.11 0.26,-0.35 0.49,-0.72 0.73,-1.09 0.23,-0.35 0.45,-0.71 0.67,-1.06 0.47,-0.74 0.9,-1.5 1.32,-2.26 0.41,-0.75 0.82,-1.51 1.21,-2.27 0.38,-0.73 0.72,-1.47 1.07,-2.21 0.09,-0.17 0.18,-0.34 0.26,-0.51l0 0z"/>
     <path class="fil1" d="M254.89 283.73c-1.96,-0.13 -3.91,-0.43 -5.86,-0.73 -2.04,-0.31 -4.09,-0.6 -6.12,-0.95 -0.4,-0.08 -0.79,-0.16 -1.19,-0.26 -0.5,-0.12 -1,-0.26 -1.5,-0.4 -0.42,-0.12 -0.83,-0.25 -1.25,-0.39 -0.45,-0.15 -0.91,-0.3 -1.37,-0.46 -0.99,-0.34 -1.98,-0.7 -2.96,-1.08 -0.78,-0.3 -1.54,-0.66 -2.28,-1.03 -0.13,-0.07 -0.27,-0.14 -0.4,-0.2 -0.05,-0.03 -0.1,-0.06 -0.16,-0.09 -0.67,-0.36 -1.34,-0.73 -2.01,-1.1 -0.79,-0.43 -1.61,-0.81 -2.42,-1.19 1.85,0.1 3.69,0.15 5.53,0.25 0.97,0.06 1.93,0.12 2.89,0.21 0.89,0.08 1.77,0.24 2.65,0.39 0.35,0.08 0.71,0.16 1.06,0.23 0.34,0.08 0.69,0.18 1.03,0.28 0.32,0.08 0.62,0.18 0.93,0.29 0.31,0.11 0.63,0.21 0.94,0.33 0.41,0.17 0.82,0.34 1.23,0.51 0.34,0.14 0.67,0.3 0.99,0.46 0.6,0.28 1.2,0.57 1.8,0.86 1.78,0.88 3.55,1.79 5.36,2.64 1.07,0.5 2.17,0.96 3.25,1.43 -0.05,-0 -0.1,-0.01 -0.16,-0.01zm3.14 0.1c-0.26,-0.27 -0.59,-0.45 -0.91,-0.63 -0.23,-0.13 -0.46,-0.26 -0.7,-0.37 -0.53,-0.27 -1.06,-0.53 -1.59,-0.78 -1.03,-0.48 -2.05,-0.97 -3.06,-1.47 -0.19,-0.1 -0.39,-0.19 -0.58,-0.29 -1.85,-0.92 -3.7,-1.87 -5.58,-2.72 -0.48,-0.22 -0.96,-0.44 -1.45,-0.66 -0.46,-0.21 -0.94,-0.38 -1.41,-0.57 -0.23,-0.1 -0.48,-0.16 -0.72,-0.23 -0.21,-0.07 -0.42,-0.15 -0.63,-0.21 -0.48,-0.12 -0.94,-0.26 -1.42,-0.36 -1.07,-0.22 -2.14,-0.42 -3.23,-0.54 -1.07,-0.12 -2.14,-0.19 -3.21,-0.24 -2.16,-0.1 -4.33,-0.15 -6.49,-0.26 -0.36,-0.02 -0.68,0.26 -0.7,0.63 -0.01,0.17 0.06,0.34 0.16,0.47 -0.12,0.01 -0.23,0.05 -0.33,0.1 -0.15,0.08 -0.28,0.19 -0.37,0.33 -0.17,0.25 -0.16,0.57 -0.05,0.87 0.38,0.43 0.79,0.86 1.27,1.24 0.03,0.03 0.05,0.06 0.08,0.09 0.13,0.09 0.23,0.21 0.36,0.3 0.5,0.32 1.01,0.62 1.52,0.92 0.49,0.29 0.98,0.57 1.48,0.82 0.11,0.06 0.21,0.1 0.3,0.15 0.01,0 0.03,0.01 0.04,0.02 0,0 0.01,0 0.01,0 0.08,0.03 0.15,0.08 0.23,0.11 -0.08,-0.03 -0.15,-0.07 -0.23,-0.11 0.01,0 0.01,0.01 0.01,0.01 0.06,0.02 0.11,0.05 0.17,0.08 0.06,0.03 0.12,0.06 0.18,0.08 0.02,0.01 0.05,0.03 0.08,0.04 -0.02,-0.01 -0.04,-0.02 -0.07,-0.03 0.43,0.21 0.87,0.41 1.31,0.61 1.87,0.8 3.84,1.34 5.79,1.9 1.07,0.31 2.16,0.5 3.26,0.68 0.99,0.16 2,0.22 3.01,0.3 2.06,0.16 4.12,0.37 6.18,0.57 0.93,0.09 1.86,0.17 2.79,0.22 0.55,0.04 1.09,0.07 1.63,0.1 0.37,0.02 0.75,0.04 1.12,0.05 0.32,0 0.66,0.01 0.99,-0.03 0.27,-0.03 0.51,-0.12 0.7,-0.31 0.12,-0.12 0.2,-0.29 0.21,-0.46 0.01,-0.15 -0.04,-0.31 -0.16,-0.44z"/>
     <path class="fil1" d="M231.18 280.62l0 0c-0.03,-0.02 -0.07,-0.03 -0.1,-0.05 0.02,0.01 0.04,0.02 0.07,0.03 0.01,0.01 0.02,0.01 0.03,0.02l0 0z"/>
     <path class="fil1" d="M230.81 280.44l0 0c0.01,0.01 0.02,0.01 0.03,0.01 -0,-0 -0.01,-0.01 -0.01,-0.01 -0,-0 -0.01,-0.01 -0.01,-0.01l0 0z"/>
     <path class="fil1" d="M255.45 283.86c-0.06,0.19 -0.24,0.24 -0.42,0.21 -0.91,-0.19 -1.82,-0.4 -2.73,-0.58 -0.86,-0.17 -1.72,-0.34 -2.56,-0.57 -0.82,-0.22 -1.62,-0.5 -2.43,-0.75 -0.85,-0.26 -1.7,-0.48 -2.56,-0.7 -0.84,-0.22 -1.69,-0.42 -2.53,-0.64 -0.83,-0.22 -1.65,-0.47 -2.48,-0.71 -1.67,-0.49 -3.35,-0.98 -5.02,-1.47 -3.12,-0.91 -6.24,-1.77 -9.38,-2.63 -0.46,-0.13 -0.69,-0.68 -0.54,-1.11 0.07,-0.21 0.23,-0.39 0.43,-0.49 0.21,-0.12 0.45,-0.12 0.67,-0.05 2.06,0.57 4.11,1.15 6.16,1.74 1.62,0.47 3.23,0.97 4.83,1.48 0.8,0.25 1.61,0.5 2.41,0.75 0.82,0.26 1.65,0.52 2.48,0.76 0.86,0.24 1.73,0.48 2.6,0.72 0.84,0.23 1.67,0.46 2.5,0.73 0.67,0.22 1.32,0.5 1.98,0.76 0.67,0.27 1.35,0.51 2.03,0.75 0.66,0.23 1.34,0.42 2.01,0.64 0.78,0.25 1.55,0.52 2.34,0.77 0.14,0.04 0.23,0.19 0.22,0.34 0,0.03 -0.01,0.06 -0.02,0.09l0 0z"/>
     <path class="fil1" d="M239.61 250.47c-0.89,1.56 -1.76,3.12 -2.55,4.74 -0.85,1.72 -1.58,3.49 -2.45,5.2 -0.48,0.95 -0.97,1.89 -1.47,2.84 -0.59,1.12 -1.18,2.25 -1.9,3.3 -0.7,0.98 -1.49,1.88 -2.37,2.7 -0.47,0.44 -0.94,0.88 -1.41,1.31 0.01,-0.01 0.03,-0.02 0.04,-0.03 -0.45,0.37 -0.9,0.75 -1.34,1.12 -0.34,0.29 -0.67,0.59 -1.03,0.85 -0.38,0.27 -0.75,0.54 -1.13,0.8 0,-0 0,-0.01 0,-0.01 0.3,-0.79 0.61,-1.58 0.94,-2.37 0.33,-0.79 0.7,-1.56 1.07,-2.33 0.4,-0.83 0.81,-1.65 1.24,-2.47 0.23,-0.43 0.46,-0.85 0.7,-1.27 0.19,-0.35 0.41,-0.69 0.63,-1.03 0.47,-0.66 0.93,-1.31 1.43,-1.95 0.54,-0.69 1.08,-1.38 1.6,-2.09 0.57,-0.79 1.14,-1.57 1.73,-2.33 0.5,-0.66 1.04,-1.28 1.57,-1.91 0.63,-0.76 1.26,-1.52 1.9,-2.27 0.66,-0.75 1.34,-1.47 2.04,-2.18 0.31,-0.32 0.64,-0.63 0.96,-0.94 -0.06,0.11 -0.12,0.22 -0.19,0.33zm4.34 -4.86c-0.13,-0.34 -0.36,-0.62 -0.73,-0.71 -0.33,-0.08 -0.73,0.01 -1,0.22 -0.95,0.75 -1.76,1.67 -2.64,2.52 -0.73,0.7 -1.47,1.39 -2.2,2.08 -1.42,1.34 -2.65,2.87 -3.88,4.39 -0.57,0.7 -1.14,1.41 -1.67,2.15 -0.6,0.83 -1.18,1.68 -1.76,2.54 -0.53,0.74 -1.07,1.47 -1.61,2.21 -0.32,0.45 -0.65,0.9 -0.95,1.36 -0.3,0.45 -0.57,0.9 -0.84,1.36 -0.48,0.81 -0.87,1.68 -1.27,2.52 -0.4,0.85 -0.77,1.7 -1.16,2.55 -0.28,0.62 -0.55,1.25 -0.82,1.87 0.12,1.63 0.47,3.2 1.22,4.61 0.17,-0.12 0.33,-0.23 0.49,-0.35 0.38,-0.27 0.77,-0.54 1.14,-0.81 0.17,-0.12 0.33,-0.27 0.49,-0.4 0.82,-0.69 1.67,-1.35 2.45,-2.08 0.45,-0.42 0.91,-0.84 1.37,-1.26 0.89,-0.83 1.65,-1.78 2.34,-2.77 0.76,-1.09 1.38,-2.27 2.01,-3.44 0.5,-0.94 1,-1.88 1.5,-2.82 0.89,-1.7 1.66,-3.45 2.52,-5.16 0.9,-1.78 1.88,-3.51 2.83,-5.25 0.45,-0.83 0.89,-1.67 1.28,-2.53 0.21,-0.44 0.41,-0.88 0.58,-1.33 0.06,-0.15 0.12,-0.3 0.18,-0.45 0.08,-0.21 0.17,-0.44 0.19,-0.68 0.01,-0.11 -0.01,-0.22 -0.04,-0.33z"/>
     <path class="fil1" d="M241.67 247.9c-0,-0.12 -0.06,-0.24 -0.14,-0.32 -0.17,-0.16 -0.48,-0.16 -0.63,0.03 -0.33,0.41 -0.65,0.83 -0.95,1.26 -0.48,0.68 -0.96,1.34 -1.46,2 -0.53,0.7 -1.06,1.39 -1.55,2.12 -0.5,0.72 -0.95,1.48 -1.39,2.24 -0.21,0.37 -0.42,0.72 -0.64,1.08 -0.2,0.32 -0.41,0.64 -0.63,0.96 -0.42,0.57 -0.84,1.13 -1.28,1.69 -0.44,0.57 -0.87,1.16 -1.27,1.76 -0.38,0.57 -0.76,1.15 -1.11,1.75 -0.38,0.63 -0.75,1.26 -1.12,1.89 -0.42,0.7 -0.85,1.41 -1.3,2.1 -0.5,0.75 -1,1.5 -1.49,2.25 -0.45,0.69 -0.88,1.39 -1.32,2.09 -0.51,0.8 -1.03,1.59 -1.56,2.37 0.09,0.33 0.2,0.65 0.32,0.97 0.06,0 0.12,0.03 0.18,0.01 0.15,-0.04 0.24,-0.14 0.32,-0.26 0.86,-1.28 1.68,-2.57 2.47,-3.88 0.24,-0.39 0.47,-0.78 0.72,-1.16 0.26,-0.39 0.51,-0.78 0.77,-1.16 0.46,-0.68 0.93,-1.36 1.38,-2.06 0.93,-1.42 1.83,-2.86 2.78,-4.26 0.13,-0.19 0.26,-0.38 0.39,-0.57 0.49,-0.69 1,-1.37 1.5,-2.06 0.25,-0.34 0.48,-0.69 0.71,-1.04 0.11,-0.19 0.23,-0.37 0.34,-0.56 0.12,-0.22 0.25,-0.45 0.38,-0.68 0.4,-0.71 0.74,-1.45 1.15,-2.16 0.22,-0.39 0.44,-0.78 0.69,-1.15 0.23,-0.35 0.46,-0.7 0.7,-1.05 -0.01,0.01 -0.01,0.01 -0.02,0.02 0.47,-0.67 0.95,-1.33 1.46,-1.97 0.5,-0.65 1.02,-1.29 1.5,-1.95 0.06,-0.09 0.11,-0.17 0.11,-0.28 0,-0.01 0,-0.03 0,-0.04z"/>
    </g>
    <path class="fil1" d="M212.58 86.49c0.22,-0.12 0.44,-0.26 0.67,-0.37 3.73,-1.75 7.02,-2.89 9.96,-5.5 -4.22,0.61 -7.9,2.67 -10.63,5.86zm-7.16 6.94c0.95,-1.23 1.92,-2.46 2.98,-3.59 -0.04,-0.19 -0.04,-0.4 0.08,-0.62 3.4,-6.62 13.45,-11 20.82,-11.09 0.83,-0.01 -1.77,1.02 -2.44,2.69 -1.33,3.32 -5.48,4.17 -8.77,5.52 -2.68,1.1 -6.91,2.26 -9.12,4.3 -1.47,1.36 -3.17,3.13 -4.39,4.71 -0.73,0.95 0.12,-0.98 0.84,-1.92z"/>
    <path class="fil1" d="M192.42 149.78c1.79,-11.57 -5.06,-22.57 -9.19,-33.58 -0.4,5.72 -0.25,11.5 1.19,17.1 1.59,6.14 5.76,10.82 8,16.48zm-7.86 -8.4c-1.52,-3.13 -2.53,-6.51 -3.18,-9.89 -1.4,-7.24 -1.02,-14.61 -0.13,-21.84 0.18,-1.49 2.23,-1.47 2.58,-0.05 3.3,13.52 20.79,22.97 9.82,45.33 -0.46,0.95 -0.42,1 -0.87,-0.6 -1.12,-4.02 -6.41,-9.23 -8.22,-12.95z"/>
    <path class="fil1" d="M228.45 121.11c2.96,-3.51 5.04,-7.61 6.72,-11.87 -6.75,6.44 -15.47,11.9 -18.13,20.86 3.55,-3.27 8.17,-5.14 11.42,-8.99zm-13.24 12.14c-0.87,0.99 -0.82,0.97 -0.83,0.12 -0.27,-20 15.6,-20.54 22.61,-29.08 0.74,-0.9 2.23,-0.17 1.85,0.96 -1.84,5.52 -4.08,10.95 -7.57,15.65 -1.63,2.2 -3.52,4.27 -5.69,5.97 -2.58,2.03 -8.18,3.89 -10.37,6.37z"/>
   </g>
  </g>
 </g>
</svg>
